<svg xmlns="http://www.w3.org/2000/svg" viewBox="0 0 25 24.71">
  <defs>
    <style>
      .a9a43ea0-2282-47e5-a9aa-7673ab340400 {
        fill: #d3b313;
      }
    </style>
  </defs>
  <title>average-order</title>
  <g id="e3d9dba1-5b2a-4c41-adb1-19a13ed5b9c7" data-name="Слой 2">
    <g id="ac37c09a-1e00-4e7c-8b3a-25cb40940535" data-name="Слой 6">
      <g>
        <path class="a9a43ea0-2282-47e5-a9aa-7673ab340400" d="M16.7,15.89A1,1,0,0,1,15.62,15a1.09,1.09,0,0,1,2.15,0,.49.49,0,0,0,1,0,1.94,1.94,0,0,0-1.56-1.85v-.26a.49.49,0,0,0-1,0v.26A1.93,1.93,0,0,0,14.65,15a2,2,0,0,0,2,1.9.94.94,0,1,1-1.08.93.49.49,0,0,0-.49-.49.48.48,0,0,0-.48.49,1.93,1.93,0,0,0,1.56,1.85v.22a.49.49,0,0,0,1,0v-.22a1.94,1.94,0,0,0,1.56-1.85A2,2,0,0,0,16.7,15.89Z"/>
        <path class="a9a43ea0-2282-47e5-a9aa-7673ab340400" d="M22,13a6.33,6.33,0,0,0-2.59-2.3.51.51,0,0,0-.66.23.49.49,0,0,0,.23.65,5.37,5.37,0,0,1,2.42,7.37.5.5,0,0,0,.21.66.59.59,0,0,0,.22.05.49.49,0,0,0,.44-.26,6.4,6.4,0,0,0,.74-3A6.31,6.31,0,0,0,22,13Z"/>
        <path class="a9a43ea0-2282-47e5-a9aa-7673ab340400" d="M17.46,10.06h0a.49.49,0,0,0,0,1h0a.49.49,0,0,0,0-1Z"/>
        <path class="a9a43ea0-2282-47e5-a9aa-7673ab340400" d="M14.38,21.25A5.38,5.38,0,0,1,12,13.89a.49.49,0,0,0-.86-.46A6.35,6.35,0,0,0,14,22.13a.54.54,0,0,0,.21.05.47.47,0,0,0,.44-.28A.48.48,0,0,0,14.38,21.25Z"/>
        <path class="a9a43ea0-2282-47e5-a9aa-7673ab340400" d="M16,21.78h0a.49.49,0,1,0,0,1h0a.48.48,0,0,0,.49-.48A.49.49,0,0,0,16,21.78Z"/>
        <path class="a9a43ea0-2282-47e5-a9aa-7673ab340400" d="M18.92,8.41A2.56,2.56,0,0,0,18.7,8H20a2.25,2.25,0,1,0,0-4.49H16.06A2.24,2.24,0,0,0,14.21,0h-12a2.25,2.25,0,1,0,0,4.49H6.16A2.22,2.22,0,0,0,6.16,7H4.88a2.25,2.25,0,0,0-1.39,4,2.24,2.24,0,0,0,0,3.51,2.25,2.25,0,0,0,0,3.52,2.22,2.22,0,0,0-.85,1.75,2.24,2.24,0,0,0,2.24,2.25h5.76A8.3,8.3,0,1,0,18.92,8.41Zm1-3.92A1.27,1.27,0,0,1,20,7H8A1.27,1.27,0,1,1,8,4.49Zm-17.72-1A1.27,1.27,0,0,1,2.25,1h12a1.27,1.27,0,0,1,0,2.54ZM4.88,8h12a1.17,1.17,0,0,1,.55.13c-.23,0-.46,0-.7,0a8.25,8.25,0,0,0-5.87,2.44H4.88A1.27,1.27,0,0,1,4.88,8Zm0,3.51H10a8.36,8.36,0,0,0-1.25,2.54H4.88a1.27,1.27,0,1,1,0-2.54Zm0,3.52H8.51a8.74,8.74,0,0,0-.11,1.37,9.08,9.08,0,0,0,.08,1.17H4.88a1.27,1.27,0,0,1,0-2.54Zm0,6.05a1.27,1.27,0,1,1,0-2.54h3.8a8.41,8.41,0,0,0,1.17,2.54ZM16.7,23.73A7.33,7.33,0,1,1,24,16.41,7.33,7.33,0,0,1,16.7,23.73Z"/>
      </g>
    </g>
  </g>
</svg>
