<svg xmlns="http://www.w3.org/2000/svg" viewBox="0 0 25 17.58">
  <defs>
    <style>
      .f84ee7c7-1512-42e5-b1d7-ef74c0d82b95 {
        fill: #1b75f6;
      }
    </style>
  </defs>
  <title>classification</title>
  <g id="e61a3f19-e3db-46c8-82cd-7fa3938b4aa4" data-name="Слой 2">
    <g id="fbcbc1de-4654-4069-ba14-9017344e257d" data-name="Слой 5">
      <path class="f84ee7c7-1512-42e5-b1d7-ef74c0d82b95" d="M24.66,3.65a1,1,0,0,0-1.06-.13l-5.35,2.6-5-5.78a1,1,0,0,0-1.48,0l-5,5.78L1.4,3.52a1,1,0,0,0-1.06.13,1,1,0,0,0-.3,1L3.75,16.89a1,1,0,0,0,.94.69H20.31a1,1,0,0,0,.94-.69L25,4.68A1,1,0,0,0,24.66,3.65Zm-5.07,12H5.41L2.56,6.25l4,1.95A1,1,0,0,0,7.73,8L12.5,2.47,17.27,8a1,1,0,0,0,1.16.24l4-1.95Z"/>
    </g>
  </g>
</svg>
