<svg xmlns="http://www.w3.org/2000/svg" viewBox="0 0 10.45 10.45">
  <defs>
    <style>
      .e921cda4-62ae-4e2c-be41-4d12bfd4380e {
        fill: #fff;
      }
    </style>
  </defs>
  <title>blogs</title>
  <g id="a59ddb6c-5aab-4f4c-a007-f38f92ba25ed" data-name="Слой 2">
    <g id="f13cbf89-16ed-4410-9a7b-33a6bbedeaf6" data-name="Слой 5">
      <path class="e921cda4-62ae-4e2c-be41-4d12bfd4380e" d="M10.11,2.58a1.17,1.17,0,0,0-1.66,0l-.92.92V2a.14.14,0,0,0-.15-.15A.15.15,0,0,0,7.23,2V3.8L6,5.06a1.18,1.18,0,0,0-.1,1.55l-.63.62a.16.16,0,0,0,.22.22l.62-.62a1.18,1.18,0,0,0,.72.24A1.31,1.31,0,0,0,7.23,7v2.3H4.58a.15.15,0,0,0-.15.15.16.16,0,0,0,.15.16H8.93a.72.72,0,0,1-.69.55H3.45a1,1,0,0,0,.27-.55h.2a.16.16,0,0,0,.16-.16.16.16,0,0,0-.16-.15H3.58a.15.15,0,0,0-.15.15A.71.71,0,1,1,2,9.44V1a1,1,0,0,0-.28-.7H6.52a.7.7,0,0,1,.71.7v.3a.15.15,0,0,0,.15.15.15.15,0,0,0,.15-.15V1a1,1,0,0,0-1-1H1A1,1,0,0,0,0,1a.15.15,0,0,0,.15.15H1.72V9.44a1,1,0,0,0,1,1H8.24a1,1,0,0,0,1-1,.15.15,0,0,0-.15-.15H7.53V6.81l.1-.09L9.12,5.23a.15.15,0,0,0,0-.21A.16.16,0,0,0,8.9,5L7.41,6.51a.86.86,0,0,1-.61.25.89.89,0,0,1-.5-.15l.79-.8.55,0a.17.17,0,0,0,.15-.16.16.16,0,0,0-.17-.15H7.41l.74-.73.54,0a.15.15,0,0,0,.15-.16.14.14,0,0,0-.16-.14H8.47L9,3.91a.16.16,0,1,0-.22-.22l-.53.53V4a.15.15,0,0,0-.14-.16A.15.15,0,0,0,8,4l0,.54-.73.74V5.07a.15.15,0,0,0-.15-.16.15.15,0,0,0-.16.14l0,.55-.8.79a.89.89,0,0,1,.1-1.11L8.67,2.8A.86.86,0,1,1,9.89,4l-.53.54a.15.15,0,0,0,0,.21.16.16,0,0,0,.22,0l.53-.53a1.17,1.17,0,0,0,0-1.66ZM1,.31A.7.7,0,0,1,1.7.86H.32A.7.7,0,0,1,1,.31Z"/>
    </g>
  </g>
</svg>
