<svg xmlns="http://www.w3.org/2000/svg" viewBox="0 0 10.45 10.45">
  <defs>
    <style>
      .eabea51f-ba2d-4c7b-b799-73c678433e5d {
        fill: #fff;
      }
    </style>
  </defs>
  <title>chats</title>
  <g id="be92e5c2-ee71-4ff0-abb7-3dde7d93fbdd" data-name="Слой 2">
    <g id="f3cb59fd-f738-4e2f-80ca-47234349c98b" data-name="Слой 5">
      <path class="eabea51f-ba2d-4c7b-b799-73c678433e5d" d="M9.15,0H1.31A1.31,1.31,0,0,0,0,1.31V7.19a1.31,1.31,0,0,0,1.31,1.3H2v1.64a.31.31,0,0,0,.19.29.32.32,0,0,0,.14,0,.33.33,0,0,0,.21-.07L4.76,8.49H9.15a1.3,1.3,0,0,0,1.3-1.3V1.31A1.31,1.31,0,0,0,9.15,0ZM9.8,7.19a.65.65,0,0,1-.65.65H4.64a.32.32,0,0,0-.21.08L2.61,9.43V8.17a.32.32,0,0,0-.32-.33h-1a.66.66,0,0,1-.66-.65V1.31A.67.67,0,0,1,1.31.65H9.15a.66.66,0,0,1,.65.66Z"/>
    </g>
  </g>
</svg>
