<svg xmlns="http://www.w3.org/2000/svg" viewBox="0 0 10.45 10.28">
  <defs>
    <style>
      .a8772829-77e7-42ee-a5ac-aa85751f8615 {
        fill: #fff;
      }
    </style>
  </defs>
  <title>collaborations</title>
  <g id="b7fdb17f-7628-4aa8-8eed-05f5938e4aec" data-name="Слой 2">
    <g id="b0f55355-cca8-4171-aca0-90c0d771c21f" data-name="Эллипс 2 Изображение">
      <g>
        <path class="a8772829-77e7-42ee-a5ac-aa85751f8615" d="M4.05,2a1.52,1.52,0,0,0,.33,1v.37a.32.32,0,0,1-.11.06l-.62.16h0A.87.87,0,0,0,3,4.34v.19a.38.38,0,0,0,.39.36H7a.39.39,0,0,0,.39-.36V4.34a.87.87,0,0,0-.61-.83h0l-.63-.16-.11-.06V3h0A1.51,1.51,0,0,0,6.41,2V1.75A2.45,2.45,0,0,0,6.4.27H6.22A1.51,1.51,0,0,1,5.65.09,1.39,1.39,0,0,0,4.49.17.69.69,0,0,0,3.88.9a4.74,4.74,0,0,0,.17.93V2Zm2-.25h0V2a1.12,1.12,0,0,1-.28.75h0A.78.78,0,0,1,5.23,3,1,1,0,0,1,4.39,2V1.92a2.14,2.14,0,0,1,.12-.57,5.06,5.06,0,0,1,1.56.28v.09ZM5.74,3.29A.39.39,0,0,0,6,3.62a1.15,1.15,0,0,1-1.46,0,.39.39,0,0,0,.22-.33V3.22a1,1,0,0,0,.51.14,1,1,0,0,0,.51-.13Zm1.34,1v.19a.08.08,0,0,1,0,0H3.42a.08.08,0,0,1,0,0V4.34a.52.52,0,0,1,.36-.5l.41-.11a1.43,1.43,0,0,0,1.09.48,1.44,1.44,0,0,0,1.09-.48l.4.11A.51.51,0,0,1,7.08,4.34ZM4.55.51h.11c.25-.21.57-.13.91,0a2.11,2.11,0,0,0,.55.09,1.92,1.92,0,0,1,0,.8A5.17,5.17,0,0,0,4.4,1H4.24a1.83,1.83,0,0,1,0-.21A.35.35,0,0,1,4.55.51Z"/>
        <path class="a8772829-77e7-42ee-a5ac-aa85751f8615" d="M3.78,8.9h0l-.63-.16A.21.21,0,0,1,3,8.68V8.34H3a1.45,1.45,0,0,0,.34-.94V7.15a2.39,2.39,0,0,0,0-1.49H3.18a1.5,1.5,0,0,1-.57-.07,1.33,1.33,0,0,0-1.15.07.69.69,0,0,0-.61.74A4.89,4.89,0,0,0,1,7.23v.14a1.53,1.53,0,0,0,.32,1v.36s-.05,0-.1.06L.61,8.9h0A.89.89,0,0,0,0,9.74v.18a.37.37,0,0,0,.39.36H4a.37.37,0,0,0,.38-.36V9.74A.88.88,0,0,0,3.78,8.9ZM1.35,7.31a2.24,2.24,0,0,1,.13-.57A4.74,4.74,0,0,1,3,7v.09H3V7.4a1.1,1.1,0,0,1-.29.76h0a.76.76,0,0,1-.56.26,1,1,0,0,1-.84-1Zm.33,1.38V8.61a1,1,0,0,0,.51.15,1,1,0,0,0,.51-.14v.06A.38.38,0,0,0,2.92,9a1.14,1.14,0,0,1-.73.26A1.11,1.11,0,0,1,1.47,9,.38.38,0,0,0,1.68,8.69ZM1.52,5.9h.1c.25-.2.57-.12.91,0a2.83,2.83,0,0,0,.56.09,2.07,2.07,0,0,1,0,.79,5.24,5.24,0,0,0-1.77-.3H1.31l0,0H1.21a2.06,2.06,0,0,1,0-.21C1.19,6.11,1.27,5.9,1.52,5.9Zm2.53,4a.08.08,0,0,1,0,0H.39s0,0,0,0V9.74A.53.53,0,0,1,.7,9.23l.41-.11a1.41,1.41,0,0,0,1.08.49,1.43,1.43,0,0,0,1.09-.49l.41.11a.54.54,0,0,1,.36.51v.18Z"/>
        <path class="a8772829-77e7-42ee-a5ac-aa85751f8615" d="M9.84,8.9h0l-.63-.16a.21.21,0,0,1-.1-.06V8.34h0a1.44,1.44,0,0,0,.33-.94V7.15a2.34,2.34,0,0,0,0-1.49H9.25a1.5,1.5,0,0,1-.57-.07,1.35,1.35,0,0,0-1.16.07.69.69,0,0,0-.6.74,4.21,4.21,0,0,0,.17.93v.14a1.53,1.53,0,0,0,.32,1v.36a.21.21,0,0,1-.1.06l-.63.16h0a.89.89,0,0,0-.61.84v.18a.37.37,0,0,0,.39.36h3.6a.37.37,0,0,0,.39-.36V9.74A.89.89,0,0,0,9.84,8.9ZM7.42,7.31a1.89,1.89,0,0,1,.13-.57A4.74,4.74,0,0,1,9.11,7v.09h0V7.4a1.15,1.15,0,0,1-.29.76h0a.78.78,0,0,1-.56.26,1,1,0,0,1-.84-1V7.31Zm.33,1.38V8.61a1,1,0,0,0,.51.15,1,1,0,0,0,.51-.14v.06A.38.38,0,0,0,9,9,1.15,1.15,0,0,1,7.53,9,.38.38,0,0,0,7.75,8.69ZM7.58,5.9h.11c.25-.2.57-.12.91,0a2.72,2.72,0,0,0,.56.09,2.3,2.3,0,0,1,0,.79,5.29,5.29,0,0,0-1.77-.3h0l0,0H7.27a1.7,1.7,0,0,1,0-.21C7.26,6.11,7.34,5.9,7.58,5.9Zm2.54,4a.09.09,0,0,1-.06,0H6.46s0,0,0,0V9.74a.53.53,0,0,1,.36-.51l.4-.11a1.46,1.46,0,0,0,2.18,0l.4.11a.54.54,0,0,1,.37.51v.18Z"/>
        <path class="a8772829-77e7-42ee-a5ac-aa85751f8615" d="M6.82,2.31A3,3,0,0,1,8.26,4.89a.17.17,0,0,0,.34,0,3.36,3.36,0,0,0-.44-1.67A3.42,3.42,0,0,0,7,2a.17.17,0,0,0-.23.06A.17.17,0,0,0,6.82,2.31Z"/>
        <path class="a8772829-77e7-42ee-a5ac-aa85751f8615" d="M2,5.06a.17.17,0,0,0,.16-.17A3,3,0,0,1,3.63,2.31a.18.18,0,0,0,.06-.23A.18.18,0,0,0,3.45,2,3.31,3.31,0,0,0,2.3,3.22a3.36,3.36,0,0,0-.44,1.67A.17.17,0,0,0,2,5.06Z"/>
        <path class="a8772829-77e7-42ee-a5ac-aa85751f8615" d="M6.73,7.72a.17.17,0,0,0-.22-.08,3,3,0,0,1-1.28.28A3,3,0,0,1,4,7.64.17.17,0,0,0,3.81,8a3.42,3.42,0,0,0,1.42.31A3.49,3.49,0,0,0,6.65,8,.18.18,0,0,0,6.73,7.72Z"/>
      </g>
    </g>
  </g>
</svg>
