<svg xmlns="http://www.w3.org/2000/svg" viewBox="0 0 11.6 11.6"><defs><style>.cls-1{fill:#fff;}</style></defs><title>direction-icon</title><g id="Слой_2" data-name="Слой 2"><g id="Слой_5" data-name="Слой 5"><path class="cls-1" d="M8.69,3.08H8.42L4.94,4.87H4.87L2.93,8.42h0v0h0v0h0l0,0h.22L6.66,6.73h.07L8.67,3.18h0v0h0ZM5.07,5.32l.21.22h0a.51.51,0,0,0-.06.25.58.58,0,0,0,.57.57.51.51,0,0,0,.25-.06h0l.22.21L3.56,8ZM5.8,6A.21.21,0,1,1,6,5.8.22.22,0,0,1,5.8,6Zm.73.27-.21-.22h0a.51.51,0,0,0,.06-.25.58.58,0,0,0-.57-.57.51.51,0,0,0-.25.06h0l-.22-.21L8,3.56Z"/><path class="cls-1" d="M9.9,1.7a5.79,5.79,0,0,0-8.2,0,5.79,5.79,0,0,0,0,8.2,5.79,5.79,0,0,0,8.2,0,5.79,5.79,0,0,0,0-8.2ZM9.64,9.64A5.41,5.41,0,0,1,2,9.64,5.41,5.41,0,0,1,2,2,5.41,5.41,0,0,1,9.64,2a5.41,5.41,0,0,1,0,7.68Z"/><path class="cls-1" d="M5.8.77a5,5,0,1,0,5,5A5,5,0,0,0,5.8.77Zm0,9.69A4.66,4.66,0,1,1,10.46,5.8,4.66,4.66,0,0,1,5.8,10.46Z"/><path class="cls-1" d="M5.8,2.69A.18.18,0,0,0,6,2.51V1.73a.18.18,0,0,0-.36,0v.78A.18.18,0,0,0,5.8,2.69Z"/><path class="cls-1" d="M5.8,8.91a.18.18,0,0,0-.18.18v.78a.18.18,0,1,0,.36,0V9.09A.18.18,0,0,0,5.8,8.91Z"/><path class="cls-1" d="M2.51,5.62H1.73a.18.18,0,0,0,0,.36h.78a.18.18,0,0,0,0-.36Z"/><path class="cls-1" d="M9.87,5.62H9.09a.18.18,0,0,0,0,.36h.78a.18.18,0,0,0,0-.36Z"/></g></g></svg>