<svg xmlns="http://www.w3.org/2000/svg" viewBox="0 0 11.6 12.63"><defs><style>.cls-1{fill:#fff;}</style></defs><title>experience-icon</title><g id="Слой_2" data-name="Слой 2"><g id="Слой_5" data-name="Слой 5"><path class="cls-1" d="M10.25.84a.19.19,0,0,0-.26,0L8.73,2.06l.16-.76a.19.19,0,0,0-.37-.07l-.26,1.3-.54.52.15-.74a.19.19,0,0,0-.15-.22.18.18,0,0,0-.22.14L7.24,3.52l-1,.95a.18.18,0,0,0,0,.26.2.2,0,0,0,.14.06.24.24,0,0,0,.13,0l.91-.9,1.38,0A.19.19,0,0,0,9,3.63a.2.2,0,0,0-.19-.19h0l-1,0,.64-.62,1.36,0A.18.18,0,0,0,10,2.62a.18.18,0,0,0-.18-.18h-1l1.38-1.34A.18.18,0,0,0,10.25.84Z"/><path class="cls-1" d="M2.6,3.54l-.17-.21a.19.19,0,0,0-.27,0,.19.19,0,0,0,0,.26l.19.23s.18.11.26,0A.19.19,0,0,0,2.6,3.54Z"/><path class="cls-1" d="M6.71,9.65a.62.62,0,1,0,.61.62A.61.61,0,0,0,6.71,9.65Zm0,.85A.24.24,0,1,1,7,10.27.23.23,0,0,1,6.71,10.5Z"/><path class="cls-1" d="M8.42,10.65a.19.19,0,0,0-.18.19.18.18,0,0,0,.18.19.24.24,0,0,1,.24.24.23.23,0,0,1-.24.23.23.23,0,0,1-.23-.23A.19.19,0,0,0,8,11.08a.18.18,0,0,0-.19.19.62.62,0,0,0,1.23,0A.62.62,0,0,0,8.42,10.65Z"/><path class="cls-1" d="M8.85,7.17a.61.61,0,1,0,.61.61A.61.61,0,0,0,8.85,7.17Zm0,.85a.24.24,0,1,1,.24-.24A.24.24,0,0,1,8.85,8Z"/><path class="cls-1" d="M2.34,7a.61.61,0,0,0,0,1.22.19.19,0,1,0,0-.37.24.24,0,1,1,.24-.24.19.19,0,1,0,.37,0A.61.61,0,0,0,2.34,7Z"/><path class="cls-1" d="M10.42,9.82a1.14,1.14,0,0,0-.41.07A2,2,0,0,0,8.06,8.71,2.52,2.52,0,0,0,6.39,7.39a15.16,15.16,0,0,1,.17-1.83,5.14,5.14,0,0,0,2.16-.72,4.67,4.67,0,0,0,1.55-1.48A6,6,0,0,0,11.18.72.66.66,0,0,0,11,.2.65.65,0,0,0,10.5,0,6.23,6.23,0,0,0,8.14.71a4.94,4.94,0,0,0-2,2.07,5.15,5.15,0,0,0-.33-.56A4.87,4.87,0,0,0,4.3.73,5.23,5.23,0,0,0,1.86,0a.66.66,0,0,0-.49.19.7.7,0,0,0-.19.47,5.1,5.1,0,0,0,.58,2.28A.18.18,0,0,0,2,3a.18.18,0,0,0,.08-.25A4.64,4.64,0,0,1,1.56.65.24.24,0,0,1,1.64.46.29.29,0,0,1,1.86.38a4.67,4.67,0,0,1,2.24.67A4.46,4.46,0,0,1,5.53,2.42,5.19,5.19,0,0,1,6,3.23a4.22,4.22,0,0,0-.18.45c0,.11-.08.25-.12.4l-.58-.56L4.82,2.23a.18.18,0,0,0-.22-.14.19.19,0,0,0-.15.22l.15.74-.54-.52L3.8,1.23a.19.19,0,0,0-.22-.15.18.18,0,0,0-.14.22l.15.76L2.33.84a.19.19,0,0,0-.26,0,.19.19,0,0,0,0,.27L3.45,2.45h-1a.18.18,0,0,0-.19.18.18.18,0,0,0,.18.19l1.36,0,.64.62-1,0a.21.21,0,0,0-.2.19.2.2,0,0,0,.19.19l1.38,0,.67.66c0,.18-.09.38-.13.59a5.93,5.93,0,0,1-1.53-.56A4.28,4.28,0,0,1,3.11,4a.2.2,0,0,0-.27,0,.19.19,0,0,0,0,.26,4.43,4.43,0,0,0,.84.57,6.22,6.22,0,0,0,1.65.6,14.43,14.43,0,0,0-.17,1.93A2.55,2.55,0,0,0,3.54,8.71,2,2,0,0,0,1.59,9.89a1.14,1.14,0,0,0-.41-.07,1.18,1.18,0,1,0,0,2.35,1.24,1.24,0,0,0,.71-.24,2,2,0,0,0,1.5.7,1.89,1.89,0,0,0,1.3-.5,2.5,2.5,0,0,0,2.22,0,1.89,1.89,0,0,0,1.3.5,2,2,0,0,0,1.5-.7,1.24,1.24,0,0,0,.71.24,1.18,1.18,0,1,0,0-2.35Zm-4.29-6A4.9,4.9,0,0,1,8.32,1a5.76,5.76,0,0,1,2.2-.66.24.24,0,0,1,.21.08.24.24,0,0,1,.07.21A5.57,5.57,0,0,1,10,3.15,4.26,4.26,0,0,1,8.53,4.52a5,5,0,0,1-2.14.68.17.17,0,0,0-.17.15,15.4,15.4,0,0,0-.21,2H5.57A12.72,12.72,0,0,1,6.13,3.81Zm4.29,8a.79.79,0,0,1-.59-.26.19.19,0,0,0-.15-.07.21.21,0,0,0-.15.09,1.59,1.59,0,0,1-1.32.71,1.61,1.61,0,0,1-1.14-.49.19.19,0,0,0-.13,0,.15.15,0,0,0-.09,0,2.18,2.18,0,0,1-2.1,0,.18.18,0,0,0-.22,0,1.61,1.61,0,0,1-1.14.49,1.59,1.59,0,0,1-1.32-.71.22.22,0,0,0-.14-.09.2.2,0,0,0-.16.07.8.8,0,1,1-.59-1.34.75.75,0,0,1,.41.12.2.2,0,0,0,.17,0,.22.22,0,0,0,.11-.12A1.58,1.58,0,0,1,3.39,9.08l.23,0A.18.18,0,0,0,3.82,9a2.16,2.16,0,0,1,4,0A.18.18,0,0,0,8,9.1l.23,0a1.58,1.58,0,0,1,1.52,1.13.22.22,0,0,0,.11.12.2.2,0,0,0,.17,0,.75.75,0,0,1,.41-.12.8.8,0,0,1,0,1.6Z"/><circle class="cls-1" cx="8.14" cy="9.81" r="0.16"/><circle class="cls-1" cx="9.78" cy="8.73" r="0.16"/><circle class="cls-1" cx="1.61" cy="8.57" r="0.16"/></g></g></svg>