<svg xmlns="http://www.w3.org/2000/svg" viewBox="0 0 15.11 14.9">
  <defs>
    <style>
      .a283b298-8e7f-45e3-b023-4996f9233934 {
        fill: #fff;
      }
    </style>
  </defs>
  <title>facebook</title>
  <g id="f5258935-933e-4749-bcd8-fa3f394e67bf" data-name="Слой 2">
    <g id="b9508fe0-844e-420f-bb2d-6410a44c9465" data-name="Слой 6">
      <path class="a283b298-8e7f-45e3-b023-4996f9233934" d="M14.48,0H.64A.64.64,0,0,0,0,.63V14.27a.64.64,0,0,0,.64.63H8.07V9.13h-2V6.88h2V5.22a2.73,2.73,0,0,1,2.94-3,15.65,15.65,0,0,1,1.76.09v2H11.56c-1,0-1.13.44-1.13,1.09V6.88h2.26l-.3,2.25h-2V14.9h4.05a.63.63,0,0,0,.63-.63V.63A.63.63,0,0,0,14.48,0Z"/>
    </g>
  </g>
</svg>
