<svg xmlns="http://www.w3.org/2000/svg" viewBox="0 0 15.7 13.97">
  <defs>
    <style>
      .bfab6ca1-5496-4a13-bdf8-73ff43537ab6 {
        fill: #fff;
      }
    </style>
  </defs>
  <title>help_us_to_build</title>
  <g id="a2362a28-520d-46c2-b44a-a9784d02c2bf" data-name="Слой 2">
    <g id="ab65387a-9de9-49a2-a755-8f6ed176d135" data-name="Эллипс 2 Изображение">
      <path class="bfab6ca1-5496-4a13-bdf8-73ff43537ab6" d="M7.85,14a.93.93,0,0,1-.61-.23L5.46,12.2h0a32.46,32.46,0,0,1-3.9-3.66A5.79,5.79,0,0,1,0,4.72,4.87,4.87,0,0,1,1.25,1.37,4.21,4.21,0,0,1,4.39,0,4,4,0,0,1,6.85.85a5.21,5.21,0,0,1,1,1,5.21,5.21,0,0,1,1-1A4,4,0,0,1,11.31,0a4.21,4.21,0,0,1,3.14,1.37A4.87,4.87,0,0,1,15.7,4.72a5.79,5.79,0,0,1-1.56,3.82,33.07,33.07,0,0,1-3.89,3.66c-.55.46-1.16,1-1.79,1.54A.93.93,0,0,1,7.85,14ZM4.39.92A3.32,3.32,0,0,0,1.92,2a4,4,0,0,0-1,2.73A4.89,4.89,0,0,0,2.27,8,32.16,32.16,0,0,0,6.05,11.5h0l1.8,1.55,1.8-1.55A32.16,32.16,0,0,0,13.43,8a4.89,4.89,0,0,0,1.35-3.24,4,4,0,0,0-1-2.73A3.32,3.32,0,0,0,11.31.92a3,3,0,0,0-1.9.66A4.36,4.36,0,0,0,8.35,2.81a.59.59,0,0,1-1,0A4.36,4.36,0,0,0,6.29,1.58,3,3,0,0,0,4.39.92Z"/>
    </g>
  </g>
</svg>
