<svg xmlns="http://www.w3.org/2000/svg" viewBox="0 0 17.89 17.63">
  <defs>
    <style>
      .e0fdb6a8-552a-48be-8845-c3aab681b18c {
        fill: #fff;
      }
    </style>
  </defs>
  <title>insta</title>
  <g id="b8029e17-3adb-47b7-a21a-6934fc8ef54c" data-name="Слой 2">
    <g id="a69cbcef-5791-4979-a695-957cdf649561" data-name="Слой 6">
      <g>
        <path class="e0fdb6a8-552a-48be-8845-c3aab681b18c" d="M11.73,8.86a2.8,2.8,0,0,1-4,2.5,2.49,2.49,0,0,1-1.13-1,2.74,2.74,0,0,1-.25-2.56H4.85v4.3a.77.77,0,0,0,.78.76h6.63a.77.77,0,0,0,.78-.76V7.83H11.52A2.71,2.71,0,0,1,11.73,8.86Z"/>
        <path class="e0fdb6a8-552a-48be-8845-c3aab681b18c" d="M9.13,10.36A1.78,1.78,0,0,0,10.92,8.6a1.74,1.74,0,0,0-.34-1,1.79,1.79,0,0,0-2.9,0,1.74,1.74,0,0,0-.34,1A1.78,1.78,0,0,0,9.13,10.36ZM13,6.44V4.74H11.32v1.7Z"/>
        <path class="e0fdb6a8-552a-48be-8845-c3aab681b18c" d="M10.11.07A8.89,8.89,0,0,0,.48,11.73,8.55,8.55,0,0,0,6,17.16a8.93,8.93,0,0,0,11.83-9.5A8.9,8.9,0,0,0,10.11.07ZM14,11.89a2,2,0,0,1-2,1.94H5.82a2,2,0,0,1-2-1.94V5.74a2,2,0,0,1,2-1.94h6.44A1.76,1.76,0,0,1,14,5.55Z"/>
      </g>
    </g>
  </g>
</svg>
