<svg xmlns="http://www.w3.org/2000/svg" viewBox="0 0 4.65 6.97">
  <defs>
    <style>
      .a0df1241-d7fb-4c38-a1c8-47148a01b6fc {
        fill: #fff;
      }
    </style>
  </defs>
  <title>location</title>
  <g id="a43f3246-bb7a-4b00-a0f7-0d729db83ef1" data-name="Слой 2">
    <g id="af83f517-741b-4c8c-980e-718587e75bcc" data-name="Слой 5">
      <path class="a0df1241-d7fb-4c38-a1c8-47148a01b6fc" d="M2.32,0A2.32,2.32,0,0,0,0,2.32,2.37,2.37,0,0,0,.28,3.43L2.2,6.9A.14.14,0,0,0,2.32,7a.14.14,0,0,0,.13-.07L4.37,3.43a2.37,2.37,0,0,0,.28-1.11A2.32,2.32,0,0,0,2.32,0Zm0,3.49A1.17,1.17,0,1,1,3.49,2.32,1.17,1.17,0,0,1,2.32,3.49Z"/>
    </g>
  </g>
</svg>
