<svg xmlns="http://www.w3.org/2000/svg" viewBox="0 0 10.45 12.62">
  <defs>
    <style>
      .a9d50d02-43c8-47f7-bde3-1466f8d6d0b7 {
        fill: #fff;
      }
    </style>
  </defs>
  <title>my_orders</title>
  <g id="a51bbfa2-9898-41fa-aff8-447f2207c8b0" data-name="Слой 2">
    <g id="b87e71f2-81ec-458d-b246-3b8d307a5971" data-name="Слой 5">
      <g>
        <path class="a9d50d02-43c8-47f7-bde3-1466f8d6d0b7" d="M8.78,3.75H5.23a.25.25,0,1,0,0,.49H8.78a.25.25,0,0,0,0-.49Z"/>
        <path class="a9d50d02-43c8-47f7-bde3-1466f8d6d0b7" d="M7.91,5a.26.26,0,0,0-.17-.07A.24.24,0,0,0,7.57,5a.25.25,0,0,0-.08.18.23.23,0,0,0,.08.17.21.21,0,0,0,.17.07.22.22,0,0,0,.17-.07A.23.23,0,0,0,8,5.18.25.25,0,0,0,7.91,5Z"/>
        <path class="a9d50d02-43c8-47f7-bde3-1466f8d6d0b7" d="M5.4,1.13a.28.28,0,0,0-.17-.07.29.29,0,0,0-.18.07A.29.29,0,0,0,5,1.31a.26.26,0,0,0,.07.17.24.24,0,0,0,.18.07.23.23,0,0,0,.17-.07.22.22,0,0,0,.07-.17A.24.24,0,0,0,5.4,1.13Z"/>
        <path class="a9d50d02-43c8-47f7-bde3-1466f8d6d0b7" d="M6.7,4.93H5.23a.25.25,0,1,0,0,.49H6.7a.25.25,0,1,0,0-.49Z"/>
        <path class="a9d50d02-43c8-47f7-bde3-1466f8d6d0b7" d="M8.78,6.41H5.23a.25.25,0,1,0,0,.49H8.78a.25.25,0,0,0,0-.49Z"/>
        <path class="a9d50d02-43c8-47f7-bde3-1466f8d6d0b7" d="M7.91,7.67a.23.23,0,0,0-.17-.08.28.28,0,0,0-.25.25A.23.23,0,0,0,7.57,8a.21.21,0,0,0,.17.08A.28.28,0,0,0,8,7.84.21.21,0,0,0,7.91,7.67Z"/>
        <path class="a9d50d02-43c8-47f7-bde3-1466f8d6d0b7" d="M6.7,7.59H5.23a.25.25,0,0,0,0,.5H6.7a.25.25,0,0,0,0-.5Z"/>
        <path class="a9d50d02-43c8-47f7-bde3-1466f8d6d0b7" d="M8.78,9.07H5.23a.25.25,0,0,0,0,.5H8.78a.25.25,0,0,0,0-.5Z"/>
        <path class="a9d50d02-43c8-47f7-bde3-1466f8d6d0b7" d="M7.91,10.33a.22.22,0,0,0-.17-.07.21.21,0,0,0-.17.07.23.23,0,0,0-.08.17.25.25,0,0,0,.08.18.24.24,0,0,0,.17.07.26.26,0,0,0,.17-.07A.25.25,0,0,0,8,10.5.23.23,0,0,0,7.91,10.33Z"/>
        <path class="a9d50d02-43c8-47f7-bde3-1466f8d6d0b7" d="M6.7,10.26H5.23a.25.25,0,1,0,0,.49H6.7a.25.25,0,1,0,0-.49Z"/>
        <path class="a9d50d02-43c8-47f7-bde3-1466f8d6d0b7" d="M9.25,1H7.37a1.51,1.51,0,0,0-1-.42H6.11A1,1,0,0,0,5.23,0a1,1,0,0,0-.88.54H4.13a1.53,1.53,0,0,0-1,.42H1.2A1.2,1.2,0,0,0,0,2.16v9.26a1.2,1.2,0,0,0,1.2,1.2H9.25a1.2,1.2,0,0,0,1.2-1.2V2.16A1.2,1.2,0,0,0,9.25,1ZM4.13,1h.38A.26.26,0,0,0,4.75.85.5.5,0,0,1,5.23.49.49.49,0,0,1,5.7.85.26.26,0,0,0,5.94,1h.38a1,1,0,0,1,1,.93H3.11A1,1,0,0,1,4.13,1ZM10,11.42a.71.71,0,0,1-.71.71h-8a.71.71,0,0,1-.71-.71V2.16a.71.71,0,0,1,.71-.71H2.74a1.55,1.55,0,0,0-.13.61v.16a.25.25,0,0,0,.25.25H7.59a.25.25,0,0,0,.25-.25V2.06a1.55,1.55,0,0,0-.13-.61H9.25a.71.71,0,0,1,.71.71Z"/>
        <path class="a9d50d02-43c8-47f7-bde3-1466f8d6d0b7" d="M3.66,3.69a.24.24,0,0,0-.35,0L2.26,4.74l-.33-.32a.24.24,0,0,0-.35,0,.26.26,0,0,0,0,.35l.5.5a.29.29,0,0,0,.18.07.28.28,0,0,0,.17-.07L3.66,4A.24.24,0,0,0,3.66,3.69Z"/>
        <path class="a9d50d02-43c8-47f7-bde3-1466f8d6d0b7" d="M3.06,9.07H1.87a.25.25,0,0,0-.24.25V10.5a.25.25,0,0,0,.24.25H3.06a.25.25,0,0,0,.24-.25V9.32A.25.25,0,0,0,3.06,9.07Zm-.25,1.19H2.12V9.57h.69Z"/>
        <path class="a9d50d02-43c8-47f7-bde3-1466f8d6d0b7" d="M3.06,6.41H1.87a.25.25,0,0,0-.24.25V7.84a.25.25,0,0,0,.24.25H3.06a.25.25,0,0,0,.24-.25V6.66A.25.25,0,0,0,3.06,6.41ZM2.81,7.59H2.12V6.9h.69Z"/>
      </g>
    </g>
  </g>
</svg>
