<svg xmlns="http://www.w3.org/2000/svg" viewBox="0 0 10.45 10.45">
  <defs>
    <style>
      .a03abb4d-bcb4-497c-b114-1516f8de47bd {
        fill: #fff;
      }
    </style>
  </defs>
  <title>my_team</title>
  <g id="f4b157ee-a609-4bc6-8baf-a5dd51fe4a21" data-name="Слой 2">
    <g id="b183986f-3869-4a43-8e7d-382c5991c5ab" data-name="Слой 5">
      <g>
        <path class="a03abb4d-bcb4-497c-b114-1516f8de47bd" d="M9.28,6.18l0,0A.74.74,0,0,0,8.35,6h0l-.12.07A1,1,0,0,0,7.12,6l-.69.37H5.52A1.21,1.21,0,0,1,5,6.2l-.13-.06a2.14,2.14,0,0,0-2.23.22h0l-.3.27a1,1,0,0,1-.39.22l-.18-.56a.13.13,0,0,0-.13-.1H.14A.14.14,0,0,0,0,6.33v0l.49,4a.13.13,0,0,0,.13.12H2.81A.13.13,0,0,0,3,10.32s0,0,0,0l-.29-.95.9-.56a.49.49,0,0,1,.39,0H4l1.82.34a2.44,2.44,0,0,0,1.46-.21h0l3.15-2.16a.14.14,0,0,0,0-.19A.86.86,0,0,0,9.28,6.18Zm-.81.05A.48.48,0,0,1,9,6.34L7.78,7,7.71,7a.92.92,0,0,0-.16-.29Zm-1.22,0h0a.7.7,0,0,1,.7,0l-.6.33A1,1,0,0,0,7,6.35Zm-6.51,4L.29,6.47h1.2l1.14,3.71ZM7.1,8.61a2.1,2.1,0,0,1-1.28.18L4,8.45a.81.81,0,0,0-.59.08h0l-.84.53L2,7.11a1.31,1.31,0,0,0,.49-.27l.3-.27a1.89,1.89,0,0,1,1.94-.19l.13.06a1.48,1.48,0,0,0,.68.16H6.74a.77.77,0,0,1,.75.62l-.88,0a5.15,5.15,0,0,0-1,.05.14.14,0,0,0,0,.27,4.59,4.59,0,0,1,.91,0l1,0h0a.13.13,0,0,0,.13-.13V7.3l.14-.07,1.5-.81a.59.59,0,0,1,.71.11Z"/>
        <path class="a03abb4d-bcb4-497c-b114-1516f8de47bd" d="M1.17,9.62a.43.43,0,0,0,.43.43.43.43,0,0,0,0-.86A.43.43,0,0,0,1.17,9.62Zm.43-.16a.16.16,0,1,1,0,.32.16.16,0,0,1,0-.32Z"/>
        <path class="a03abb4d-bcb4-497c-b114-1516f8de47bd" d="M6.26,1.47V1a1,1,0,0,0-1-1,1,1,0,0,0-1,1v.44a1,1,0,1,0,2.06,0Zm-1.79,0V1A.76.76,0,1,1,6,1v.44a.77.77,0,0,1-.77.76A.76.76,0,0,1,4.47,1.47Z"/>
        <path class="a03abb4d-bcb4-497c-b114-1516f8de47bd" d="M3.57,5.3H6.89A.14.14,0,0,0,7,5.17H7V4.85H9.3a.13.13,0,0,0,.14-.13V3.84a1,1,0,0,0-1-1,.17.17,0,0,0-.14.08A.62.62,0,0,1,7.47,3a.63.63,0,0,1-.11-.12.16.16,0,0,0-.11-.05.89.89,0,0,0-.5.15,1.13,1.13,0,0,0-.8-.4c-.07,0-.1,0-.14.08a.73.73,0,0,1-1,.1.5.5,0,0,1-.12-.13.17.17,0,0,0-.12-.05,1.14,1.14,0,0,0-.78.34l0,.06a1,1,0,0,0-.47-.15.17.17,0,0,0-.14.08A.62.62,0,0,1,2.23,3a.63.63,0,0,1-.11-.12A.16.16,0,0,0,2,2.82a1,1,0,0,0-1,1v.88a.13.13,0,0,0,.13.13H3.43v.32A.13.13,0,0,0,3.57,5.3ZM7.19,3.1a.9.9,0,0,0,1.26.08.6.6,0,0,0,.08-.08.76.76,0,0,1,.64.74v.74H7V3.71a1.18,1.18,0,0,0-.13-.52.75.75,0,0,1,.29-.09Zm-2.7-.26A1,1,0,0,0,5.9,3l.1-.1a.87.87,0,0,1,.75.86V5h-3V3.71A.89.89,0,0,1,4.49,2.84ZM1.29,4.58V3.84A.74.74,0,0,1,2,3.1a.9.9,0,0,0,1.26.08l.08-.08a.8.8,0,0,1,.26.09,1.17,1.17,0,0,0-.12.52v.87Z"/>
        <path class="a03abb4d-bcb4-497c-b114-1516f8de47bd" d="M8.77,1.88V1.49a.92.92,0,1,0-1.84,0v.39a.92.92,0,1,0,1.84,0Zm-1.57,0V1.49a.65.65,0,1,1,1.29,0h0v.39a.65.65,0,1,1-1.29,0Z"/>
        <path class="a03abb4d-bcb4-497c-b114-1516f8de47bd" d="M3.53,1.88V1.49a.92.92,0,0,0-1.84,0v.39a.92.92,0,0,0,1.84,0ZM2,1.88V1.49a.65.65,0,1,1,1.29,0h0v.39A.65.65,0,1,1,2,1.88Z"/>
      </g>
    </g>
  </g>
</svg>
