<svg xmlns="http://www.w3.org/2000/svg" viewBox="0 0 15.73 15.7">
  <defs>
    <style>
      .b643a9a3-4a1d-4af2-97e9-32d41ad190ca {
        opacity: 0.9;
      }

      .bf81b236-c47e-40ce-af74-0c7cbb935b6e {
        fill: #fff;
      }
    </style>
  </defs>
  <title>preferencies</title>
  <g id="a9b52f5a-0b67-4bd1-bf2e-8e5c1c725d9c" data-name="Слой 2">
    <g id="ba55cc44-5e10-41cd-86d1-6d2fafde439c" data-name="Слой 5">
      <g id="a1e9a758-92d1-4942-9d4b-813d0593f722" data-name="S5qw0R" class="b643a9a3-4a1d-4af2-97e9-32d41ad190ca">
        <path class="bf81b236-c47e-40ce-af74-0c7cbb935b6e" d="M0,5.61V5.35s0,0,0,0a3,3,0,0,1,.28-.94,2,2,0,0,1,.38-.56.5.5,0,0,1,.54-.13l.2.06a1.9,1.9,0,0,0,1.31,0,1.39,1.39,0,0,0,.92-.86,2.69,2.69,0,0,0,.06-1.59A.56.56,0,0,1,3.87.72,1.57,1.57,0,0,1,4.11.51,3.27,3.27,0,0,1,5.55,0,.54.54,0,0,1,6.2.4v0a1.84,1.84,0,0,0,1,1.05,1.76,1.76,0,0,0,2.24-1A.9.9,0,0,1,9.77.1.36.36,0,0,1,10,0a2.56,2.56,0,0,1,.91.2,2,2,0,0,1,.9.63A.51.51,0,0,1,12,1.4a.69.69,0,0,0,0,.1,1.91,1.91,0,0,0-.15.58,1.68,1.68,0,0,0,.86,1.64,1.93,1.93,0,0,0,1.75,0,.56.56,0,0,1,.66.11,1.76,1.76,0,0,1,.24.3,3.85,3.85,0,0,1,.46,1.4.59.59,0,0,1-.37.64,2,2,0,0,0-.86.61,1.72,1.72,0,0,0,.21,2.41,2.07,2.07,0,0,0,.45.27,1.22,1.22,0,0,1,.29.17.66.66,0,0,1,.25.53,2.68,2.68,0,0,1-.56,1.54.88.88,0,0,1-1,.29A2.15,2.15,0,0,0,13,11.88a1.27,1.27,0,0,0-.67.29,1.76,1.76,0,0,0-.43.59,1.88,1.88,0,0,0,0,1.49.87.87,0,0,1,.06.32.63.63,0,0,1-.27.49,3.09,3.09,0,0,1-1.59.64.49.49,0,0,1-.37-.09.84.84,0,0,1-.25-.34A2.17,2.17,0,0,0,9,14.53a1.62,1.62,0,0,0-2-.24,2,2,0,0,0-.82,1,.63.63,0,0,1-.49.4H5.39a3.56,3.56,0,0,1-1.26-.43,1.93,1.93,0,0,1-.53-.41.52.52,0,0,1-.12-.57L3.6,14a1.6,1.6,0,0,0-.35-1.77,1.08,1.08,0,0,0-.5-.28,2.41,2.41,0,0,0-1.33,0,.72.72,0,0,1-.9-.33,3.33,3.33,0,0,1-.41-.9c0-.18-.07-.36-.11-.54v-.11S0,10,0,10a.59.59,0,0,1,.37-.5,2.21,2.21,0,0,0,1-.76A1.51,1.51,0,0,0,1.3,6.82a2.5,2.5,0,0,0-.93-.67.47.47,0,0,1-.25-.27A2.18,2.18,0,0,1,0,5.61ZM11.53,7.82A3.67,3.67,0,1,0,7.85,11.5a3.67,3.67,0,0,0,3.68-3.68h0Z"/>
      </g>
    </g>
  </g>
</svg>
