<svg xmlns="http://www.w3.org/2000/svg" viewBox="0 0 512 512"><defs><style>.b66275dc-659d-4c9c-b19a-cfc06b3d35f7{fill:#fff;}</style></defs><title>presentation</title><g id="accb7fd9-daeb-4c8f-b434-991ce323288f" data-name="Слой 2"><g id="ff36b263-b003-4409-b6a9-9e5641de15e7" data-name="Capa 1"><path class="b66275dc-659d-4c9c-b19a-cfc06b3d35f7" d="M492,46H276V20a20,20,0,0,0-40,0V46H20a20,20,0,0,0,0,40H36V386a20,20,0,0,0,20,20h55.78l-34.1,78a20,20,0,1,0,36.64,16l41.12-94H356.57l41.11,94a20,20,0,0,0,36.65-16l-34.11-78H456a20,20,0,0,0,20-20V86h16a20,20,0,0,0,0-40ZM436,366H76V86H436Z"/><path class="b66275dc-659d-4c9c-b19a-cfc06b3d35f7" d="M386,125H126a20,20,0,0,0-20,20v80a20,20,0,0,0,20,20H386a20,20,0,0,0,20-20V145A20,20,0,0,0,386,125Zm-20,80H146V165H366Z"/><path class="b66275dc-659d-4c9c-b19a-cfc06b3d35f7" d="M356,287H156a20,20,0,0,0,0,40H356a20,20,0,0,0,0-40Z"/></g></g></svg>