<svg xmlns="http://www.w3.org/2000/svg" viewBox="0 0 10.45 12.49">
  <defs>
    <style>
      .bc614a0b-6671-48ec-8fc9-f511fed8822f {
        fill: #fff;
      }

      .ffd37acb-78a1-4795-85c8-3881a4f93aec {
        fill: #1dbeea;
      }
    </style>
  </defs>
  <title>profile</title>
  <g id="bf7aae3a-ce9d-4145-91d6-82462e7a8781" data-name="Слой 2">
    <g id="eb090453-d844-4c2c-9af7-2f8ab089fbfe" data-name="Слой 5">
      <g>
        <path class="bc614a0b-6671-48ec-8fc9-f511fed8822f" d="M5.23,0A2.92,2.92,0,1,0,8.15,2.92,2.93,2.93,0,0,0,5.23,0Zm0,2a1,1,0,0,0-1,1,.44.44,0,0,1-.43.44.44.44,0,0,1-.44-.44A1.83,1.83,0,0,1,5.23,1.1a.44.44,0,0,1,0,.87Z"/>
        <g>
          <path class="bc614a0b-6671-48ec-8fc9-f511fed8822f" d="M10.45,9.78V9.72h0a2,2,0,0,0-1-1.92c-1.12-.7-2.36-1.3-2.36-1.3l-1,3.13L5.5,8.46C6.51,7,5.42,7,5.23,7h0C5,7,3.94,7,5,8.46L4.38,9.62l-1-3.13S2.14,7.09,1,7.79A2,2,0,0,0,0,9.71H0v2.77H10.45V9.78Z"/>
          <path class="ffd37acb-78a1-4795-85c8-3881a4f93aec" d="M0,9.7Z"/>
          <path class="ffd37acb-78a1-4795-85c8-3881a4f93aec" d="M10.44,9.7Z"/>
        </g>
      </g>
    </g>
  </g>
</svg>
