<svg xmlns="http://www.w3.org/2000/svg" viewBox="0 0 669.13 393.23"><defs><style>.ba099d62-2a4e-4e32-b5a0-3ec4db537d37{font-size:8.56px;font-family:ShreeDev0714, "Shree Devanagari 714";}.b6cfaf48-7be8-4358-9fae-52d5f6486dcb,.ba099d62-2a4e-4e32-b5a0-3ec4db537d37,.f91b6123-ad26-4a8a-a101-45c5504b5bb5{fill:#fff;}.b6cfaf48-7be8-4358-9fae-52d5f6486dcb{font-size:17.64px;font-family:MyriadPro-Regular, Myriad Pro;}.bb83cf97-f05d-48fc-9f66-a067e3f6db7b{fill:#f3f5f9;}</style></defs><title>right-arrow</title><g id="e6d96ead-13f2-4418-984e-71427dd23261" data-name="Слой 2"><g id="b39916b2-9b25-46ef-a9bb-aa9946794cd7" data-name="Слой 5"><text class="ba099d62-2a4e-4e32-b5a0-3ec4db537d37" transform="translate(6.55 7.43)">Chats</text><path class="f91b6123-ad26-4a8a-a101-45c5504b5bb5" d="M40.78,2.84a1.5,1.5,0,0,1,1.61-1.33,1.37,1.37,0,0,1,1.53,1.37A1.14,1.14,0,0,1,43.16,4v0a1.38,1.38,0,0,1,1,1.43,1.64,1.64,0,0,1-1.8,1.71A1.66,1.66,0,0,1,40.6,5.73H41a1.35,1.35,0,0,0,1.38,1.06,1.2,1.2,0,0,0,1.3-1.3c0-.87-.57-1.22-1.38-1.22H42V3.88h.25c.84,0,1.21-.35,1.21-1a1,1,0,0,0-1.1-1,1.08,1.08,0,0,0-1.17.93Z" transform="translate(0 -0.05)"/><text class="b6cfaf48-7be8-4358-9fae-52d5f6486dcb" transform="translate(0 350.52)">?</text><path class="f91b6123-ad26-4a8a-a101-45c5504b5bb5" d="M583.55,44.93v3.35c0,1.31.72,1.67,1.43,1.67s1.42-.38,1.42-1.67V44.93h.74v3.31c0,1.81-1,2.33-2.18,2.33a2,2,0,0,1-2.16-2.28V44.93Z" transform="translate(0 -0.05)"/><path class="f91b6123-ad26-4a8a-a101-45c5504b5bb5" d="M588,50.5V49.31h.73V50.5Z" transform="translate(0 -0.05)"/><path class="f91b6123-ad26-4a8a-a101-45c5504b5bb5" d="M590.32,49a1.28,1.28,0,0,0,1.42,1c.86,0,1.21-.4,1.21-.93s-.28-.87-1.39-1.14c-1.31-.32-1.77-.77-1.77-1.55s.61-1.5,1.85-1.5a1.73,1.73,0,0,1,2,1.5h-.75a1.07,1.07,0,0,0-1.22-.9c-.68,0-1.06.3-1.06.83s.31.73,1.29,1c1.58.38,1.86,1,1.86,1.71,0,.9-.66,1.61-2,1.61A1.88,1.88,0,0,1,589.57,49Z" transform="translate(0 -0.05)"/><path class="f91b6123-ad26-4a8a-a101-45c5504b5bb5" d="M594.57,50.5V49.31h.74V50.5Z" transform="translate(0 -0.05)"/><path class="f91b6123-ad26-4a8a-a101-45c5504b5bb5" d="M597.42,48.83l-.6,1.67h-.73l2-5.57H599l2.07,5.57h-.79l-.62-1.67Zm2-.64c-.53-1.46-.82-2.23-.94-2.66h0c-.13.47-.46,1.41-.89,2.66Z" transform="translate(0 -0.05)"/><path class="f91b6123-ad26-4a8a-a101-45c5504b5bb5" d="M601.88,50.5V49.31h.73V50.5Z" transform="translate(0 -0.05)"/><path class="f91b6123-ad26-4a8a-a101-45c5504b5bb5" d="M605.81,44.93h.74v4.93h2.9l-.1.64h-3.54Z" transform="translate(0 -0.05)"/><path class="f91b6123-ad26-4a8a-a101-45c5504b5bb5" d="M613.69,48.46a1.92,1.92,0,0,1-1.91,2.13,2.13,2.13,0,1,1,1.91-2.13Zm-3.05,0c0,.89.44,1.54,1.17,1.54s1.16-.62,1.16-1.54-.41-1.54-1.17-1.54S610.64,47.54,610.64,48.47Z" transform="translate(0 -0.05)"/><path class="f91b6123-ad26-4a8a-a101-45c5504b5bb5" d="M615,49.34a.93.93,0,0,0,1,.7c.59,0,.83-.26.83-.63s-.19-.55-1-.74c-1.16-.28-1.4-.63-1.4-1.19s.42-1.13,1.46-1.13a1.35,1.35,0,0,1,1.53,1.17h-.68a.8.8,0,0,0-.88-.63c-.57,0-.74.27-.74.54s.17.45.91.63c1.23.29,1.48.7,1.48,1.3S617,50.59,616,50.59a1.46,1.46,0,0,1-1.66-1.25Z" transform="translate(0 -0.05)"/><path class="f91b6123-ad26-4a8a-a101-45c5504b5bb5" d="M621.37,48.83l-.6,1.67H620l2-5.57h.91L625,50.5h-.79l-.62-1.67Zm2-.64c-.53-1.46-.82-2.23-.94-2.66h0c-.13.47-.46,1.41-.89,2.66Z" transform="translate(0 -0.05)"/><path class="f91b6123-ad26-4a8a-a101-45c5504b5bb5" d="M625.77,47.46c0-.35,0-.7,0-1h.68c0,.12,0,.55,0,.67a1.27,1.27,0,0,1,1.28-.76c.76,0,1.35.46,1.35,1.54V50.5h-.7V48c0-.62-.24-1-.86-1s-1.07.58-1.07,1.4V50.5h-.7Z" transform="translate(0 -0.05)"/><path class="f91b6123-ad26-4a8a-a101-45c5504b5bb5" d="M633.64,50.13c0,1.3-.54,2-1.86,2s-1.61-.69-1.68-1.24h.71a.93.93,0,0,0,1,.68c.92,0,1.15-.58,1.15-1.52v-.33a1.24,1.24,0,0,1-1.27.72c-1,0-1.68-.82-1.68-2s.77-2.12,1.75-2.12c.77,0,1.1.36,1.2.63,0-.19,0-.45,0-.54h.66c0,.24,0,.78,0,1.17Zm-2.9-1.69c0,.86.44,1.44,1.1,1.44.88,0,1.13-.59,1.13-1.49s-.24-1.45-1.1-1.45S630.74,47.57,630.74,48.44Z" transform="translate(0 -0.05)"/><path class="f91b6123-ad26-4a8a-a101-45c5504b5bb5" d="M635.26,48.6c0,.82.42,1.41,1.11,1.41a.94.94,0,0,0,1-.63h.7a1.64,1.64,0,0,1-1.7,1.21,1.83,1.83,0,0,1-1.8-2.08c0-1.2.61-2.16,1.84-2.16a1.72,1.72,0,0,1,1.74,1.91c0,.12,0,.23,0,.34Zm2.16-.5c0-.66-.35-1.2-1-1.2s-1,.5-1.1,1.2Z" transform="translate(0 -0.05)"/><path class="f91b6123-ad26-4a8a-a101-45c5504b5bb5" d="M639.05,50.5V44.63h.7V50.5Z" transform="translate(0 -0.05)"/><path class="f91b6123-ad26-4a8a-a101-45c5504b5bb5" d="M641.36,48.6c0,.82.42,1.41,1.11,1.41a.94.94,0,0,0,1-.63h.7a1.63,1.63,0,0,1-1.7,1.21,1.83,1.83,0,0,1-1.8-2.08c0-1.2.61-2.16,1.84-2.16a1.72,1.72,0,0,1,1.74,1.91c0,.12,0,.23,0,.34Zm2.16-.5c0-.66-.34-1.2-1-1.2s-1,.5-1.09,1.2Z" transform="translate(0 -0.05)"/><path class="f91b6123-ad26-4a8a-a101-45c5504b5bb5" d="M645.53,49.34a.93.93,0,0,0,1,.7c.6,0,.83-.26.83-.63s-.18-.55-1-.74c-1.15-.28-1.4-.63-1.4-1.19s.43-1.13,1.47-1.13A1.34,1.34,0,0,1,648,47.52h-.67a.8.8,0,0,0-.88-.63c-.57,0-.74.27-.74.54s.17.45.91.63c1.23.29,1.48.7,1.48,1.3s-.57,1.23-1.58,1.23a1.47,1.47,0,0,1-1.67-1.25Z" transform="translate(0 -0.05)"/><path class="f91b6123-ad26-4a8a-a101-45c5504b5bb5" d="M587.9,66.37h-.56a3.18,3.18,0,0,1-.07-.76,1.86,1.86,0,0,1-1.73.83c-1.61,0-2.46-1.21-2.46-2.8s.92-2.91,2.59-2.91a2.08,2.08,0,0,1,2.27,1.69h-.74a1.44,1.44,0,0,0-1.54-1.08c-1.29,0-1.81,1-1.81,2.27s.52,2.21,1.78,2.21,1.55-.83,1.55-1.77v0h-1.56v-.64h2.28Z" transform="translate(0 -0.05)"/><path class="f91b6123-ad26-4a8a-a101-45c5504b5bb5" d="M592.62,64.33a1.92,1.92,0,0,1-1.91,2.13,1.89,1.89,0,0,1-1.87-2.11,1.92,1.92,0,0,1,1.91-2.13A1.88,1.88,0,0,1,592.62,64.33Zm-3.06,0c0,.89.45,1.54,1.18,1.54s1.15-.62,1.15-1.54-.41-1.54-1.17-1.54S589.56,63.42,589.56,64.34Z" transform="translate(0 -0.05)"/><path class="f91b6123-ad26-4a8a-a101-45c5504b5bb5" d="M597.06,64.33a1.92,1.92,0,0,1-1.91,2.13,1.89,1.89,0,0,1-1.86-2.11,1.92,1.92,0,0,1,1.91-2.13A1.88,1.88,0,0,1,597.06,64.33Zm-3,0c0,.89.45,1.54,1.17,1.54s1.16-.62,1.16-1.54-.41-1.54-1.17-1.54S594,63.42,594,64.34Z" transform="translate(0 -0.05)"/><path class="f91b6123-ad26-4a8a-a101-45c5504b5bb5" d="M601.37,66c0,1.3-.54,2-1.86,2s-1.61-.69-1.68-1.24h.71a.93.93,0,0,0,1,.68c.92,0,1.15-.58,1.15-1.52v-.32a1.25,1.25,0,0,1-1.27.71c-1,0-1.68-.81-1.68-2s.77-2.13,1.75-2.13c.77,0,1.1.36,1.2.63,0-.18,0-.45,0-.54h.66c0,.24,0,.79,0,1.17Zm-2.9-1.68c0,.85.44,1.43,1.1,1.43.88,0,1.14-.58,1.14-1.49s-.25-1.45-1.11-1.45S598.47,63.44,598.47,64.32Z" transform="translate(0 -0.05)"/><path class="f91b6123-ad26-4a8a-a101-45c5504b5bb5" d="M602.56,66.37V60.5h.7v5.87Z" transform="translate(0 -0.05)"/><path class="f91b6123-ad26-4a8a-a101-45c5504b5bb5" d="M604.88,64.47c0,.82.42,1.41,1.11,1.41a.94.94,0,0,0,1-.63h.7A1.64,1.64,0,0,1,606,66.46c-1.27,0-1.79-1-1.79-2.08s.61-2.16,1.84-2.16a1.72,1.72,0,0,1,1.74,1.91c0,.13,0,.23,0,.34ZM607,64c0-.67-.35-1.21-1-1.21s-1,.5-1.1,1.21Z" transform="translate(0 -0.05)"/><path class="f91b6123-ad26-4a8a-a101-45c5504b5bb5" d="M536.13,44.82h.74v4.93h2.9l-.1.63h-3.54Z" transform="translate(0 -0.05)"/><path class="f91b6123-ad26-4a8a-a101-45c5504b5bb5" d="M544,48.34a1.93,1.93,0,0,1-1.91,2.14,1.89,1.89,0,0,1-1.86-2.12,1.92,1.92,0,0,1,1.91-2.13A1.88,1.88,0,0,1,544,48.34Zm-3,0c0,.89.44,1.54,1.17,1.54s1.16-.62,1.16-1.54-.41-1.54-1.17-1.54S541,47.43,541,48.35Z" transform="translate(0 -0.05)"/><path class="f91b6123-ad26-4a8a-a101-45c5504b5bb5" d="M548.17,49.14a1.61,1.61,0,0,1-1.67,1.34c-1.12,0-1.81-.81-1.81-2.11a1.92,1.92,0,0,1,1.86-2.14,1.5,1.5,0,0,1,1.62,1.35h-.69a.91.91,0,0,0-.94-.77c-.72,0-1.13.62-1.13,1.54s.4,1.54,1.1,1.54a1,1,0,0,0,1-.75Z" transform="translate(0 -0.05)"/><path class="f91b6123-ad26-4a8a-a101-45c5504b5bb5" d="M552.07,49.5a7.4,7.4,0,0,0,0,.88h-.67a2.39,2.39,0,0,1-.06-.53,1.28,1.28,0,0,1-1.26.63,1.23,1.23,0,0,1-1.36-1.24c0-.91.71-1.32,1.92-1.32h.69v-.35c0-.36-.12-.79-.87-.79s-.8.33-.87.65H549c.06-.56.4-1.2,1.57-1.2,1,0,1.54.41,1.54,1.33Zm-.69-1.1h-.65c-.81,0-1.24.23-1.24.8a.72.72,0,0,0,.79.73c1,0,1.1-.66,1.1-1.4Z" transform="translate(0 -0.05)"/><path class="f91b6123-ad26-4a8a-a101-45c5504b5bb5" d="M552.7,46.33h.7v-1.2h.7v1.2h.9v.57h-.9v2.37c0,.4.1.6.47.6a1.5,1.5,0,0,0,.35,0v.53a2,2,0,0,1-.61.08c-.63,0-.91-.33-.91-1V46.9h-.7Z" transform="translate(0 -0.05)"/><path class="f91b6123-ad26-4a8a-a101-45c5504b5bb5" d="M555.74,44.51h.7v.87h-.7Zm0,1.82h.7v4.05h-.7Z" transform="translate(0 -0.05)"/><path class="f91b6123-ad26-4a8a-a101-45c5504b5bb5" d="M561.12,48.34a1.93,1.93,0,0,1-1.91,2.14,1.89,1.89,0,0,1-1.86-2.12,1.92,1.92,0,0,1,1.91-2.13A1.88,1.88,0,0,1,561.12,48.34Zm-3,0c0,.89.45,1.54,1.17,1.54s1.16-.62,1.16-1.54-.41-1.54-1.17-1.54S558.07,47.43,558.07,48.35Z" transform="translate(0 -0.05)"/><path class="f91b6123-ad26-4a8a-a101-45c5504b5bb5" d="M562,47.35c0-.36,0-.71,0-1h.68c0,.11,0,.54,0,.66a1.27,1.27,0,0,1,1.28-.76c.76,0,1.35.46,1.35,1.54v2.61h-.7V47.86c0-.61-.24-1-.86-1s-1.07.58-1.07,1.39v2.15H562Z" transform="translate(0 -0.05)"/><path class="f91b6123-ad26-4a8a-a101-45c5504b5bb5" d="M566.66,47.49V46.34h.71v1.15Zm0,2.89V49.22h.71v1.16Z" transform="translate(0 -0.05)"/><path class="f91b6123-ad26-4a8a-a101-45c5504b5bb5" d="M537.07,66.1l-1.49-5.57h.78c.43,1.83,1,4.13,1.14,4.76h0c.15-.71.91-3.34,1.28-4.76h.71c.34,1.25,1.1,4.07,1.22,4.74h0c.18-1,1-3.59,1.26-4.74h.73l-1.62,5.57h-.79c-.34-1.28-1.06-3.93-1.19-4.6h0c-.17.83-.88,3.32-1.24,4.6Z" transform="translate(0 -0.05)"/><path class="f91b6123-ad26-4a8a-a101-45c5504b5bb5" d="M546.62,64.06a1.92,1.92,0,0,1-1.91,2.13,1.89,1.89,0,0,1-1.86-2.11A1.92,1.92,0,0,1,544.76,62,1.88,1.88,0,0,1,546.62,64.06Zm-3,0c0,.89.44,1.54,1.17,1.54s1.16-.62,1.16-1.54-.42-1.54-1.18-1.54S543.57,63.15,543.57,64.07Z" transform="translate(0 -0.05)"/><path class="f91b6123-ad26-4a8a-a101-45c5504b5bb5" d="M547.54,63.15c0-.57,0-.89,0-1.11h.68c0,.12,0,.44,0,.83A1.44,1.44,0,0,1,549.6,62v.7a1.29,1.29,0,0,0-1.37,1.48v2h-.69Z" transform="translate(0 -0.05)"/><path class="f91b6123-ad26-4a8a-a101-45c5504b5bb5" d="M551,64c.35-.4,1.24-1.34,1.79-1.94h.83l-1.53,1.58,1.7,2.48H553l-1.37-2-.61.59V66.1h-.7V60.23h.7Z" transform="translate(0 -0.05)"/><path class="f91b6123-ad26-4a8a-a101-45c5504b5bb5" d="M554.82,64.94a.92.92,0,0,0,1,.7c.6,0,.83-.26.83-.62s-.18-.56-1-.75c-1.16-.28-1.4-.63-1.4-1.18S554.7,62,555.75,62a1.34,1.34,0,0,1,1.52,1.17h-.67a.8.8,0,0,0-.88-.63c-.57,0-.74.27-.74.54s.17.45.91.63c1.23.29,1.47.7,1.47,1.3s-.56,1.23-1.57,1.23a1.47,1.47,0,0,1-1.67-1.25Z" transform="translate(0 -0.05)"/><path class="f91b6123-ad26-4a8a-a101-45c5504b5bb5" d="M563.31,65.21a7.46,7.46,0,0,0,.05.89h-.67a2.48,2.48,0,0,1-.06-.53,1.27,1.27,0,0,1-1.25.62A1.23,1.23,0,0,1,560,65c0-.9.71-1.31,1.92-1.31h.69v-.35c0-.36-.12-.79-.87-.79s-.8.33-.87.65h-.68c.06-.56.4-1.21,1.57-1.2,1,0,1.54.4,1.54,1.33Zm-.69-1.09H562c-.81,0-1.24.22-1.24.8a.71.71,0,0,0,.79.72c1,0,1.1-.65,1.1-1.39Z" transform="translate(0 -0.05)"/><path class="f91b6123-ad26-4a8a-a101-45c5504b5bb5" d="M563.94,62h.7V60.85h.7V62h.9v.57h-.9V65c0,.39.1.6.47.6a1.5,1.5,0,0,0,.35,0v.53a2,2,0,0,1-.61.07c-.63,0-.91-.32-.91-1V62.61h-.7Z" transform="translate(0 -0.05)"/><path class="f91b6123-ad26-4a8a-a101-45c5504b5bb5" d="M567.31,63.21V62.06H568v1.15Zm0,2.89V64.94H568V66.1Z" transform="translate(0 -0.05)"/><path class="f91b6123-ad26-4a8a-a101-45c5504b5bb5" d="M566.77,14.24c0,1.53-.81,2.92-2.54,2.92s-2.5-1.27-2.5-2.88a2.58,2.58,0,0,1,2.55-2.88A2.55,2.55,0,0,1,566.77,14.24Zm-4.57,0a2.23,2.23,0,0,0,2,2.5c1.45,0,2.06-1.18,2.06-2.51s-.69-2.45-2-2.45S562.2,13,562.2,14.26Z" transform="translate(0 -0.05)"/><path class="f91b6123-ad26-4a8a-a101-45c5504b5bb5" d="M567.88,14.09c0-.35,0-.69,0-1h.39a6.54,6.54,0,0,1,0,.76A1.29,1.29,0,0,1,569.6,13c.72,0,1.35.4,1.35,1.5v2.59h-.4V14.55c0-.71-.3-1.17-1-1.17-1,0-1.28.79-1.28,1.66v2h-.4Z" transform="translate(0 -0.05)"/><path class="f91b6123-ad26-4a8a-a101-45c5504b5bb5" d="M572.26,17.08V11.19h.4v5.89Z" transform="translate(0 -0.05)"/><path class="f91b6123-ad26-4a8a-a101-45c5504b5bb5" d="M574,11.19h.4V12H574Zm0,1.89h.4v4H574Z" transform="translate(0 -0.05)"/><path class="f91b6123-ad26-4a8a-a101-45c5504b5bb5" d="M575.69,14.09c0-.35,0-.69,0-1h.39c0,.13,0,.65,0,.76a1.31,1.31,0,0,1,1.33-.85c.71,0,1.35.4,1.35,1.5v2.59h-.4V14.55c0-.71-.3-1.17-1-1.17-1,0-1.28.79-1.28,1.66v2h-.39Z" transform="translate(0 -0.05)"/><path class="f91b6123-ad26-4a8a-a101-45c5504b5bb5" d="M580.16,15.13c0,1,.52,1.67,1.29,1.67a1.12,1.12,0,0,0,1.15-.75H583a1.53,1.53,0,0,1-1.57,1.13c-1.22,0-1.69-1.05-1.69-2.07s.57-2.12,1.73-2.12a1.65,1.65,0,0,1,1.63,1.81c0,.11,0,.23,0,.33Zm2.53-.35c0-.79-.44-1.42-1.22-1.42s-1.2.58-1.29,1.42Z" transform="translate(0 -0.05)"/></g><g id="afcd188b-0dc0-46e6-a3c9-f3e757f0dcec" data-name="Слой 6"><path id="bacf7a41-3da6-44f0-85c7-b42c40cb43a4" data-name="Expand More" class="bb83cf97-f05d-48fc-9f66-a067e3f6db7b" d="M665.75,386.49l2.61,3.1-2.68,3a.42.42,0,0,0,0,.53.28.28,0,0,0,.45,0l2.91-3.3h0a.42.42,0,0,0,0-.53L666.21,386a.29.29,0,0,0-.45,0A.42.42,0,0,0,665.75,386.49Z" transform="translate(0 -0.05)"/></g></g></svg>