<svg xmlns="http://www.w3.org/2000/svg" viewBox="0 0 17.89 17.63">
  <defs>
    <style>
      .a509d3ba-84de-48da-94c3-2013bb3aeaad {
        fill: #fff;
      }
    </style>
  </defs>
  <title>skype</title>
  <g id="b9b0bc28-aa02-4f03-b854-2b862001e111" data-name="Слой 2">
    <g id="acc8f4fa-25db-4d02-8805-24fef5f8386a" data-name="Слой 6">
      <path class="a509d3ba-84de-48da-94c3-2013bb3aeaad" d="M17,10.54a8.67,8.67,0,0,0,.18-1.72,7.8,7.8,0,0,0-.64-3.14,8.22,8.22,0,0,0-1.75-2.59,8.34,8.34,0,0,0-2.62-1.72A8.22,8.22,0,0,0,8.94.73,8.9,8.9,0,0,0,7.2.92,4.59,4.59,0,0,0,3.47.09,3.79,3.79,0,0,0,1.91.78,4.36,4.36,0,0,0,0,4.41,4.24,4.24,0,0,0,.93,7.09,8.69,8.69,0,0,0,.75,8.82,7.87,7.87,0,0,0,1.39,12a8.12,8.12,0,0,0,1.75,2.58,8.34,8.34,0,0,0,2.62,1.72,8.2,8.2,0,0,0,4.93.45,4.55,4.55,0,0,0,3.73.83A3.91,3.91,0,0,0,16,16.85a4.36,4.36,0,0,0,1.91-3.63A4.24,4.24,0,0,0,17,10.54Zm-3.68,1.7a3,3,0,0,1-1,1.08,5.56,5.56,0,0,1-1.43.61,6.22,6.22,0,0,1-1.63.21,7.19,7.19,0,0,1-3.39-.75c-1-.5-1.42-1.1-1.42-1.81a1.27,1.27,0,0,1,.3-.86,1.08,1.08,0,0,1,.88-.34,1.15,1.15,0,0,1,.62.18,2.54,2.54,0,0,1,.54.44c.16.17.34.35.53.52A2.38,2.38,0,0,0,8,12a3,3,0,0,0,1.06.18,2.24,2.24,0,0,0,1.23-.29.85.85,0,0,0,.46-.74.77.77,0,0,0-.37-.69A6.32,6.32,0,0,0,9.08,10L7.38,9.6a8.13,8.13,0,0,1-1.2-.38,4,4,0,0,1-.93-.55A2.27,2.27,0,0,1,4.6,7.8a3.09,3.09,0,0,1-.22-1.22A2.8,2.8,0,0,1,4.77,5.1a2.85,2.85,0,0,1,1-1A5.43,5.43,0,0,1,7.2,3.56a7.06,7.06,0,0,1,1.54-.17,8,8,0,0,1,2.11.26,4.49,4.49,0,0,1,1.66.78,1.46,1.46,0,0,1,.65,1.14,1.27,1.27,0,0,1-.33.88,1.12,1.12,0,0,1-.88.37,1.19,1.19,0,0,1-.56-.14,2.21,2.21,0,0,1-.47-.33c-.14-.13-.28-.26-.44-.39a2,2,0,0,0-.63-.32A2.48,2.48,0,0,0,9,5.5c-1.12,0-1.68.29-1.68.88a.68.68,0,0,0,.09.35A.78.78,0,0,0,7.56,7a1.11,1.11,0,0,0,.35.18,2.65,2.65,0,0,0,.41.13l.51.12L10,7.68c.38.08.72.17,1,.26a8.82,8.82,0,0,1,1,.39,3.7,3.7,0,0,1,.85.57,2.44,2.44,0,0,1,.56.78,2.31,2.31,0,0,1,.23,1.05A3.05,3.05,0,0,1,13.28,12.24Z"/>
    </g>
  </g>
</svg>
