<svg xmlns="http://www.w3.org/2000/svg" viewBox="0 0 5.3 6.38"><defs><style>.b4225150-c2d5-4f90-8002-ab5325add3c0{fill:#1ff3b6;}</style></defs><title>styled-up-arrow</title><g id="a1f69554-012b-4327-8bec-fb04634361af" data-name="Слой 2"><g id="ec725acf-e674-4f94-beb1-cd9e11021886" data-name="Слой 6"><path class="b4225150-c2d5-4f90-8002-ab5325add3c0" d="M5.2,2.4,2.9.1A.37.37,0,0,0,2.65,0,.39.39,0,0,0,2.4.1L.1,2.4a.37.37,0,0,0,0,.5l.21.21a.37.37,0,0,0,.25.1.39.39,0,0,0,.25-.1L2.15,1.76V6a.35.35,0,0,0,.35.35h.29A.36.36,0,0,0,3.15,6V1.75L4.5,3.11a.39.39,0,0,0,.25.1A.35.35,0,0,0,5,3.11L5.2,2.9A.35.35,0,0,0,5.2,2.4Z"/></g></g></svg>