<svg xmlns="http://www.w3.org/2000/svg" viewBox="0 0 11.6 11.6"><defs><style>.cls-1{fill:#fff;}</style></defs><title>team-list-icon</title><g id="Слой_2" data-name="Слой 2"><g id="Слой_5" data-name="Слой 5"><path class="cls-1" d="M10.3,6.86l-.06,0a.82.82,0,0,0-1-.24h0l-.14.07A1.07,1.07,0,0,0,7.9,6.61L7.14,7h-1a1.52,1.52,0,0,1-.63-.14l-.14-.07a2.37,2.37,0,0,0-2.47.24h0l-.34.3a1,1,0,0,1-.44.24L1.91,7a.15.15,0,0,0-.14-.11H.15A.15.15,0,0,0,0,7V7l.54,4.43a.15.15,0,0,0,.15.13H3.12a.15.15,0,0,0,.15-.15s0,0,0,0l-.32-1.05,1-.63a.64.64,0,0,1,.43-.06h0l2,.37A2.59,2.59,0,0,0,8,9.82H8l3.49-2.4a.15.15,0,0,0,.05-.2A1,1,0,0,0,10.3,6.86Zm-.9,0A.51.51,0,0,1,10,7l-1.32.71-.08,0a1.19,1.19,0,0,0-.18-.33ZM8,6.88h0a.78.78,0,0,1,.78,0l-.68.36a1.11,1.11,0,0,0-.43-.19ZM.82,11.3.32,7.18H1.66L2.92,11.3ZM7.88,9.55a2.25,2.25,0,0,1-1.42.2l-2-.37a.92.92,0,0,0-.65.09h0l-.93.59L2.19,7.89a1.41,1.41,0,0,0,.55-.3l.33-.3a2.08,2.08,0,0,1,2.16-.21l.14.07a1.7,1.7,0,0,0,.76.18H7.48A.85.85,0,0,1,8.31,8l-1,0A6.32,6.32,0,0,0,6.27,8a.15.15,0,0,0-.12.17.15.15,0,0,0,.17.13,5.59,5.59,0,0,1,1-.05l1.15.06h0a.16.16,0,0,0,.16-.16s0,0,0-.07L8.78,8l1.66-.9a.65.65,0,0,1,.79.13Z" transform="translate(0 0)"/><path class="cls-1" d="M1.3,10.68a.48.48,0,0,0,.48.47.48.48,0,0,0,0-1A.48.48,0,0,0,1.3,10.68Zm.48-.18a.18.18,0,0,1,.17.18.18.18,0,0,1-.17.17.18.18,0,0,1-.18-.17.18.18,0,0,1,.18-.18Z" transform="translate(0 0)"/><path class="cls-1" d="M7,1.64v-.5A1.15,1.15,0,0,0,5.8,0,1.14,1.14,0,0,0,4.66,1.14v.5A1.13,1.13,0,0,0,5.81,2.77,1.15,1.15,0,0,0,7,1.64Zm-2,0v-.5a.84.84,0,1,1,1.68,0v.5A.84.84,0,0,1,5,1.64Z" transform="translate(0 0)"/><path class="cls-1" d="M4,5.88H7.65a.15.15,0,0,0,.15-.15h0V5.39h2.52a.15.15,0,0,0,.15-.15v-1A1.13,1.13,0,0,0,9.41,3.13a.18.18,0,0,0-.15.09.68.68,0,0,1-1,.09.34.34,0,0,1-.12-.12A.16.16,0,0,0,8,3.13a1.1,1.1,0,0,0-.55.16,1.26,1.26,0,0,0-.89-.44.21.21,0,0,0-.15.09.81.81,0,0,1-1.14.12.66.66,0,0,1-.14-.15A.16.16,0,0,0,5,2.85a1.29,1.29,0,0,0-.87.38l-.06.06a1.13,1.13,0,0,0-.51-.16.22.22,0,0,0-.16.09.71.71,0,0,1-1.09,0,.14.14,0,0,0-.12-.06,1.13,1.13,0,0,0-1.1,1.13v1a.15.15,0,0,0,.15.15H3.81v.34A.14.14,0,0,0,4,5.88ZM8,3.44a1,1,0,0,0,1.4.08l.09-.08a.83.83,0,0,1,.7.82v.83H7.8v-1a1.3,1.3,0,0,0-.14-.58A.75.75,0,0,1,8,3.44ZM5,3.16a1.12,1.12,0,0,0,1.57.11.57.57,0,0,0,.11-.11,1,1,0,0,1,.84,1V5.58H4.11V4.12A1,1,0,0,1,5,3.16ZM1.43,5.09V4.26a.83.83,0,0,1,.73-.82,1,1,0,0,0,1.41.08.6.6,0,0,0,.08-.08.77.77,0,0,1,.29.1,1.29,1.29,0,0,0-.13.58v1Z" transform="translate(0 0)"/><path class="cls-1" d="M9.73,2.08V1.65a1,1,0,1,0-2,0v.43a1,1,0,1,0,2,0ZM8,2.08V1.65a.72.72,0,0,1,1.44,0h0v.43A.72.72,0,0,1,8,2.08Z" transform="translate(0 0)"/><path class="cls-1" d="M3.91,2.08V1.65a1,1,0,0,0-2,0v.43a1,1,0,0,0,2,0Zm-1.74,0V1.65a.72.72,0,1,1,1.44,0h0v.43a.72.72,0,0,1-1.44,0Z" transform="translate(0 0)"/></g></g></svg>