<svg xmlns="http://www.w3.org/2000/svg" viewBox="0 0 17.89 17.63">
  <defs>
    <style>
      .ada94338-68ed-40ac-b9b8-35293fb341be {
        fill: #fff;
      }
    </style>
  </defs>
  <title>tweeter</title>
  <g id="b497a8fc-d3e6-4fb3-81a8-2fec7d751a0a" data-name="Слой 2">
    <g id="a78f9ef4-d3a1-4482-a6f2-8fbab690918f" data-name="Слой 6">
      <path class="ada94338-68ed-40ac-b9b8-35293fb341be" d="M11.9.47A8.93,8.93,0,0,0,.48,11.73,8.55,8.55,0,0,0,6,17.16,8.93,8.93,0,0,0,17.41,5.9,8.55,8.55,0,0,0,11.9.47Zm1,6.33v.26a5.77,5.77,0,0,1-5.86,5.77,5.83,5.83,0,0,1-3.15-.91,3.91,3.91,0,0,0,.49,0A4.17,4.17,0,0,0,7,11.08,2,2,0,0,1,5.05,9.67a1.72,1.72,0,0,0,.39,0A1.9,1.9,0,0,0,6,9.64a2,2,0,0,1-1.65-2v0a2,2,0,0,0,.93.26,2,2,0,0,1-.91-1.69,2,2,0,0,1,.28-1A5.87,5.87,0,0,0,8.87,7.29a2.14,2.14,0,0,1,0-.84A1.92,1.92,0,0,1,10,5a2.1,2.1,0,0,1,2.39.46A4.22,4.22,0,0,0,13.69,5a2.1,2.1,0,0,1-.91,1.12A4.2,4.2,0,0,0,14,5.75,4.07,4.07,0,0,1,12.94,6.8Z"/>
    </g>
  </g>
</svg>
