<svg xmlns="http://www.w3.org/2000/svg" viewBox="0 0 17.89 17.63">
  <defs>
    <style>
      .b15e3bdb-455f-45da-8ad9-fa71c380da48 {
        fill: #fff;
      }
    </style>
  </defs>
  <title>vk</title>
  <g id="ec5ddc8b-b2ff-4279-8b3a-d45d11912f3f" data-name="Слой 2">
    <g id="f87e0abb-a8eb-43d1-aae1-4fa9c84e00a9" data-name="Слой 6">
      <path class="b15e3bdb-455f-45da-8ad9-fa71c380da48" d="M11.89.46A8.93,8.93,0,0,0,.47,11.72,8.56,8.56,0,0,0,6,17.17,8.93,8.93,0,0,0,17.42,5.91,8.56,8.56,0,0,0,11.89.46Zm1.7,9.41a11.24,11.24,0,0,1,1.19,1.2,3.58,3.58,0,0,1,.38.55.45.45,0,0,1-.28.7H13a1.4,1.4,0,0,1-1.16-.47c-.26-.26-.49-.53-.74-.79a1.53,1.53,0,0,0-.33-.29.39.39,0,0,0-.61.15,2.29,2.29,0,0,0-.2,1,.38.38,0,0,1-.36.38,4.8,4.8,0,0,1-2.84-.54A5.71,5.71,0,0,1,5,10.13,21.85,21.85,0,0,1,2.6,5.78a.14.14,0,0,1,.14-.22c.74,0,1.48,0,2.22,0a.35.35,0,0,1,.31.22A10.86,10.86,0,0,0,6.55,8.14a1.82,1.82,0,0,0,.46.5.28.28,0,0,0,.47-.14A1.89,1.89,0,0,0,7.59,8a7.41,7.41,0,0,0,0-1.63A.68.68,0,0,0,7,5.78c-.18,0-.15-.1-.07-.2a.67.67,0,0,1,.57-.27H9.54c.32.06.4.2.44.53V8.11c0,.12.07.49.29.58s.31-.09.42-.2a7.45,7.45,0,0,0,1.17-1.77c.13-.28.26-.57.37-.86a.47.47,0,0,1,.47-.32h2.17c.34.05.43.2.33.52a5,5,0,0,1-.8,1.35c-.33.46-.69.89-1,1.35S13.11,9.44,13.59,9.87Z"/>
    </g>
  </g>
</svg>
