<svg xmlns="http://www.w3.org/2000/svg" viewBox="0 0 8.32 7.31">
  <defs>
    <style>
      .a5ca83f3-92f5-4e31-b758-56bbbedad66e {
        fill: #fff;
      }

      .bd56cc9a-5034-4664-8ae4-fa8449ebf143 {
        fill: #161c1e;
      }
    </style>
  </defs>
  <title>works-at</title>
  <g id="fa744702-c100-49a7-b5c8-f61aaf0719c1" data-name="Слой 2">
    <g id="ee2305ff-c9a3-4454-b01d-acb03976f5f4" data-name="Слой 5">
      <g>
        <path class="a5ca83f3-92f5-4e31-b758-56bbbedad66e" d="M5.87.73v.49a.24.24,0,0,1-.25.24H5.38V.73A.24.24,0,0,0,5.14.49H3.19a.24.24,0,0,0-.25.24v.73H2.7a.24.24,0,0,1-.25-.24V.73A.74.74,0,0,1,3.19,0H5.14A.73.73,0,0,1,5.87.73Z"/>
        <path class="a5ca83f3-92f5-4e31-b758-56bbbedad66e" d="M8.32,1.22V6.58a.73.73,0,0,1-.73.73H.73A.73.73,0,0,1,0,6.58V1.22a.24.24,0,0,1,.07-.17l1.25,2.8H7l1.25-2.8A.24.24,0,0,1,8.32,1.22Z"/>
        <path class="a5ca83f3-92f5-4e31-b758-56bbbedad66e" d="M8.25,1.05l-.76,2.8a.73.73,0,0,1-.7.54H1.54a.73.73,0,0,1-.71-.54L.07,1.05A.23.23,0,0,1,.24,1H8.08A.22.22,0,0,1,8.25,1.05Z"/>
        <path class="bd56cc9a-5034-4664-8ae4-fa8449ebf143" d="M4.81,3.66H3.51a.16.16,0,0,0-.16.16v.65a.16.16,0,0,0,.16.16h1.3A.16.16,0,0,0,5,4.47V3.82A.16.16,0,0,0,4.81,3.66Z"/>
      </g>
    </g>
  </g>
</svg>
