<svg xmlns="http://www.w3.org/2000/svg" xmlns:xlink="http://www.w3.org/1999/xlink" viewBox="0 0 483.75 446.16"><defs><style>.cls-1{fill:none;}.cls-2{fill:url(#Безымянный_градиент);}.cls-3{clip-path:url(#clip-path);}.cls-4{fill:#031318;}.cls-5{fill:#031217;}.cls-6{fill:#031116;}.cls-7{fill:#031115;}.cls-8{fill:#031015;}.cls-9{fill:#031014;}.cls-10{fill:#030f13;}.cls-11{clip-path:url(#clip-path-2);}.cls-12{clip-path:url(#clip-path-3);}.cls-13{clip-path:url(#clip-path-4);}.cls-14,.cls-140{fill:#1a8da8;}.cls-141,.cls-15{fill:#1a88a3;}.cls-148,.cls-16{fill:#19849e;}.cls-17{clip-path:url(#clip-path-5);}.cls-143,.cls-18{fill:#156f85;}.cls-144,.cls-19{fill:#16738a;}.cls-145,.cls-20{fill:#16778f;}.cls-146,.cls-21{fill:#177c94;}.cls-147,.cls-22{fill:#188099;}.cls-149,.cls-23{fill:#23bade;}.cls-24{fill:#04141a;}.cls-25{clip-path:url(#clip-path-6);}.cls-26{fill:#146c81;}.cls-27{clip-path:url(#clip-path-7);}.cls-28{fill:#1c96b4;}.cls-29{clip-path:url(#clip-path-8);}.cls-30{clip-path:url(#clip-path-9);}.cls-31{clip-path:url(#clip-path-10);}.cls-32{clip-path:url(#clip-path-11);}.cls-33{clip-path:url(#clip-path-12);}.cls-34{clip-path:url(#clip-path-13);}.cls-35{clip-path:url(#clip-path-14);}.cls-36{clip-path:url(#clip-path-15);}.cls-37{clip-path:url(#clip-path-16);}.cls-38{clip-path:url(#clip-path-17);}.cls-39{clip-path:url(#clip-path-18);}.cls-40{clip-path:url(#clip-path-19);}.cls-41{clip-path:url(#clip-path-20);}.cls-42{clip-path:url(#clip-path-21);}.cls-43{clip-path:url(#clip-path-22);}.cls-44{clip-path:url(#clip-path-23);}.cls-45{clip-path:url(#clip-path-24);}.cls-46{clip-path:url(#clip-path-25);}.cls-47{clip-path:url(#clip-path-26);}.cls-48{clip-path:url(#clip-path-27);}.cls-49{clip-path:url(#clip-path-28);}.cls-50{clip-path:url(#clip-path-29);}.cls-51{clip-path:url(#clip-path-30);}.cls-52{clip-path:url(#clip-path-31);}.cls-53{clip-path:url(#clip-path-32);}.cls-54{clip-path:url(#clip-path-33);}.cls-55{clip-path:url(#clip-path-34);}.cls-56{clip-path:url(#clip-path-35);}.cls-57{clip-path:url(#clip-path-36);}.cls-58{fill:#146b80;}.cls-59{clip-path:url(#clip-path-37);}.cls-60{clip-path:url(#clip-path-38);}.cls-61{clip-path:url(#clip-path-39);}.cls-62{clip-path:url(#clip-path-40);}.cls-63{clip-path:url(#clip-path-41);}.cls-64{clip-path:url(#clip-path-42);}.cls-65{clip-path:url(#clip-path-43);}.cls-66{clip-path:url(#clip-path-44);}.cls-67{clip-path:url(#clip-path-45);}.cls-68{clip-path:url(#clip-path-46);}.cls-69{clip-path:url(#clip-path-47);}.cls-70{clip-path:url(#clip-path-48);}.cls-71{clip-path:url(#clip-path-49);}.cls-72{clip-path:url(#clip-path-50);}.cls-73{clip-path:url(#clip-path-51);}.cls-74{clip-path:url(#clip-path-52);}.cls-75{clip-path:url(#clip-path-53);}.cls-76{clip-path:url(#clip-path-54);}.cls-77{clip-path:url(#clip-path-55);}.cls-78{clip-path:url(#clip-path-56);}.cls-79{clip-path:url(#clip-path-57);}.cls-80{clip-path:url(#clip-path-58);}.cls-81{clip-path:url(#clip-path-59);}.cls-82{fill:#041920;}.cls-83{clip-path:url(#clip-path-60);}.cls-84{clip-path:url(#clip-path-61);}.cls-85{clip-path:url(#clip-path-62);}.cls-86{clip-path:url(#clip-path-63);}.cls-87{clip-path:url(#clip-path-64);}.cls-88{clip-path:url(#clip-path-65);}.cls-89{clip-path:url(#clip-path-66);}.cls-90{clip-path:url(#clip-path-67);}.cls-91{clip-path:url(#clip-path-68);}.cls-92{clip-path:url(#clip-path-69);}.cls-93{clip-path:url(#clip-path-70);}.cls-94{clip-path:url(#clip-path-71);}.cls-95{clip-path:url(#clip-path-72);}.cls-96{clip-path:url(#clip-path-73);}.cls-97{clip-path:url(#clip-path-74);}.cls-98{clip-path:url(#clip-path-75);}.cls-99{clip-path:url(#clip-path-76);}.cls-100{clip-path:url(#clip-path-77);}.cls-101{clip-path:url(#clip-path-78);}.cls-102{clip-path:url(#clip-path-79);}.cls-103{clip-path:url(#clip-path-80);}.cls-104{clip-path:url(#clip-path-81);}.cls-105{clip-path:url(#clip-path-82);}.cls-106{clip-path:url(#clip-path-83);}.cls-107{clip-path:url(#clip-path-84);}.cls-108{clip-path:url(#clip-path-85);}.cls-109{clip-path:url(#clip-path-86);}.cls-110{clip-path:url(#clip-path-87);}.cls-111{clip-path:url(#clip-path-88);}.cls-112{clip-path:url(#clip-path-89);}.cls-113{clip-path:url(#clip-path-90);}.cls-114{clip-path:url(#clip-path-91);}.cls-115{clip-path:url(#clip-path-92);}.cls-116{clip-path:url(#clip-path-93);}.cls-117{clip-path:url(#clip-path-94);}.cls-118{clip-path:url(#clip-path-95);}.cls-119{clip-path:url(#clip-path-96);}.cls-120{clip-path:url(#clip-path-97);}.cls-121{clip-path:url(#clip-path-98);}.cls-122{clip-path:url(#clip-path-99);}.cls-123{clip-path:url(#clip-path-100);}.cls-124{clip-path:url(#clip-path-101);}.cls-125{clip-path:url(#clip-path-102);}.cls-126{clip-path:url(#clip-path-103);}.cls-127{clip-path:url(#clip-path-104);}.cls-128{clip-path:url(#clip-path-105);}.cls-129{clip-path:url(#clip-path-106);}.cls-130{clip-path:url(#clip-path-107);}.cls-131{clip-path:url(#clip-path-108);}.cls-132{clip-path:url(#clip-path-109);}.cls-133{clip-path:url(#clip-path-110);}.cls-134{clip-path:url(#clip-path-111);}.cls-135{clip-path:url(#clip-path-112);}.cls-136{clip-path:url(#clip-path-113);}.cls-137{fill:#061e26;}.cls-138{clip-path:url(#clip-path-114);}.cls-139{clip-path:url(#clip-path-115);}.cls-140{stroke:#1a8da8;}.cls-140,.cls-141,.cls-143,.cls-144,.cls-145,.cls-146,.cls-147,.cls-148,.cls-149{stroke-miterlimit:10;}.cls-141{stroke:#1a88a3;}.cls-142{clip-path:url(#clip-path-116);}.cls-143{stroke:#156f85;}.cls-144{stroke:#16738a;}.cls-145{stroke:#16778f;}.cls-146{stroke:#177c94;}.cls-147{stroke:#188099;}.cls-148{stroke:#19849e;}.cls-149{stroke:#23bade;}</style><radialGradient id="Безымянный_градиент" cx="240.24" cy="-571.06" fx="258.3180089888341" r="177.26" gradientTransform="matrix(1, -0.01, 0, -0.2, 0.49, 273.82)" gradientUnits="userSpaceOnUse"><stop offset="0.05" stop-color="#23bade" stop-opacity="0.3"/><stop offset="0.26" stop-color="#22accc" stop-opacity="0.27"/><stop offset="0.53" stop-color="#218497" stop-opacity="0.2"/><stop offset="0.83" stop-color="#1f4240" stop-opacity="0.08"/><stop offset="1" stop-color="#1d1303" stop-opacity="0"/></radialGradient><clipPath id="clip-path"><path class="cls-1" d="M284.56,226.84a3.38,3.38,0,0,0,2.79-3.34L311,237.07a3.4,3.4,0,0,1-2.8,3.35Z"/></clipPath><clipPath id="clip-path-2"><path class="cls-1" d="M287.35,223.47a2.56,2.56,0,0,0-1.24-2.39l23.68,13.58a2.65,2.65,0,0,1,1.25,2.39Z"/></clipPath><clipPath id="clip-path-3"><path class="cls-1" d="M284.56,226.84a12.88,12.88,0,0,1,2.77,1.58l2.91,1.7,6.15,3.51,6.14,3.54,5.71,3.25a2.26,2.26,0,0,1-1.55-.29L283,226.56A2.35,2.35,0,0,0,284.56,226.84Z"/></clipPath><clipPath id="clip-path-4"><path class="cls-1" d="M286.18,221.16l23.68,13.57a2.39,2.39,0,0,0-1.55-.29l-23.75-13.52A2.34,2.34,0,0,1,286.18,221.16Z"/></clipPath><clipPath id="clip-path-5"><path class="cls-1" d="M306.69,240,283,226.46a2.57,2.57,0,0,1-1.24-2.39,3.42,3.42,0,0,1,2.8-3.37l23.68,13.6a3.42,3.42,0,0,0-2.82,3.37A2.56,2.56,0,0,0,306.69,240Z"/></clipPath><clipPath id="clip-path-6"><path class="cls-1" d="M286,213.34a1.29,1.29,0,0,0-.62-1.24L309,225.67a1.36,1.36,0,0,1,.65,1.27Z"/></clipPath><clipPath id="clip-path-7"><path class="cls-1" d="M285.35,212.1,309,225.67a1.1,1.1,0,0,0-.69-.14l-23.68-13.6A1.22,1.22,0,0,1,285.35,212.1Z"/></clipPath><clipPath id="clip-path-8"><path class="cls-1" d="M296.86,244.07,285,237.26Z"/></clipPath><clipPath id="clip-path-9"><path class="cls-1" d="M287.88,204.19a7.35,7.35,0,0,0,1-.43l23.69,13.6-1,.4Z"/></clipPath><clipPath id="clip-path-10"><path class="cls-1" d="M273.2,230.48l23.66,13.59a3.43,3.43,0,0,1-2.79,3.37l-23.69-13.59A3.41,3.41,0,0,0,273.2,230.48Z"/></clipPath><clipPath id="clip-path-11"><path class="cls-1" d="M233,307.86a4.94,4.94,0,0,1,1.34.76c1,.62,10.68,6.24,22.32,12.81-2,.27-3.9.48-5.83.65l-23.68-13.6C229,308.31,231,308.1,233,307.86Z"/></clipPath><clipPath id="clip-path-12"><path class="cls-1" d="M294.78,194.39a8.31,8.31,0,0,0-.5-3L318,205a8.85,8.85,0,0,1,.5,3,10.71,10.71,0,0,1-5.9,9.44l-23.69-13.59A10.64,10.64,0,0,0,294.78,194.39Z"/></clipPath><clipPath id="clip-path-13"><path class="cls-1" d="M286.32,204.59a9.26,9.26,0,0,0,1.56-.35l23.68,13.57a12.08,12.08,0,0,1-1.55.38Z"/></clipPath><clipPath id="clip-path-14"><path class="cls-1" d="M270.38,233.85a11.48,11.48,0,0,1,2.78,1.6l2.91,1.67,6.14,3.51,12,6.81a2.35,2.35,0,0,1-1.55-.31l-23.68-13.57A2.37,2.37,0,0,0,270.38,233.85Z"/></clipPath><clipPath id="clip-path-15"><path class="cls-1" d="M273.2,230.48a2.63,2.63,0,0,0-1.26-2.39l23.68,13.59a2.59,2.59,0,0,1,1.24,2.39L273.2,230.48Z"/></clipPath><clipPath id="clip-path-16"><path class="cls-1" d="M293.64,190l23.68,13.57A8.18,8.18,0,0,1,318,205l-23.69-13.57A6.64,6.64,0,0,0,293.64,190Z"/></clipPath><clipPath id="clip-path-17"><polygon class="cls-1" points="278.1 215.97 278.1 215.97 301.76 229.57 301.76 229.57 278.1 215.97"/></clipPath><clipPath id="clip-path-18"><path class="cls-1" d="M293.64,190a8.62,8.62,0,0,0-.74-1.05l23.68,13.57a10.51,10.51,0,0,1,.74,1Z"/></clipPath><clipPath id="clip-path-19"><path class="cls-1" d="M271.84,228.09l23.69,13.59a2.41,2.41,0,0,0-1.56-.28l-23.68-13.6A2.53,2.53,0,0,1,271.84,228.09Z"/></clipPath><clipPath id="clip-path-20"><path class="cls-1" d="M278.1,216h0l.29.17h.34l23,13.21a1.21,1.21,0,0,1-.83-.16l-23.69-13.58A1.64,1.64,0,0,0,278.1,216Z"/></clipPath><clipPath id="clip-path-21"><path class="cls-1" d="M301,229.38,277.27,215.8a1.49,1.49,0,0,1-.67-1.22l23.66,13.6A1.39,1.39,0,0,0,301,229.38Z"/></clipPath><clipPath id="clip-path-22"><path class="cls-1" d="M292.51,247.2l-23.68-13.57a2.65,2.65,0,0,1-1.24-2.39,3.44,3.44,0,0,1,2.79-3.37l23.69,13.6a3.4,3.4,0,0,0-2.82,3.37A2.6,2.6,0,0,0,292.51,247.2Z"/></clipPath><clipPath id="clip-path-23"><path class="cls-1" d="M291.49,187.65a3,3,0,0,0-.48-.31l23.66,13.57.5.31-16.35-9.36-4.61-2.66-1.41-.81Z"/></clipPath><clipPath id="clip-path-24"><path class="cls-1" d="M311.2,199.84l-23.68-13.6a1.38,1.38,0,0,0,.53.17,7.24,7.24,0,0,1,2.91,1.05L314.62,201a7.26,7.26,0,0,0-2.94-.91A1.17,1.17,0,0,1,311.2,199.84Z"/></clipPath><clipPath id="clip-path-25"><polygon class="cls-1" points="287.52 186.24 287.52 186.24 311.18 199.81 311.18 199.81 287.52 186.24"/></clipPath><clipPath id="clip-path-26"><path class="cls-1" d="M287.47,186.22h0l23.69,13.59h0L299.33,193l-3.11-1.77-3-1.75-2.94-1.69C289.41,187.32,288.28,186.72,287.47,186.22Z"/></clipPath><clipPath id="clip-path-27"><polygon class="cls-1" points="287.31 186.1 310.99 199.67 310.99 199.67 287.31 186.07 287.31 186.1"/></clipPath><clipPath id="clip-path-28"><polygon class="cls-1" points="287.31 186.1 287.31 186.1 310.99 199.67 310.99 199.67 294.71 190.35 291.03 188.22 290.53 187.94 288.14 186.6 287.31 186.1"/></clipPath><clipPath id="clip-path-29"><path class="cls-1" d="M264.24,216.14l11.95,6.78L288,229.71a1.87,1.87,0,0,1-1.55,1.77l-23.68-13.57A1.9,1.9,0,0,0,264.24,216.14Z"/></clipPath><clipPath id="clip-path-30"><path class="cls-1" d="M256.24,228.52a3.42,3.42,0,0,0,2.82-3.37l23.66,13.59a3.42,3.42,0,0,1-2.8,3.37Z"/></clipPath><clipPath id="clip-path-31"><path class="cls-1" d="M286.85,185.07a8,8,0,0,0-2.58-5.81L308,192.86a8,8,0,0,1,2.58,5.81,1.55,1.55,0,0,0,.36.91L287.21,186A1.52,1.52,0,0,1,286.85,185.07Z"/></clipPath><clipPath id="clip-path-32"><path class="cls-1" d="M256.24,228.52a11.61,11.61,0,0,1,2.77,1.6l2.94,1.67,4.59,2.63,13.38,7.69a2.6,2.6,0,0,1-1.55-.28l-23.66-13.6A2.46,2.46,0,0,0,256.24,228.52Z"/></clipPath><clipPath id="clip-path-33"><path class="cls-1" d="M259.06,225.15a2.65,2.65,0,0,0-1.27-2.39l23.68,13.59a2.57,2.57,0,0,1,1.25,2.39Z"/></clipPath><clipPath id="clip-path-34"><path class="cls-1" d="M284.27,179.26a7.93,7.93,0,0,0-1.2-.86L306.76,192a6.33,6.33,0,0,1,1.19.86L296,186.07l-1.55-.91-3.08-1.74-4.45-2.56C286.18,180.29,285.06,179.84,284.27,179.26Z"/></clipPath><clipPath id="clip-path-35"><path class="cls-1" d="M257.79,222.8l23.68,13.6a2.32,2.32,0,0,0-1.55-.28l-23.66-13.6A2.54,2.54,0,0,1,257.79,222.8Z"/></clipPath><clipPath id="clip-path-36"><path class="cls-1" d="M278.37,241.83l-23.66-13.6a2.6,2.6,0,0,1-1.27-2.39,3.44,3.44,0,0,1,2.82-3.37l23.66,13.6a3.4,3.4,0,0,0-2.8,3.37A2.71,2.71,0,0,0,278.37,241.83Z"/></clipPath><clipPath id="clip-path-37"><path class="cls-1" d="M278.53,231l-23.68-13.57a1.75,1.75,0,0,1,1.41-1.75l23.68,13.6A1.73,1.73,0,0,0,278.53,231Z"/></clipPath><clipPath id="clip-path-38"><path class="cls-1" d="M298.47,191.78l-23.69-13.57a1.35,1.35,0,0,0,.81.14,1.06,1.06,0,0,0,.43-.12,8.49,8.49,0,0,1,2.08-.64h.34a7.12,7.12,0,0,1,4.63.86l23.69,13.6a7.37,7.37,0,0,0-4.64-.89h-.36a9.12,9.12,0,0,0-2.08.65,1.28,1.28,0,0,1-.43.14A1.25,1.25,0,0,1,298.47,191.78Z"/></clipPath><clipPath id="clip-path-39"><polygon class="cls-1" points="274.64 178.12 298.32 191.69 298.46 191.69 274.78 178.12 274.64 178.12"/></clipPath><clipPath id="clip-path-40"><path class="cls-1" d="M272.39,176.11a6.49,6.49,0,0,0-.62-.39l23.68,13.6.63.39-23.21-13.32Z"/></clipPath><clipPath id="clip-path-41"><path class="cls-1" d="M249.9,207.92a7.43,7.43,0,0,0,4.64.88l23.68,13.6a7.55,7.55,0,0,1-4.63-.91Z"/></clipPath><clipPath id="clip-path-42"><path class="cls-1" d="M271.84,175.72l23.69,13.6a10.67,10.67,0,0,0-6.86-1.29L265,174.43A11,11,0,0,1,271.84,175.72Z"/></clipPath><clipPath id="clip-path-43"><path class="cls-1" d="M273.59,221.49,249.9,207.92a7.45,7.45,0,0,1-3.22-3.88,10.41,10.41,0,0,1,4.78-12.38,1.88,1.88,0,0,0,.95-1.67c0-.21,0-.43,0-.64a15.74,15.74,0,0,1,4.47-10.76,13.91,13.91,0,0,1,8-4.16L288.52,188a13.57,13.57,0,0,0-7.95,4.14,15.61,15.61,0,0,0-4.47,10.75v.65a1.8,1.8,0,0,1-1,1.67,10.45,10.45,0,0,0-4.78,12.4A7.41,7.41,0,0,0,273.59,221.49Z"/></clipPath><clipPath id="clip-path-44"><path class="cls-1" d="M266.82,214.77,243.16,201.2Z"/></clipPath><clipPath id="clip-path-45"><path class="cls-1" d="M243.16,201.18a12.59,12.59,0,0,1,.32-2.8L267.16,212a11.93,11.93,0,0,0-.31,2.79L243.19,201.2l23.66,13.57a11.53,11.53,0,0,0,1.93,6.55L245.1,207.75A11.65,11.65,0,0,1,243.16,201.18Z"/></clipPath><clipPath id="clip-path-46"><path class="cls-1" d="M268.19,208.8l-23.66-13.57a13.9,13.9,0,0,1,2-3.09,13,13,0,0,1,3-2.72L273.18,203a13.34,13.34,0,0,0-3,2.7A15.11,15.11,0,0,0,268.19,208.8Z"/></clipPath><clipPath id="clip-path-47"><path class="cls-1" d="M273.18,203l-23.66-13.6a17.85,17.85,0,0,1,.58-4.18l23.68,13.57A20,20,0,0,0,273.18,203Z"/></clipPath><clipPath id="clip-path-48"><path class="cls-1" d="M267.35,208.73l-23.68-13.58h.14a1.46,1.46,0,0,1,.72,0l23.66,13.58a1.38,1.38,0,0,0-.7,0Z"/></clipPath><clipPath id="clip-path-49"><path class="cls-1" d="M275.19,195.08l-23.68-13.57A18.13,18.13,0,0,1,265,171.28l1.08-.12,23.68,13.6h-1.07A18.11,18.11,0,0,0,275.19,195.08Z"/></clipPath><clipPath id="clip-path-50"><path class="cls-1" d="M234.68,209.8a87.68,87.68,0,0,0,10.4-2.05l23.68,13.57a83.51,83.51,0,0,1-10.4,2.06Z"/></clipPath><clipPath id="clip-path-51"><path class="cls-1" d="M275.07,187l-23.66-13.6a3.53,3.53,0,0,0,2.25.43l23.68,13.65A3.6,3.6,0,0,1,275.07,187Z"/></clipPath><clipPath id="clip-path-52"><path class="cls-1" d="M255.93,165.5l23.66,13.57a3.85,3.85,0,0,1,1.84,3.42,5,5,0,0,1-4.09,5l-23.68-13.58a5,5,0,0,0,4.08-4.92A3.76,3.76,0,0,0,255.93,165.5Z"/></clipPath><clipPath id="clip-path-53"><path class="cls-1" d="M254.8,169.3a1.09,1.09,0,0,0-.52-1L278,181.94a1,1,0,0,1,.5.93,1.35,1.35,0,0,1-1.12,1.36.94.94,0,0,1-.62,0L253,170.66a1.15,1.15,0,0,0,.63.12A1.43,1.43,0,0,0,254.8,169.3Z"/></clipPath><clipPath id="clip-path-54"><path class="cls-1" d="M254.28,168.34,278,181.94a1,1,0,0,0-.62-.12l-23.68-13.48A.94.94,0,0,1,254.28,168.34Z"/></clipPath><clipPath id="clip-path-55"><path class="cls-1" d="M276.62,184.11l-23.68-13.57a1.07,1.07,0,0,1-.5-1,1.34,1.34,0,0,1,1.12-1.34l23.68,13.58a1.4,1.4,0,0,0-1.14,1.36A1,1,0,0,0,276.62,184.11Z"/></clipPath><clipPath id="clip-path-56"><path class="cls-1" d="M282.07,171.33l-23.68-13.6a30.66,30.66,0,0,0,7.69-5.47L289.77,166A31.64,31.64,0,0,1,282.07,171.33Z"/></clipPath><clipPath id="clip-path-57"><path class="cls-1" d="M245.79,214.18,222.11,200.6a1.23,1.23,0,0,0,.62.17,81.79,81.79,0,0,0,11.81-.74,84.13,84.13,0,0,0,8.91-1.65L267.13,212c-2.91.69-5.9,1.24-8.91,1.65a80.89,80.89,0,0,1-12,.71A1.05,1.05,0,0,1,245.79,214.18Z"/></clipPath><clipPath id="clip-path-58"><path class="cls-1" d="M243.67,195.15a9.75,9.75,0,0,1,2.77,1.61l2.94,1.67,6.14,3.54,12,6.76a83.83,83.83,0,0,1-8.75,1.67L235,196.83A84.81,84.81,0,0,0,243.67,195.15Z"/></clipPath><clipPath id="clip-path-59"><path class="cls-1" d="M275.07,187l-23.66-13.6a3.76,3.76,0,0,1-1.84-3.39,5,5,0,0,1,4.11-4.92,3.4,3.4,0,0,1,2.25.43l23.66,13.57a3.69,3.69,0,0,0-2.25-.43,5,5,0,0,0-4.09,4.92A3.85,3.85,0,0,0,275.07,187Z"/></clipPath><clipPath id="clip-path-60"><path class="cls-1" d="M244.69,171.59l23.69,13.57a1.29,1.29,0,0,1,.64,1.06,1.79,1.79,0,0,1-1.31,1.91L244,174.55a1.8,1.8,0,0,0,1.33-1.91A1.31,1.31,0,0,0,244.69,171.59Z"/></clipPath><clipPath id="clip-path-61"><polygon class="cls-1" points="244.55 171.5 244.69 171.5 268.38 185.07 268.21 185.07 244.55 171.5"/></clipPath><clipPath id="clip-path-62"><path class="cls-1" d="M168.94,298.66a114.51,114.51,0,0,0,58.17,9.82l23.68,13.6a114.69,114.69,0,0,1-58.19-9.85Z"/></clipPath><clipPath id="clip-path-63"><path class="cls-1" d="M234.54,196.87h.38l23.68,13.58h-.38L234.61,197l23.61,13.55H258L234.37,197,258,210.57a80.54,80.54,0,0,1-11.19.69l-23.68-13.57a79.32,79.32,0,0,0,11.21-.7Z"/></clipPath><clipPath id="clip-path-64"><path class="cls-1" d="M228.47,199.41l-23.69-13.58a23.22,23.22,0,0,0,6,2.39,65,65,0,0,0,23.76.67h.28a86.07,86.07,0,0,0,15.28-3.49L273.78,199a85.21,85.21,0,0,1-15.3,3.49h-.28a65.9,65.9,0,0,1-23.76-.67A23,23,0,0,1,228.47,199.41Z"/></clipPath><clipPath id="clip-path-65"><path class="cls-1" d="M230.09,196.52l-23.68-13.58c5,2.85,15.2,4.38,28.1,2.65a78.32,78.32,0,0,0,17-4.08l23.68,13.57a79,79,0,0,1-17,4.09C245.27,200.89,235.06,199.41,230.09,196.52Z"/></clipPath><clipPath id="clip-path-66"><path class="cls-1" d="M245.84,190.49,222.16,176.9a1.25,1.25,0,0,0,.6.16,79.31,79.31,0,0,0,11.63-.71h.2a86.24,86.24,0,0,0,9.55-1.77l23.69,13.57a83.81,83.81,0,0,1-9.56,1.79h-.19a87.14,87.14,0,0,1-11.64.72A1.43,1.43,0,0,1,245.84,190.49Z"/></clipPath><clipPath id="clip-path-67"><path class="cls-1" d="M235,173.12c2.95-.41,5.88-1,8.77-1.67l23.66,13.6q-4.35,1-8.77,1.67Z"/></clipPath><clipPath id="clip-path-68"><polygon class="cls-1" points="234.75 173.12 234.97 173.12 258.63 186.72 258.44 186.72 234.75 173.12"/></clipPath><clipPath id="clip-path-69"><polygon class="cls-1" points="234.59 173.12 234.75 173.12 258.44 186.72 258.27 186.72 234.59 173.12"/></clipPath><clipPath id="clip-path-70"><path class="cls-1" d="M223.19,173.86a80.49,80.49,0,0,0,11.4-.69l23.68,13.6a80.87,80.87,0,0,1-11.42.69Z"/></clipPath><clipPath id="clip-path-71"><path class="cls-1" d="M228.49,175.25l-23.56-13.58a24.34,24.34,0,0,0,6,2.39,66.42,66.42,0,0,0,23.77.67,75.07,75.07,0,0,0,23.9-7l23.69,13.6a75.37,75.37,0,0,1-23.9,7,65.91,65.91,0,0,1-23.76-.67A23,23,0,0,1,228.49,175.25Z"/></clipPath><clipPath id="clip-path-72"><path class="cls-1" d="M230.14,172.45l-23.68-13.67c5,2.87,15.22,4.37,28.15,2.65,18.5-2.39,31.47-10,31.5-15.27l23.68,13.58c0,5.25-13,12.83-31.52,15.29C245.34,176.82,235.11,175.32,230.14,172.45Z"/></clipPath><clipPath id="clip-path-73"><path class="cls-1" d="M275.12,163.27l-23.66-13.59a3.43,3.43,0,0,0,2.24.43l23.69,13.59A3.72,3.72,0,0,1,275.12,163.27Z"/></clipPath><clipPath id="clip-path-74"><path class="cls-1" d="M256,141.79l23.68,13.57a3.87,3.87,0,0,1,1.77,3.42,5,5,0,0,1-4.08,4.92l-23.69-13.59a5,5,0,0,0,4.09-4.9A3.83,3.83,0,0,0,256,141.79Z"/></clipPath><clipPath id="clip-path-75"><path class="cls-1" d="M254.83,145.59a1.11,1.11,0,0,0-.5-1L278,158.23a1.07,1.07,0,0,1,.5.93,1.38,1.38,0,0,1-1.12,1.37,1.2,1.2,0,0,1-.65-.12l-23.66-13.58a1,1,0,0,0,.62.12A1.38,1.38,0,0,0,254.83,145.59Z"/></clipPath><clipPath id="clip-path-76"><path class="cls-1" d="M254.33,144.63,278,158.23a1.09,1.09,0,0,0-.62,0L253.7,144.44A1.17,1.17,0,0,1,254.33,144.63Z"/></clipPath><clipPath id="clip-path-77"><path class="cls-1" d="M276.74,160.41l-23.66-13.58a1.06,1.06,0,0,1-.5-.93,1.42,1.42,0,0,1,1.12-1.39l23.69,13.6a1.38,1.38,0,0,0-1.15,1.36A1.08,1.08,0,0,0,276.74,160.41Z"/></clipPath><clipPath id="clip-path-78"><path class="cls-1" d="M245.15,212.72l-12-6.79Z"/></clipPath><clipPath id="clip-path-79"><path class="cls-1" d="M223.14,197.59h0l23.68,13.58h-.21a1.82,1.82,0,0,0-1.46,1.55l-23.66-13.57,23.66,13.57a1.42,1.42,0,0,0,.64,1.46L222.11,200.6a1.44,1.44,0,0,1-.64-1.45,1.78,1.78,0,0,1,1.48-1.56Z"/></clipPath><clipPath id="clip-path-80"><path class="cls-1" d="M282.12,147.26l-23.68-13.57a31,31,0,0,0,7.69-5.5l23.68,13.6A31.55,31.55,0,0,1,282.12,147.26Z"/></clipPath><clipPath id="clip-path-81"><path class="cls-1" d="M275.12,163.27l-23.66-13.59a3.75,3.75,0,0,1-1.84-3.4,5,5,0,0,1,4.11-4.92,3.58,3.58,0,0,1,2.22.43l23.68,13.57a3.49,3.49,0,0,0-2.24-.4,5,5,0,0,0-4.09,4.9A3.79,3.79,0,0,0,275.12,163.27Z"/></clipPath><clipPath id="clip-path-82"><path class="cls-1" d="M244.72,147.88l23.68,13.58a1.4,1.4,0,0,1,.67,1.07,1.83,1.83,0,0,1-1.31,1.91l-23.69-13.59a1.84,1.84,0,0,0,1.32-1.89A1.34,1.34,0,0,0,244.72,147.88Z"/></clipPath><clipPath id="clip-path-83"><polygon class="cls-1" points="244.6 147.81 244.72 147.81 268.4 161.39 268.28 161.39 244.6 147.81"/></clipPath><clipPath id="clip-path-84"><path class="cls-1" d="M243.93,147.72a1.27,1.27,0,0,1,.67,0l23.68,13.57a1.34,1.34,0,0,0-.69,0Z"/></clipPath><clipPath id="clip-path-85"><path class="cls-1" d="M245.87,166.79l-23.66-13.6a1.1,1.1,0,0,0,.59.17,82.29,82.29,0,0,0,11.95-.72,91.31,91.31,0,0,0,9.44-1.79l23.69,13.59A87.69,87.69,0,0,1,246.61,167,1.57,1.57,0,0,1,245.87,166.79Z"/></clipPath><clipPath id="clip-path-86"><path class="cls-1" d="M235,149.41a85.26,85.26,0,0,0,8.8-1.67l12,6.81,11.82,6.79a84.2,84.2,0,0,1-8.77,1.67Z"/></clipPath><clipPath id="clip-path-87"><polygon class="cls-1" points="234.63 149.46 234.99 149.46 258.68 163.06 258.32 163.06 234.63 149.46"/></clipPath><clipPath id="clip-path-88"><polygon class="cls-1" points="234.44 149.48 234.63 149.48 258.32 163.08 258.1 163.08 234.44 149.48"/></clipPath><clipPath id="clip-path-89"><path class="cls-1" d="M223.23,150.18a76.36,76.36,0,0,0,11.21-.7l11.95,6.82,11.83,6.78a79.29,79.29,0,0,1-11.21.67Z"/></clipPath><clipPath id="clip-path-90"><path class="cls-1" d="M228.56,151.21l-23.63-13.6a23,23,0,0,0,6,2.39,66.23,66.23,0,0,0,23.9.67,75.37,75.37,0,0,0,23.9-7l23.68,13.58a74.51,74.51,0,0,1-23.9,7,65.18,65.18,0,0,1-23.75-.67A23.57,23.57,0,0,1,228.56,151.21Z"/></clipPath><clipPath id="clip-path-91"><polygon class="cls-1" points="243.79 147.74 243.93 147.74 267.59 161.34 267.44 161.34 243.79 147.74"/></clipPath><clipPath id="clip-path-92"><polygon class="cls-1" points="223.19 150.18 223.19 150.18 246.84 163.75 246.84 163.75 223.19 150.18"/></clipPath><clipPath id="clip-path-93"><polygon class="cls-1" points="223.02 150.18 223.19 150.18 246.84 163.75 246.7 163.75 223.02 150.18"/></clipPath><clipPath id="clip-path-94"><path class="cls-1" d="M222.21,153.19a1.42,1.42,0,0,1-.67-1.44l23.68,13.58a1.47,1.47,0,0,0,.65,1.46Z"/></clipPath><clipPath id="clip-path-95"><path class="cls-1" d="M221.66,151.75a1.83,1.83,0,0,1,1.48-1.57l23.68,13.6a1.84,1.84,0,0,0-1.48,1.55Z"/></clipPath><clipPath id="clip-path-96"><path class="cls-1" d="M230.14,172.45l-23.68-13.67c-2.15-1.24-3.32-2.72-3.32-4.3l23.68,13.6C226.82,169.75,228,171.23,230.14,172.45Z"/></clipPath><clipPath id="clip-path-97"><path class="cls-1" d="M265.44,120.07a7.6,7.6,0,0,0-2.68-2.39l23.66,13.57a7.25,7.25,0,0,1,2.68,2.39Z"/></clipPath><clipPath id="clip-path-98"><path class="cls-1" d="M365.24,149.44c0-49.16-23.4-89.31-59.1-109.82l23.68,13.6c35.7,20.48,59.12,60.66,59.12,109.81-.14,77.84-59.38,148.77-132.3,158.4L233,307.86C305.87,298.2,365.05,227.3,365.24,149.44Z"/></clipPath><clipPath id="clip-path-99"><path class="cls-1" d="M234.47,209.83h.21l23.68,13.57h-.21c-12.93,1.72-23.13.22-28.11-2.65l-23.68-13.58C211.33,210,221.66,211.52,234.47,209.83Z"/></clipPath><clipPath id="clip-path-100"><polygon class="cls-1" points="223.14 173.88 223.14 173.88 246.8 187.48 246.8 187.48 223.14 173.88"/></clipPath><clipPath id="clip-path-101"><polygon class="cls-1" points="222.97 173.88 223.14 173.88 246.82 187.46 246.65 187.46 222.97 173.88"/></clipPath><clipPath id="clip-path-102"><path class="cls-1" d="M222.16,176.9a1.42,1.42,0,0,1-.65-1.46L245.17,189a1.43,1.43,0,0,0,.67,1.45Z"/></clipPath><clipPath id="clip-path-103"><path class="cls-1" d="M221.51,175.51A1.79,1.79,0,0,1,223,174l23.68,13.57a1.87,1.87,0,0,0-1.48,1.58Z"/></clipPath><clipPath id="clip-path-104"><path class="cls-1" d="M230.09,196.52l-23.68-13.58c-2.15-1.24-3.32-2.72-3.32-4.3l23.68,13.6C226.77,193.82,227.94,195.3,230.09,196.52Z"/></clipPath><clipPath id="clip-path-105"><path class="cls-1" d="M230,220.75l-23.68-13.58c-2.15-1.24-3.32-2.72-3.32-4.3l23.68,13.58C226.72,218,227.89,219.53,230,220.75Z"/></clipPath><clipPath id="clip-path-106"><path class="cls-1" d="M203.09,184.64l23.68,13.57a16.17,16.17,0,0,0,1.7,1.13l-23.69-13.6A14,14,0,0,1,203.09,184.64Z"/></clipPath><clipPath id="clip-path-107"><path class="cls-1" d="M266.06,122.22a4.07,4.07,0,0,0-.62-2.15l23.66,13.57a3.92,3.92,0,0,1,.64,2.15c0,6.14-14.07,13-31.4,15.27-12.28,1.63-22.92.53-28.06-2.39L206.6,135.1c5.14,3,15.77,4.06,28.06,2.39C252,135.19,266.06,128.33,266.06,122.22Z"/></clipPath><clipPath id="clip-path-108"><path class="cls-1" d="M262.76,117.68l23.66,13.57c-5.14-3-15.77-4-28.06-2.39l-23.66-13.6C247,113.61,257.5,114.71,262.76,117.68Z"/></clipPath><clipPath id="clip-path-109"><path class="cls-1" d="M204.93,161.67a13.32,13.32,0,0,1-1.7-1.1l23.66,13.6c.55.38,1.1.74,1.7,1.08Z"/></clipPath><clipPath id="clip-path-110"><path class="cls-1" d="M204.93,137.61a14.51,14.51,0,0,1-1.7-1.1l23.66,13.6c.55.38,1.1.74,1.72,1.1Z"/></clipPath><clipPath id="clip-path-111"><path class="cls-1" d="M230.28,148.65l-23.68-13.6a5.42,5.42,0,0,1-3.3-4.54c0-6.14,14.08-13,31.4-15.27l23.66,13.6C241,131.23,227,137.94,227,144.08A5.51,5.51,0,0,0,230.28,148.65Z"/></clipPath><clipPath id="clip-path-112"><path class="cls-1" d="M168.94,298.66l1.14.64,1.17.67,21.35,12.26c-2.94-1.36-5.84-2.84-8.63-4.47l-23.68-13.57A87.36,87.36,0,0,0,168.94,298.66Z"/></clipPath><clipPath id="clip-path-113"><path class="cls-1" d="M184,307.79l-23.68-13.6c-35.7-20.48-59.22-60.66-59.12-109.93.14-77.82,59.38-148.75,132.3-158.4l23.68,13.6C184.23,49,125,120,124.87,197.85,124.77,247.2,148.29,287.28,184,307.79Z"/></clipPath><clipPath id="clip-path-114"><path class="cls-1" d="M306.11,39.62,329.8,53.2a114.27,114.27,0,0,0-72.63-13.65L233.61,26A114.42,114.42,0,0,1,306.11,39.62Z"/></clipPath><clipPath id="clip-path-115"><path class="cls-1" d="M318.64,17.78l23.65,13.58a134,134,0,0,0-85.1-16L233.53,1.82A134,134,0,0,1,318.64,17.78Z"/></clipPath><clipPath id="clip-path-116"><path class="cls-1" d="M171.47,329.63,147.81,316C106,292.13,78.51,245,78.51,187.36c.16-91.19,69.56-174.29,155-185.57l23.66,13.58c-85.41,11.3-154.81,94.37-155,185.57C102.16,258.56,129.65,305.61,171.47,329.63Z"/></clipPath></defs><title>backend</title><g id="Слой_2" data-name="Слой 2"><g id="Слой_1-2" data-name="Слой 1"><g id="af9bb2a1-20a2-4509-a503-1776ae6244ca"><g id="ed755fc2-f117-46a8-9a3d-622334b4df45"><path class="cls-2" d="M483.75,380.27c0,36.28-71.41,65.89-205,65.89S0,416.55,0,380.27s108.28-65.7,241.87-65.7S483.75,344,483.75,380.27Z"/><g class="cls-3"><path class="cls-4" d="M308.24,240.42l-23.68-13.58a2.45,2.45,0,0,0,.74-.19L309,240.23a2.55,2.55,0,0,1-.72.19"/><path class="cls-4" d="M309,240.23,285.3,226.65l.45-.24L309.41,240l-.45.24"/><path class="cls-5" d="M309.41,240l-23.66-13.57.34-.26,23.68,13.6-.36.24"/><path class="cls-6" d="M309.77,239.75l-23.59-13.6a1.2,1.2,0,0,0,.29-.26l23.68,13.57-.29.29"/><path class="cls-7" d="M310.08,239.46,286.4,225.89l.26-.31,23.68,13.57a1.53,1.53,0,0,1-.26.31"/><path class="cls-8" d="M310.32,239.15,286.64,225.7l.23-.36,23.69,13.57a1.41,1.41,0,0,1-.24.36"/><path class="cls-9" d="M310.56,238.79l-23.69-13.57a4,4,0,0,0,.24-.46l23.66,13.58a1.54,1.54,0,0,1-.21.45"/><path class="cls-10" d="M310.77,238.34l-23.66-13.58a3.56,3.56,0,0,0,.24-1.29,2.56,2.56,0,0,0-1.24-2.39l23.68,13.58a2.65,2.65,0,0,1,1.25,2.39,3.43,3.43,0,0,1-.27,1.26"/></g><g class="cls-11"><path class="cls-10" d="M310.77,238.34l-23.66-13.58a3.56,3.56,0,0,0,.24-1.29,2.56,2.56,0,0,0-1.24-2.39l23.68,13.58a2.65,2.65,0,0,1,1.25,2.39,3.43,3.43,0,0,1-.27,1.26"/></g><g class="cls-12"><path class="cls-5" d="M306.69,240,283,226.46h0L306.69,240h0"/><path class="cls-4" d="M306.73,240.15l-23.68-13.57.43.19,23.68,13.58a1.2,1.2,0,0,1-.43-.2"/><path class="cls-4" d="M307.16,240.35l-23.68-13.58a2.8,2.8,0,0,0,1.08,0l23.68,13.58a2.46,2.46,0,0,1-1.08,0"/></g><g class="cls-13"><path class="cls-14" d="M308.24,234.44l-23.68-13.52a2.42,2.42,0,0,1,1.07,0l23.66,13.57a2.65,2.65,0,0,0-1.05,0"/><path class="cls-15" d="M309.29,234.51l-23.66-13.57.43.17,23.66,13.6a1.69,1.69,0,0,0-.43-.2"/><path class="cls-16" d="M309.72,234.71l-23.66-13.6h0l23.69,13.57h0"/></g><g class="cls-17"><path class="cls-18" d="M306.69,240,283,226.46a2.57,2.57,0,0,1-1.24-2.39,3.49,3.49,0,0,1,.24-1.27l23.68,13.58a3.38,3.38,0,0,0-.26,1.29,2.59,2.59,0,0,0,1.27,2.39"/><path class="cls-19" d="M305.68,236.52,282,223a2.25,2.25,0,0,1,.24-.46l23.66,13.58-.22.45"/><path class="cls-20" d="M305.9,236.07l-23.66-13.58a1.21,1.21,0,0,1,.24-.35l23.66,13.57-.24.36"/><path class="cls-21" d="M306.14,235.71l-23.66-13.57a2.43,2.43,0,0,1,.24-.32L306.4,235.4l-.26.31"/><path class="cls-22" d="M306.4,235.4l-23.68-13.58a1.58,1.58,0,0,1,.31-.26l23.66,13.58-.29.26"/><path class="cls-16" d="M306.69,235.26,283,221.68l.33-.26L307,235l-.35.27"/><path class="cls-15" d="M307,234.87,283.36,221.3l.46-.24,23.68,13.57-.46.24"/><path class="cls-14" d="M307.5,234.63l-23.71-13.57a4.83,4.83,0,0,1,.74-.22l23.69,13.6a2.76,2.76,0,0,0-.75.19"/></g><path class="cls-23" d="M308.24,234.44a2.38,2.38,0,0,1,2.77,1.93,2.35,2.35,0,0,1,0,.7,3.4,3.4,0,0,1-2.8,3.35,2.39,2.39,0,0,1-2.79-1.91,2.05,2.05,0,0,1,0-.7A3.42,3.42,0,0,1,308.24,234.44Z"/><polygon class="cls-24" points="306.66 233.13 283 219.55 285.97 219.15 309.63 232.75 306.66 233.13"/><polygon class="cls-10" points="309.63 232.75 285.97 219.15 285.97 213.37 309.65 226.94 309.63 232.75"/><g class="cls-25"><path class="cls-10" d="M309.65,226.94,286,213.34a1.29,1.29,0,0,0-.62-1.24L309,225.67a1.36,1.36,0,0,1,.65,1.27"/></g><polygon class="cls-26" points="306.66 233.13 283 219.55 283 215.32 306.69 228.9 306.66 233.13"/><g class="cls-27"><path class="cls-14" d="M308.31,225.53l-23.68-13.6a1.93,1.93,0,0,1,.48,0l23.66,13.6a.9.9,0,0,0-.46,0"/><path class="cls-15" d="M308.77,225.7l-23.66-13.6h.21L309,225.7h-.21"/><polyline class="cls-16" points="308.98 225.67 285.32 212.1 285.35 212.1 309 225.7 308.98 225.67"/></g><polygon class="cls-28" points="308.26 225.53 284.58 211.96 284.63 211.96 308.29 225.53 308.26 225.53"/><g class="cls-29"><path class="cls-10" d="M296.63,245.34l-23.69-13.6a2.91,2.91,0,0,0,.26-1.26,2.63,2.63,0,0,0-1.26-2.39l23.68,13.59a2.59,2.59,0,0,1,1.24,2.39,3.22,3.22,0,0,1-.23,1.27"/></g><g class="cls-30"><path class="cls-4" d="M310.08,218.19l-23.68-13.6a8.47,8.47,0,0,0,2.15-.59l23.68,13.59a8.93,8.93,0,0,1-2.15.6"/><path class="cls-4" d="M312.16,217.59,288.57,204a9.15,9.15,0,0,0,1.39-.72l23.68,13.57a10.27,10.27,0,0,1-1.39.74"/></g><g class="cls-31"><path class="cls-4" d="M294.07,247.44l-23.69-13.59a2.77,2.77,0,0,0,.75-.2l23.65,13.58a3,3,0,0,1-.71.21"/><path class="cls-4" d="M294.78,247.2l-23.65-13.57.45-.24L295.26,247l-.48.23"/><path class="cls-5" d="M295.26,247l-23.68-13.57.33-.27,23.69,13.6-.34.24"/><path class="cls-6" d="M295.6,246.75l-23.76-13.6a1.3,1.3,0,0,0,.31-.26l23.66,13.57-.28.29"/><path class="cls-7" d="M295.88,246.46l-23.66-13.57.27-.31,23.66,13.57a1.63,1.63,0,0,1-.27.31"/><path class="cls-8" d="M296.15,246.15l-23.66-13.57.24-.36,23.66,13.57-.24.36"/><path class="cls-9" d="M296.39,245.79l-23.66-13.57.21-.48,23.69,13.6a4.76,4.76,0,0,1-.24.45"/><path class="cls-10" d="M296.63,245.34l-23.69-13.6a2.91,2.91,0,0,0,.26-1.26,2.63,2.63,0,0,0-1.26-2.39l23.68,13.59a2.59,2.59,0,0,1,1.24,2.39,3.22,3.22,0,0,1-.23,1.27"/></g><g class="cls-32"><path class="cls-14" d="M206.74,317.61,183.06,304a117.93,117.93,0,0,0,49.9,3.83l23.66,13.57a117.51,117.51,0,0,1-49.88-3.82"/></g><g class="cls-33"><path class="cls-4" d="M312.16,217.59,288.57,204a9.15,9.15,0,0,0,1.39-.72l23.68,13.57a10.27,10.27,0,0,1-1.39.74"/><path class="cls-5" d="M313.55,216.85l-23.69-13.57a12,12,0,0,0,1.08-.79l23.66,13.6-1.06.76"/><path class="cls-6" d="M314.6,216.14l-23.66-13.6a10,10,0,0,0,.88-.84l23.68,13.6-.9.84"/><path class="cls-7" d="M315.5,215.25l-23.68-13.6a7.06,7.06,0,0,0,.79-.93l23.68,13.6-.79.93"/><path class="cls-8" d="M316.29,214.32l-23.68-13.6c.26-.33.5-.71.74-1.07L317,213.22a11.56,11.56,0,0,1-.72,1.1"/><path class="cls-9" d="M317,213.22l-23.66-13.57a15.12,15.12,0,0,0,.67-1.41l23.68,13.57a9.2,9.2,0,0,1-.69,1.41"/><path class="cls-10" d="M317.7,211.81,294,198.24a9.79,9.79,0,0,0,.76-3.85,7.82,7.82,0,0,0-3.82-6.93L314.62,201a8,8,0,0,1,3.8,7.05,10.56,10.56,0,0,1-.76,3.85"/></g><g class="cls-34"><path class="cls-4" d="M310.08,218.19l-23.68-13.6a8.47,8.47,0,0,0,2.15-.59l23.68,13.59a8.93,8.93,0,0,1-2.15.6"/></g><g class="cls-35"><path class="cls-5" d="M292.51,247.2l-23.68-13.57h0l23.68,13.6h0"/><path class="cls-4" d="M292.56,247.2l-23.68-13.59.45.19L293,247.37l-.43-.17"/><path class="cls-4" d="M293,247.35l-23.66-13.58a2.33,2.33,0,0,0,1.05,0l23.69,13.6a2.8,2.8,0,0,1-1.08,0"/></g><g class="cls-36"><path class="cls-10" d="M296.63,245.34l-23.69-13.6a2.91,2.91,0,0,0,.26-1.26,2.63,2.63,0,0,0-1.26-2.39l23.68,13.59a2.59,2.59,0,0,1,1.24,2.39,3.22,3.22,0,0,1-.23,1.27"/></g><g class="cls-37"><path class="cls-10" d="M317.7,211.81,294,198.24a9.79,9.79,0,0,0,.76-3.85,7.82,7.82,0,0,0-3.82-6.93L314.62,201a8,8,0,0,1,3.8,7.05,10.56,10.56,0,0,1-.76,3.85"/></g><polygon class="cls-24" points="301.79 229.54 278.13 215.97 283 215.32 306.69 228.9 301.79 229.54"/><g class="cls-38"><path class="cls-4" d="M301.21,229.5l-23.66-13.58a1.14,1.14,0,0,0,.58,0l23.66,13.6a1.42,1.42,0,0,1-.58,0"/></g><polygon class="cls-28" points="303.22 226.2 279.56 212.62 284.58 211.96 308.26 225.53 303.22 226.2"/><g class="cls-39"><path class="cls-10" d="M317.7,211.81,294,198.24a9.79,9.79,0,0,0,.76-3.85,7.82,7.82,0,0,0-3.82-6.93L314.62,201a8,8,0,0,1,3.8,7.05,10.56,10.56,0,0,1-.76,3.85"/></g><g class="cls-40"><path class="cls-14" d="M294.07,241.44l-23.69-13.59a2.46,2.46,0,0,1,1.08,0l23.66,13.57a2.65,2.65,0,0,0-1.05,0"/><path class="cls-15" d="M295.12,241.52l-23.66-13.58.43.17,23.68,13.6-.45-.19"/><path class="cls-16" d="M295.57,241.71l-23.73-13.62h0l23.69,13.59h0"/></g><g class="cls-41"><polyline class="cls-5" points="300.95 229.4 277.29 215.8 277.31 215.83 300.98 229.4 300.95 229.4"/><path class="cls-4" d="M301,229.4l-23.65-13.6.23.12,23.66,13.58H301"/><path class="cls-4" d="M301.21,229.5l-23.66-13.58a1.14,1.14,0,0,0,.58,0l23.66,13.6a1.42,1.42,0,0,1-.58,0"/></g><g class="cls-42"><path class="cls-18" d="M301,229.38,277.27,215.8a1.49,1.49,0,0,1-.67-1.22l23.66,13.6a1.39,1.39,0,0,0,.69,1.2"/></g><g class="cls-43"><path class="cls-18" d="M292.51,247.2l-23.68-13.57a2.65,2.65,0,0,1-1.24-2.39,3.29,3.29,0,0,1,.24-1.27l23.68,13.6a3.24,3.24,0,0,0-.26,1.27,2.61,2.61,0,0,0,1.26,2.39"/><path class="cls-19" d="M291.51,243.55,267.83,230a2,2,0,0,1,.24-.45l23.66,13.57-.22.48"/><path class="cls-20" d="M291.73,243.07,268.07,229.5a1.13,1.13,0,0,1,.24-.36L292,242.71l-.23.36"/><path class="cls-21" d="M292,242.71l-23.65-13.57a1.3,1.3,0,0,1,.26-.31l23.66,13.57-.27.31"/><path class="cls-22" d="M292.23,242.42l-23.66-13.57.29-.29,23.68,13.6a1.58,1.58,0,0,0-.31.26"/><path class="cls-16" d="M292.54,242.14l-23.68-13.6.35-.24,23.66,13.58-.33.26"/><path class="cls-15" d="M292.87,241.88,269.21,228.3a1.83,1.83,0,0,1,.46-.24l23.66,13.58-.46.24"/><path class="cls-14" d="M293.35,241.64l-23.66-13.58a3,3,0,0,1,.72-.21l23.68,13.6a2.45,2.45,0,0,0-.74.19"/></g><path id="back_point2" class="cls-23" d="M294.07,241.44a2.39,2.39,0,0,1,2.77,1.93,2.36,2.36,0,0,1,0,.7,3.43,3.43,0,0,1-2.79,3.37,2.51,2.51,0,0,1-2.81-2.17,2.34,2.34,0,0,1,0-.46A3.4,3.4,0,0,1,294.07,241.44Z"/><polygon class="cls-24" points="292.59 239.99 268.93 226.41 271.87 226.03 295.55 239.6 292.59 239.99"/><g class="cls-44"><path class="cls-10" d="M317.7,211.81,294,198.24a9.79,9.79,0,0,0,.76-3.85,7.82,7.82,0,0,0-3.82-6.93L314.62,201a8,8,0,0,1,3.8,7.05,10.56,10.56,0,0,1-.76,3.85"/></g><polygon class="cls-10" points="303.22 226.2 279.56 212.62 279.56 206.82 303.25 220.41 303.22 226.2"/><polygon class="cls-26" points="300.26 228.18 276.6 214.61 276.6 207.2 300.28 220.8 300.26 228.18"/><polygon class="cls-28" points="300.28 220.8 276.6 207.2 279.56 206.82 303.25 220.41 300.28 220.8"/><g class="cls-45"><polyline class="cls-16" points="311.2 199.84 287.52 186.26 287.54 186.26 311.23 199.86 311.2 199.84"/><path class="cls-15" d="M311.23,199.84l-23.69-13.58h.24l23.69,13.58h-.24"/><path class="cls-14" d="M311.47,199.93l-23.69-13.57h.27a7,7,0,0,1,1.5.29l23.66,13.59a7.44,7.44,0,0,0-1.48-.28h-.26"/><path class="cls-15" d="M313.21,200.29l-23.66-13.6a8.2,8.2,0,0,1,1.29.55l23.68,13.6a6.59,6.59,0,0,0-1.31-.55"/><path class="cls-16" d="M314.52,200.84,291,187.24h.17l23.66,13.58h-.15"/></g><g class="cls-46"><path class="cls-10" d="M311.2,199.84l-23.68-13.6a1.4,1.4,0,0,1-.67-1.17,7.8,7.8,0,0,0-3.78-6.67L306.76,192a7.72,7.72,0,0,1,3.77,6.67,1.42,1.42,0,0,0,.67,1.17"/></g><g class="cls-47"><path class="cls-10" d="M311.2,199.84l-23.68-13.6a1.4,1.4,0,0,1-.67-1.17,7.8,7.8,0,0,0-3.78-6.67L306.76,192a7.72,7.72,0,0,1,3.77,6.67,1.42,1.42,0,0,0,.67,1.17"/></g><g class="cls-48"><path class="cls-10" d="M311.2,199.84l-23.68-13.6a1.4,1.4,0,0,1-.67-1.17,7.8,7.8,0,0,0-3.78-6.67L306.76,192a7.72,7.72,0,0,1,3.77,6.67,1.42,1.42,0,0,0,.67,1.17"/></g><g class="cls-49"><path class="cls-10" d="M311.2,199.84l-23.68-13.6a1.4,1.4,0,0,1-.67-1.17,7.8,7.8,0,0,0-3.78-6.67L306.76,192a7.72,7.72,0,0,1,3.77,6.67,1.42,1.42,0,0,0,.67,1.17"/></g><polygon class="cls-10" points="295.55 239.6 271.87 226.03 271.91 207.84 295.6 221.42 295.55 239.6"/><polygon class="cls-28" points="292.63 221.8 268.95 208.23 271.91 207.84 295.6 221.42 292.63 221.8"/><polygon class="cls-23" points="295.6 221.42 295.55 239.6 292.59 239.99 292.63 221.8 295.6 221.42"/><polygon class="cls-26" points="292.59 239.99 268.93 226.41 268.95 208.23 292.63 221.8 292.59 239.99"/><g class="cls-50"><path class="cls-4" d="M286.37,231.57,262.69,218h.41l23.68,13.6h-.41"/><path class="cls-4" d="M286.78,231.48l-23.68-13.6.26-.12L287,231.34l-.26.14"/><path class="cls-5" d="M287,231.34l-23.68-13.58.19-.14,23.68,13.57-.19.15"/><path class="cls-6" d="M287.23,231.19l-23.68-13.57.17-.17,23.66,13.6-.15.14"/><path class="cls-7" d="M287.38,231.05l-23.66-13.6.14-.17,23.66,13.6a.39.39,0,0,1-.14.17"/><path class="cls-8" d="M287.52,230.88l-23.66-13.6a.62.62,0,0,0,.12-.19l23.68,13.6-.14.19"/><path class="cls-9" d="M287.66,230.69,264,217.09v-.24l23.68,13.58a1.13,1.13,0,0,1,0,.26"/><path class="cls-10" d="M287.78,230.48,264.1,216.9a1.44,1.44,0,0,0,.14-.62l23.69,13.57a2.63,2.63,0,0,1-.15.63"/></g><g class="cls-51"><path class="cls-4" d="M279.92,242.11l-23.68-13.59a2.8,2.8,0,0,0,.74-.2l23.68,13.58a4.79,4.79,0,0,1-.74.21"/><path class="cls-4" d="M280.66,241.9,257,228.32l.45-.23,23.69,13.57-.46.24"/><path class="cls-5" d="M281.12,241.66,257.5,228.09l.36-.27,23.66,13.6-.33.24"/><path class="cls-6" d="M281.4,241.42l-23.66-13.6.29-.26,23.66,13.57a1.33,1.33,0,0,1-.29.29"/><path class="cls-7" d="M281.74,241.13l-23.66-13.57.26-.31L282,240.82a1.58,1.58,0,0,1-.26.31"/><path class="cls-8" d="M282,240.82l-23.66-13.57.24-.36,23.66,13.58a2.71,2.71,0,0,1-.24.35"/><path class="cls-9" d="M282.24,240.47l-23.66-13.58a4.54,4.54,0,0,0,.21-.45L282.48,240a4,4,0,0,1-.24.46"/><path class="cls-10" d="M282.48,240l-23.69-13.57a3.21,3.21,0,0,0,.27-1.29,2.67,2.67,0,0,0-1.27-2.39l23.68,13.6a2.55,2.55,0,0,1,1.25,2.39,3.4,3.4,0,0,1-.24,1.26"/></g><g class="cls-52"><path class="cls-10" d="M311.2,199.84l-23.68-13.6a1.4,1.4,0,0,1-.67-1.17,7.8,7.8,0,0,0-3.78-6.67L306.76,192a7.72,7.72,0,0,1,3.77,6.67,1.42,1.42,0,0,0,.67,1.17"/></g><g class="cls-53"><path class="cls-5" d="M278.37,241.83l-23.66-13.6h0l23.66,13.6h0"/><path class="cls-4" d="M278.41,241.85l-23.65-13.6.43.19L278.87,242l-.46-.17"/><path class="cls-4" d="M278.87,242l-23.76-13.58a2.37,2.37,0,0,0,1.06,0L279.85,242a2.33,2.33,0,0,1-1.05,0"/></g><g class="cls-54"><path class="cls-10" d="M282.48,240l-23.69-13.57a3.21,3.21,0,0,0,.27-1.29,2.67,2.67,0,0,0-1.27-2.39l23.68,13.6a2.55,2.55,0,0,1,1.25,2.39,3.4,3.4,0,0,1-.24,1.26"/></g><g class="cls-55"><path class="cls-10" d="M311.2,199.84l-23.68-13.6a1.4,1.4,0,0,1-.67-1.17,7.8,7.8,0,0,0-3.78-6.67L306.76,192a7.72,7.72,0,0,1,3.77,6.67,1.42,1.42,0,0,0,.67,1.17"/></g><polygon class="cls-10" points="287.93 229.81 264.24 216.23 264.27 208.85 287.93 222.42 287.93 229.81"/><g class="cls-56"><path class="cls-14" d="M279.92,236.12l-23.66-13.6a2.08,2.08,0,0,1,1.05,0L281,236.09a2.8,2.8,0,0,0-1.08,0"/><path class="cls-15" d="M281,236.19l-23.69-13.58.43.17,23.69,13.6-.43-.19"/><path class="cls-16" d="M281.4,236.38l-23.68-13.6h0l23.68,13.6h0"/></g><polygon class="cls-24" points="281.5 232.24 257.81 218.65 262.69 218 286.37 231.6 281.5 232.24"/><polygon class="cls-10" points="281.5 234.35 257.81 220.77 257.81 218.65 281.5 232.24 281.5 234.35"/><g class="cls-57"><path class="cls-18" d="M278.37,241.83l-23.66-13.6a2.6,2.6,0,0,1-1.27-2.39,3.43,3.43,0,0,1,.26-1.27l23.66,13.58a4,4,0,0,0-.24,1.29,2.71,2.71,0,0,0,1.25,2.39"/><path class="cls-19" d="M277.36,238.19,253.7,224.62c.07-.16.14-.32.22-.48l23.68,13.6a4.92,4.92,0,0,0-.24.45"/><path class="cls-20" d="M277.6,237.65l-23.68-13.6.24-.36,23.68,13.6-.24.36"/><path class="cls-21" d="M277.84,237.38l-23.68-13.6.26-.28,23.68,13.57a1.94,1.94,0,0,0-.26.31"/><path class="cls-22" d="M278.1,237.07,254.42,223.5l.29-.29,23.68,13.6-.29.26"/><path class="cls-16" d="M278.39,236.81l-23.68-13.5.36-.24,23.66,13.57-.34.26"/><path class="cls-15" d="M278.73,236.55,255.07,223a1.76,1.76,0,0,1,.45-.24l23.68,13.58-.47.24"/><path class="cls-14" d="M279.2,236.31l-23.68-13.58a2.72,2.72,0,0,1,.74-.21l23.66,13.6a2.26,2.26,0,0,0-.72.19"/></g><path class="cls-23" d="M279.92,236.12a2.38,2.38,0,0,1,2.77,1.93,2.29,2.29,0,0,1,0,.69,3.42,3.42,0,0,1-2.8,3.37,2.38,2.38,0,0,1-2.77-1.93,2.29,2.29,0,0,1,0-.69A3.4,3.4,0,0,1,279.92,236.12Z"/><polygon class="cls-24" points="278.53 234.75 254.85 221.16 257.81 220.77 281.5 234.35 278.53 234.75"/><polygon class="cls-26" points="284.96 228.61 261.28 215.04 261.3 209.23 284.99 222.83 284.96 228.61"/><polygon class="cls-28" points="284.99 222.83 261.3 209.23 264.27 208.85 287.93 222.42 284.99 222.83"/><polygon class="cls-28" points="279.94 229.28 256.26 215.71 261.28 215.04 284.96 228.61 279.94 229.28"/><polygon class="cls-26" points="278.53 234.75 254.85 221.16 254.88 217.47 278.53 231.05 278.53 234.75"/><polygon class="cls-58" points="278.53 231.05 254.88 217.47 254.85 217.43 278.53 231 278.53 231.05"/><path class="cls-23" d="M287.93,222.42v7.39a1.87,1.87,0,0,1-1.56,1.76l-4.78.65v2.13l-3,.38V231a1.72,1.72,0,0,1,1.41-1.72l5-.67V222.8Z"/><g class="cls-59"><path class="cls-18" d="M278.53,231l-23.68-13.57a1.86,1.86,0,0,1,.14-.7l23.66,13.6a2.51,2.51,0,0,0,0,.67"/><path class="cls-19" d="M278.65,230.33,255,216.73a2.25,2.25,0,0,1,.12-.21l23.66,13.57-.12.24"/><path class="cls-20" d="M278.77,230.09l-23.66-13.57a.62.62,0,0,1,.12-.19l23.66,13.57v.19"/><path class="cls-21" d="M279,229.9l-23.66-13.57v-.15L279,229.76l-.14.14"/><path class="cls-22" d="M279,229.76l-23.66-13.62.15-.15,23.68,13.58-.14.14"/><path class="cls-16" d="M279.18,229.62,255.5,216.14l.19-.15,23.66,13.6-.17.12"/><path class="cls-15" d="M279.35,229.5l-23.66-13.6h.21l23.69,13.6h-.24"/><path class="cls-14" d="M279.59,229.38l-23.69-13.6h.36l23.68,13.6a.69.69,0,0,0-.35,0"/></g><g class="cls-60"><polyline class="cls-16" points="298.46 191.81 274.78 178.21 274.81 178.23 298.49 191.81 298.46 191.81"/><path class="cls-15" d="M298.49,191.81l-23.68-13.6H275l23.66,13.6h-.21"/><path class="cls-14" d="M298.7,191.9,275,178.31a1.28,1.28,0,0,0,.55,0H276l23.66,13.57-.39.12a1.69,1.69,0,0,1-.55,0"/><path class="cls-15" d="M299.64,191.83,276,178.26h.19l23.68,13.6h-.21"/><path class="cls-14" d="M299.9,191.74l-23.68-13.6a8.81,8.81,0,0,1,1.88-.55h.34a7.22,7.22,0,0,1,3.2.24l23.66,13.6a7.44,7.44,0,0,0-3.18-.27h-.36a8.72,8.72,0,0,0-1.86.58"/><path class="cls-15" d="M305.3,191.38,281.64,177.9a7.36,7.36,0,0,1,1.29.55L306.61,192a6.5,6.5,0,0,0-1.31-.52"/><path class="cls-16" d="M306.61,191.9l-23.68-13.57h.14l23.69,13.6h-.15"/></g><g class="cls-61"><path class="cls-10" d="M298.47,191.78l-23.69-13.57a1.3,1.3,0,0,1-.31-.26,10.54,10.54,0,0,0-2.7-2.23l23.68,13.6a10.17,10.17,0,0,1,2.68,2.2,1.06,1.06,0,0,0,.34.26"/></g><polygon class="cls-24" points="278.22 222.4 254.54 208.82 286.32 204.62 310.01 218.19 278.22 222.4"/><g class="cls-62"><path class="cls-10" d="M298.47,191.78l-23.69-13.57a1.3,1.3,0,0,1-.31-.26,10.54,10.54,0,0,0-2.7-2.23l23.68,13.6a10.17,10.17,0,0,1,2.68,2.2,1.06,1.06,0,0,0,.34.26"/></g><g class="cls-63"><path class="cls-5" d="M273.59,221.49,249.9,207.92h.17l23.66,13.59h-.14"/><path class="cls-4" d="M273.73,221.59,250.07,208a6.94,6.94,0,0,0,1.32.55l23.68,13.6a9.2,9.2,0,0,1-1.34-.55"/><path class="cls-4" d="M275.07,222.14l-23.68-13.6a7.46,7.46,0,0,0,3.15.26l23.68,13.6a8.16,8.16,0,0,1-3.15-.26"/></g><g class="cls-64"><path class="cls-14" d="M288.57,188l-23.66-13.6a10.89,10.89,0,0,1,4.78.39l23.66,13.57a11.36,11.36,0,0,0-4.78-.36"/><path class="cls-15" d="M293.35,188.39l-23.66-13.57a9.38,9.38,0,0,1,1.91.79l23.66,13.59a11.06,11.06,0,0,0-1.91-.81"/><path class="cls-16" d="M295.24,189.2l-23.66-13.59h.19l23.68,13.59h-.21"/></g><g class="cls-65"><path class="cls-18" d="M273.59,221.49,249.9,207.92a7.45,7.45,0,0,1-3.22-3.88,9.76,9.76,0,0,1,.19-7.17l23.68,13.6a9.76,9.76,0,0,0-.19,7.17,7.41,7.41,0,0,0,3.23,3.85"/><path class="cls-19" d="M270.55,210.57,246.87,197c.21-.48.44-.94.69-1.39l23.69,13.58a10.28,10.28,0,0,0-.7,1.41"/><path class="cls-20" d="M271.25,209.16l-23.69-13.58a10.07,10.07,0,0,1,.74-1.1L272,208.08a10.56,10.56,0,0,0-.71,1.08"/><path class="cls-21" d="M272,208.08l-23.66-13.6a11.06,11.06,0,0,1,.77-.9l23.68,13.57a7.77,7.77,0,0,0-.79.93"/><path class="cls-22" d="M272.75,207.15l-23.68-13.57a11.64,11.64,0,0,1,.88-.84l23.68,13.6a7.48,7.48,0,0,0-.88.81"/><path class="cls-16" d="M273.63,206.34,250,192.74,251,192l23.69,13.59a6.67,6.67,0,0,0-1.06.77"/><path class="cls-15" d="M274.69,205.57,251,192l.55-.32h0l23.69,13.6h-.12l-.53.34"/><path class="cls-16" d="M275.33,205.19l-23.68-13.6.19-.12,23.66,13.58-.17.14"/><path class="cls-22" d="M275.5,205.05l-23.66-13.58.14-.14,23.69,13.57-.17.15"/><path class="cls-21" d="M275.67,204.9,252,191.33l.15-.17,23.68,13.58-.14.16"/><path class="cls-20" d="M275.81,204.74l-23.68-13.58a1.57,1.57,0,0,0,.12-.19l23.68,13.58-.12.19"/><path class="cls-19" d="M275.93,204.55,252.25,191v-.24l23.68,13.58v.24"/><path class="cls-18" d="M276.05,204.31l-23.68-13.58a2,2,0,0,0,.14-.74c0-.21,0-.43,0-.64a15.12,15.12,0,0,1,1.12-5.64l23.69,13.57a15.38,15.38,0,0,0-1.13,5.64v.65a1.58,1.58,0,0,1-.12.74"/><path class="cls-19" d="M277.29,197.28l-23.68-13.57a15.66,15.66,0,0,1,1-2.06l23.69,13.6a15.35,15.35,0,0,0-1,2"/><path class="cls-20" d="M278.3,195.25l-23.69-13.6a18.38,18.38,0,0,1,1.08-1.58l23.66,13.58a15.19,15.19,0,0,0-1.05,1.6"/><path class="cls-21" d="M279.35,193.65l-23.66-13.58a10.27,10.27,0,0,1,1.14-1.33l23.66,13.57c-.4.43-.78.88-1.14,1.34"/><path class="cls-22" d="M280.49,192.24l-23.66-13.58.12-.14c.39-.38.77-.74,1.18-1.07L281.78,191a14.35,14.35,0,0,0-1.14,1.08l-.15.14"/><path class="cls-16" d="M281.78,191.09l-23.65-13.57a13.92,13.92,0,0,1,1.52-1.13L283.31,190a18.52,18.52,0,0,0-1.53,1.1"/><path class="cls-15" d="M283.31,190l-23.66-13.6a16,16,0,0,1,2-1l23.69,13.58a12.4,12.4,0,0,0-2,1.07"/><path class="cls-14" d="M285.35,188.92l-23.69-13.58a12.89,12.89,0,0,1,3.28-.91L288.6,188a12.53,12.53,0,0,0-3.25.89"/></g><g class="cls-66"><path class="cls-10" d="M268.76,221.32l-23.68-13.57a11.57,11.57,0,0,1-1.94-6.57,12.58,12.58,0,0,1,.31-2.8L267.13,212a13.11,13.11,0,0,0-.31,2.79,11.54,11.54,0,0,0,1.94,6.55"/></g><path class="cls-23" d="M288.57,188a10.51,10.51,0,0,1,9.56,3.49,1.26,1.26,0,0,0,1.12.43,1.28,1.28,0,0,0,.43-.14,9.12,9.12,0,0,1,2.08-.65h.36a7.46,7.46,0,0,1,8.35,6.44,6.89,6.89,0,0,1,.06,1.11,1.34,1.34,0,0,0,1.2,1.34,7.56,7.56,0,0,1,6.74,8A10.45,10.45,0,0,1,310,218.24l-31.79,4.21a7.3,7.3,0,0,1-7.86-4.78,10.45,10.45,0,0,1,4.78-12.41,1.78,1.78,0,0,0,1-1.67v-.65a15.65,15.65,0,0,1,4.47-10.75A13.59,13.59,0,0,1,288.57,188Z"/><g class="cls-67"><path class="cls-10" d="M268.76,221.32l-23.68-13.57a11.57,11.57,0,0,1-1.94-6.57,12.58,12.58,0,0,1,.31-2.8L267.13,212a13.11,13.11,0,0,0-.31,2.79,11.54,11.54,0,0,0,1.94,6.55"/></g><g class="cls-68"><path class="cls-9" d="M268.19,208.8l-23.66-13.57a8.8,8.8,0,0,1,.57-1.1l23.68,13.57c-.21.36-.4.74-.59,1.1"/><path class="cls-8" d="M268.78,207.7,245.1,194.13c.29-.51.62-1,1-1.46l23.68,13.6a13.73,13.73,0,0,0-1,1.43"/><path class="cls-7" d="M269.74,206.27l-23.68-13.6c.14-.17.28-.36.45-.53a6.5,6.5,0,0,1,.65-.74L270.81,205c-.2.22-.42.46-.64.72l-.43.55"/><path class="cls-6" d="M270.81,205l-23.65-13.6a11.54,11.54,0,0,1,1.14-1.07L272,203.9a12.29,12.29,0,0,0-1.18,1.1"/><path class="cls-5" d="M272,203.9,248.3,190.33a11.71,11.71,0,0,1,1.22-.91L273.18,203a9.38,9.38,0,0,0-1.19.88"/></g><g class="cls-69"><path class="cls-10" d="M273.18,203l-23.66-13.6a17.85,17.85,0,0,1,.58-4.18l23.68,13.57a20,20,0,0,0-.6,4.21"/></g><g class="cls-70"><path class="cls-4" d="M267.35,208.73l-23.68-13.58h.14a1.1,1.1,0,0,1,.57,0l23.69,13.58a1.42,1.42,0,0,0-.58,0h-.14"/><path class="cls-4" d="M268.07,208.75l-23.69-13.57h.15l23.66,13.57h-.12"/></g><g class="cls-71"><path class="cls-9" d="M275.19,195.08l-23.68-13.57c.21-.43.43-.86.66-1.27l23.69,13.58c-.24.43-.48.83-.67,1.26"/><path class="cls-8" d="M275.86,193.82l-23.69-13.53a18.66,18.66,0,0,1,1.32-2l23.68,13.57a23,23,0,0,0-1.31,2"/><path class="cls-7" d="M277.17,191.86l-23.68-13.58a21.25,21.25,0,0,1,1.43-1.69l23.66,13.59a16.08,16.08,0,0,0-1.41,1.68"/><path class="cls-6" d="M278.58,190.18l-23.66-13.59a16,16,0,0,1,1.6-1.49l23.66,13.58c-.55.48-1.07,1-1.6,1.5"/><path class="cls-5" d="M280.18,188.68,256.52,175.1a18.28,18.28,0,0,1,1.89-1.38l23.68,13.57a21.64,21.64,0,0,0-1.91,1.39"/><path class="cls-4" d="M282.09,187.29l-23.68-13.57a16.56,16.56,0,0,1,2.53-1.34L284.6,186a18.71,18.71,0,0,0-2.51,1.31"/><path class="cls-4" d="M284.6,186l-23.66-13.6a16.24,16.24,0,0,1,4-1.1l1.08-.12,23.68,13.6h-1.07a16.39,16.39,0,0,0-4.07,1.12"/></g><g class="cls-72"><path class="cls-4" d="M258.36,223.31l-23.68-13.58a87.68,87.68,0,0,0,10.4-2l23.68,13.57a83.51,83.51,0,0,1-10.4,2.06"/></g><polygon class="cls-10" points="289.74 184.76 266.06 171.18 266.08 152.28 289.77 165.85 289.74 184.76"/><g class="cls-73"><path class="cls-16" d="M275.07,187l-23.66-13.6h0L275.07,187h0"/><path class="cls-15" d="M275.14,187l-23.66-13.57.62.26,23.69,13.58a3.71,3.71,0,0,1-.65-.27"/><path class="cls-14" d="M275.79,187.27,252.1,173.69a3.75,3.75,0,0,0,1.56.12l23.68,13.65a3.69,3.69,0,0,1-1.55-.12"/></g><g class="cls-74"><path class="cls-14" d="M277.34,187.46l-23.68-13.58a4.44,4.44,0,0,0,1.07-.28l23.66,13.57a4.31,4.31,0,0,1-1.05.29"/><path class="cls-15" d="M278.39,187.1l-23.66-13.57a4.32,4.32,0,0,0,.67-.36l23.66,13.57a3.91,3.91,0,0,1-.67.36"/><path class="cls-16" d="M279,186.74l-23.66-13.57.5-.36,23.66,13.57a1.64,1.64,0,0,1-.5.36"/><path class="cls-22" d="M279.56,186.38,255.9,172.81l.43-.41L280,186a2,2,0,0,1-.43.4"/><path class="cls-21" d="M280,186,256.33,172.4l.36-.45,23.68,13.6L280,186"/><path class="cls-20" d="M280.37,185.55,256.69,172a2.75,2.75,0,0,0,.36-.53L280.73,185l-.36.53"/><path class="cls-19" d="M280.73,185.07l-23.68-13.6a5,5,0,0,0,.45-.74l23.69,13.57a6.44,6.44,0,0,1-.34.7"/><path class="cls-18" d="M281.07,184.33l-23.57-13.6a4.57,4.57,0,0,0,.36-1.86,3.78,3.78,0,0,0-1.81-3.4l23.66,13.58a3.85,3.85,0,0,1,1.84,3.41,5.24,5.24,0,0,1-.36,1.84"/></g><g class="cls-75"><polyline class="cls-5" points="276.72 184.14 253.03 170.54 253.06 170.56 276.74 184.14 276.72 184.14"/><path class="cls-4" d="M276.74,184.14l-23.68-13.6h.17l23.68,13.6h-.17"/><path class="cls-4" d="M276.91,184.21l-23.68-13.48a1.55,1.55,0,0,0,.43,0h.28l23.69,13.6h-.29a1.55,1.55,0,0,1-.43,0"/><path class="cls-4" d="M277.63,184.16l-23.69-13.6a.31.31,0,0,0,.19,0l23.69,13.6h-.19"/><path class="cls-5" d="M277.82,184.07l-23.69-13.6h.15L277.94,184l-.12.12"/><path class="cls-6" d="M277.94,184l-23.66-13.58v-.12l23.66,13.6h0"/><path class="cls-7" d="M278.06,183.85l-23.66-13.6v-.12l23.68,13.6-.12.12"/><path class="cls-8" d="M278.18,183.73l-23.69-13.6V170l23.69,13.57v.17"/><path class="cls-9" d="M278.27,183.56,254.59,170a.61.61,0,0,0,0-.19l23.68,13.6a.43.43,0,0,1,0,.16"/><path class="cls-10" d="M278.37,183.4l-23.69-13.6a1.46,1.46,0,0,0,.12-.5,1.09,1.09,0,0,0-.52-1L278,181.94a1,1,0,0,1,.5.93,1.19,1.19,0,0,1,0,.53"/></g><g class="cls-76"><path class="cls-14" d="M277.34,181.82l-23.68-13.48a.79.79,0,0,1,.43,0l23.68,13.57a1.55,1.55,0,0,0-.43,0"/><path class="cls-15" d="M277.77,181.84l-23.68-13.5h.19l23.66,13.57h-.17"/><polyline class="cls-16" points="277.94 181.94 254.28 168.34 254.28 168.36 277.96 181.94 277.94 181.94"/></g><g class="cls-77"><path class="cls-18" d="M276.62,184.11l-23.68-13.57a1.67,1.67,0,0,1-.5-1.46l23.68,13.58a1.17,1.17,0,0,0-.12.52,1,1,0,0,0,.53.93"/><path class="cls-19" d="M276.31,182.68l-23.59-13.6v-.19l23.66,13.6v.17"/><path class="cls-20" d="M276.38,182.49l-23.66-13.6v-.14l23.66,13.59v.15"/><path class="cls-21" d="M276.48,182.34l-23.66-13.59v-.12l23.8,13.57-.12.14"/><path class="cls-22" d="M276.62,182.2l-23.68-13.57v-.12l23.68,13.6h0"/><path class="cls-16" d="M276.62,182.11l-23.68-13.6h.14l23.69,13.57-.15.12"/><path class="cls-15" d="M276.86,182l-23.68-13.65h.19l23.68,13.57h-.19"/><path class="cls-14" d="M277.05,181.89l-23.68-13.55h.29l23.68,13.57h-.29"/></g><path class="cls-23" d="M277.34,181.82a1,1,0,0,1,1.12.87,1.08,1.08,0,0,1,0,.18,1.35,1.35,0,0,1-1.12,1.36,1,1,0,0,1-1.14-.85,1.27,1.27,0,0,1,0-.2A1.4,1.4,0,0,1,277.34,181.82Z"/><g class="cls-78"><path class="cls-15" d="M282.07,171.33l-23.68-13.6a30.39,30.39,0,0,0,2.77-1.58l23.68,13.58c-.86.55-1.79,1.07-2.77,1.6"/><path class="cls-16" d="M284.84,169.73l-23.68-13.58a25.4,25.4,0,0,0,3.18-2.39L288,167.36a32.19,32.19,0,0,1-3.18,2.39"/><path class="cls-22" d="M288,167.43l-23.68-13.6c.62-.52,1.22-1.05,1.74-1.57L289.77,166c-.55.53-1.13,1.05-1.75,1.58"/></g><g class="cls-79"><polyline class="cls-16" points="245.79 214.2 222.11 200.6 222.13 200.63 245.82 214.2 245.79 214.2"/><path class="cls-15" d="M245.82,214.2l-23.69-13.6h.24l23.69,13.6h-.24"/><path class="cls-14" d="M246.06,214.3l-23.69-13.6a.73.73,0,0,0,.36,0,81.79,81.79,0,0,0,11.81-.74,84.13,84.13,0,0,0,8.91-1.65l23.68,13.6c-2.91.69-5.9,1.24-8.91,1.65a83.71,83.71,0,0,1-12,.71h-.33"/></g><g class="cls-80"><path class="cls-4" d="M246.22,211.36l-23.66-13.6h.58a80.82,80.82,0,0,0,11.21-.69h.19a88.43,88.43,0,0,0,9.13-1.72l23.68,13.57a88.43,88.43,0,0,1-9.13,1.72H258a81.11,81.11,0,0,1-11.23.69h-.19l-.39.12"/></g><g class="cls-81"><path class="cls-10" d="M275.07,187l-23.66-13.6a3.76,3.76,0,0,1-1.84-3.39,5.35,5.35,0,0,1,.36-1.86l23.68,13.59a4.86,4.86,0,0,0-.36,1.84,3.85,3.85,0,0,0,1.82,3.42"/><path class="cls-9" d="M273.61,181.72l-23.68-13.59c0-.22.21-.46.33-.67L274,181.05a6,6,0,0,0-.34.67"/><path class="cls-8" d="M274,181.05l-23.62-13.59.36-.53,23.66,13.6a3.51,3.51,0,0,0-.33.52"/><path class="cls-7" d="M274.23,180.53l-23.66-13.6c0-.14.24-.31.39-.45l23.65,13.59c-.11.15-.26.29-.38.46"/><path class="cls-6" d="M274.66,180.07,251,166.48a4.12,4.12,0,0,1,.43-.41l23.66,13.6-.43.4"/><path class="cls-5" d="M275.09,179.67l-23.66-13.6.51-.36,23.68,13.58-.53.38"/><path class="cls-4" d="M275.62,179.29l-23.68-13.58a4.22,4.22,0,0,1,.66-.36L276.29,179l-.67.34"/><path class="cls-4" d="M276.29,179l-23.57-13.6a4.09,4.09,0,0,1,1.08-.28,3.61,3.61,0,0,1,1.53.12L279,178.76a3.69,3.69,0,0,0-1.55-.12,5.5,5.5,0,0,0-1,.31"/><path class="cls-4" d="M279,178.76l-23.9-13.57a3,3,0,0,1,.65.26L279.42,179l-.62-.26"/><path class="cls-5" d="M279.51,179l-23.66-13.57h0L279.51,179h0"/></g><path class="cls-82" d="M277.34,187.46a3.61,3.61,0,0,1-4.06-3.09,3.57,3.57,0,0,1,0-.73,5,5,0,0,1,4.09-4.93,3.63,3.63,0,0,1,4.06,3.14,4.22,4.22,0,0,1,0,.71A5,5,0,0,1,277.34,187.46Zm0-5.57a1.41,1.41,0,0,0-1.15,1.36,1,1,0,0,0,.95,1.06.69.69,0,0,0,.2,0,1.35,1.35,0,0,0,1.12-1.36,1,1,0,0,0-.94-1.06h-.18"/><g class="cls-83"><path class="cls-14" d="M267.71,188.13,244,174.55h.26L268,188.13h-.24"/><path class="cls-15" d="M268,188.06l-23.66-13.58.24-.14,23.66,13.6-.24.12"/><path class="cls-16" d="M268.19,187.94l-23.66-13.6.16-.12,23.69,13.57-.19.15"/><path class="cls-22" d="M268.38,187.79l-23.69-13.57.17-.14,23.66,13.57-.14.14"/><path class="cls-21" d="M268.52,187.65l-23.66-13.57v-.17l23.68,13.6-.14.14"/><path class="cls-20" d="M268.66,187.46,245,173.86a.62.62,0,0,0,.12-.19l23.68,13.6a.76.76,0,0,1-.12.19"/><path class="cls-19" d="M268.78,187.32l-23.68-13.6a1.08,1.08,0,0,0,.12-.24l23.68,13.6a1.34,1.34,0,0,1-.12.24"/><path class="cls-18" d="M268.9,187.08l-23.68-13.6a1.61,1.61,0,0,0,.14-.84,1.31,1.31,0,0,0-.67-1l23.69,13.57a1.29,1.29,0,0,1,.64,1.06,1.57,1.57,0,0,1,0,.86"/></g><g class="cls-84"><path class="cls-4" d="M268.11,185.07l-23.65-13.58h.21l23.68,13.58h-.24"/><polyline class="cls-5" points="268.35 185.16 244.67 171.57 244.69 171.59 268.38 185.16 268.35 185.16"/></g><g class="cls-85"><path class="cls-15" d="M186.26,309.05,162.6,295.48A110.74,110.74,0,0,0,183.06,304l23.68,13.58a109.32,109.32,0,0,1-20.48-8.56"/><path class="cls-14" d="M206.74,317.61,183.06,304a117.93,117.93,0,0,0,49.9,3.83l23.66,13.57a117.51,117.51,0,0,1-49.88-3.82"/></g><polygon class="cls-10" points="289.77 159.86 266.11 146.26 266.13 128.19 289.81 141.79 289.77 159.86"/><g class="cls-86"><path class="cls-4" d="M246.22,211.36l-23.66-13.6h.58a80.82,80.82,0,0,0,11.21-.69h.19a88.43,88.43,0,0,0,9.13-1.72l23.68,13.57a88.43,88.43,0,0,1-9.13,1.72H258a81.11,81.11,0,0,1-11.23.69h-.19l-.39.12"/></g><g class="cls-87"><path class="cls-16" d="M228.47,199.41l-23.69-13.58.43.24,23.66,13.58-.4-.24"/><path class="cls-15" d="M228.83,199.55,205.17,186a23.61,23.61,0,0,0,4.2,1.72L233,201.3a23,23,0,0,1-4.2-1.75"/><path class="cls-14" d="M233.08,201.3l-23.66-13.6,1.36.38a65.24,65.24,0,0,0,23.76.67h.28a87,87,0,0,0,15.28-3.49l23.68,13.57a83.53,83.53,0,0,1-15.3,3.49h-.28a65.68,65.68,0,0,1-23.76-.67l-1.36-.38"/></g><g class="cls-88"><path class="cls-5" d="M230.09,196.52l-23.68-13.58.31.17,23.68,13.6-.31-.19"/><path class="cls-4" d="M230.4,196.71l-23.68-13.6a20.51,20.51,0,0,0,3.68,1.48l23.68,13.6a20.51,20.51,0,0,1-3.68-1.48"/><path class="cls-4" d="M234.08,198.19l-23.68-13.6a59.38,59.38,0,0,0,24.11,1,78.32,78.32,0,0,0,17-4.08l23.68,13.57a79,79,0,0,1-17,4.09,59.79,59.79,0,0,1-24.12-1"/></g><g class="cls-89"><polyline class="cls-16" points="245.84 190.49 222.16 176.92 222.18 176.92 245.87 190.52 245.84 190.49"/><path class="cls-15" d="M245.87,190.49l-23.69-13.57h.24l23.66,13.57h-.21"/><path class="cls-14" d="M246.08,190.59,222.42,177h.34a80.72,80.72,0,0,0,11.63-.72h.2a86.24,86.24,0,0,0,9.55-1.77l23.69,13.57a86.08,86.08,0,0,1-9.56,1.8h-.19a85.49,85.49,0,0,1-11.64.71h-.36"/></g><g class="cls-90"><path class="cls-4" d="M246.27,187.58,222.59,174h.6a80.49,80.49,0,0,0,11.4-.69,89.31,89.31,0,0,0,9.15-1.72h.14a1.42,1.42,0,0,1,.58,0l23.65,13.57a1,1,0,0,0-.55,0h-.16a85.85,85.85,0,0,1-9.13,1.72,79.45,79.45,0,0,1-11.43.69h-.19l-.38.12"/></g><g class="cls-91"><path class="cls-4" d="M246.27,187.58,222.59,174h.6a80.49,80.49,0,0,0,11.4-.69,89.31,89.31,0,0,0,9.15-1.72h.14a1.42,1.42,0,0,1,.58,0l23.65,13.57a1,1,0,0,0-.55,0h-.16a85.85,85.85,0,0,1-9.13,1.72,79.45,79.45,0,0,1-11.43.69h-.19l-.38.12"/></g><g class="cls-92"><path class="cls-4" d="M246.27,187.58,222.59,174h.6a80.49,80.49,0,0,0,11.4-.69,89.31,89.31,0,0,0,9.15-1.72h.14a1.42,1.42,0,0,1,.58,0l23.65,13.57a1,1,0,0,0-.55,0h-.16a85.85,85.85,0,0,1-9.13,1.72,79.45,79.45,0,0,1-11.43.69h-.19l-.38.12"/></g><g class="cls-93"><path class="cls-4" d="M246.27,187.58,222.59,174h.6a80.49,80.49,0,0,0,11.4-.69,89.31,89.31,0,0,0,9.15-1.72h.14a1.42,1.42,0,0,1,.58,0l23.65,13.57a1,1,0,0,0-.55,0h-.16a85.85,85.85,0,0,1-9.13,1.72,79.45,79.45,0,0,1-11.43.69h-.19l-.38.12"/></g><g class="cls-94"><path class="cls-16" d="M228.49,175.25l-23.56-13.58.43.24,23.47,13.6-.41-.24"/><path class="cls-15" d="M228.83,175.51l-23.66-13.57a23.14,23.14,0,0,0,4.25,1.74l23.68,13.6a23.44,23.44,0,0,1-4.27-1.77"/><path class="cls-14" d="M233.18,177.25l-23.69-13.69,1.32.38a66.46,66.46,0,0,0,23.78.67,79.72,79.72,0,0,0,20.19-5.28l23.66,13.6a81.15,81.15,0,0,1-20.2,5.26,65.85,65.85,0,0,1-23.75-.67l-1.31-.36"/><path class="cls-15" d="M278.44,173.12l-23.66-13.6c1.27-.52,2.39-1.1,3.61-1.69l23.68,13.59c-1.15.6-2.39,1.15-3.63,1.7"/></g><g class="cls-95"><path class="cls-5" d="M230.14,172.45l-23.68-13.67.31.17,23.68,13.6-.31-.19"/><path class="cls-4" d="M230.45,172.64,206.77,159a21,21,0,0,0,3.68,1.49l23.68,13.59a19.8,19.8,0,0,1-3.68-1.48"/><path class="cls-4" d="M234.13,174.12l-23.68-13.59a59.63,59.63,0,0,0,24.16,1,75.78,75.78,0,0,0,19.36-5l23.66,13.59a76,76,0,0,1-19.36,5,59.89,59.89,0,0,1-24.14-1"/><path class="cls-4" d="M277.63,170.08,254,156.49a45.19,45.19,0,0,0,6.19-3.18l23.63,13.6a42.7,42.7,0,0,1-6.21,3.17"/><path class="cls-5" d="M283.79,166.91l-23.68-13.6a26.2,26.2,0,0,0,2.58-1.84L286.35,165a27.47,27.47,0,0,1-2.56,1.87"/><path class="cls-6" d="M286.4,165l-23.66-13.57a17.11,17.11,0,0,0,1.31-1.24l23.68,13.59A11.8,11.8,0,0,1,286.4,165"/><path class="cls-7" d="M287.73,163.82l-23.68-13.59a10.3,10.3,0,0,0,.81-.94l23.69,13.58a11,11,0,0,1-.82.95"/><path class="cls-8" d="M288.57,162.87l-23.71-13.65a6.08,6.08,0,0,0,.55-.81L289.1,162a9,9,0,0,1-.55.82"/><path class="cls-9" d="M289.1,162.05l-23.69-13.57a3.87,3.87,0,0,0,.39-.79l23.68,13.58a7,7,0,0,1-.38.78"/><path class="cls-10" d="M289.48,161.17,265.8,147.6a3.76,3.76,0,0,0,.31-1.44l23.68,13.58a4.42,4.42,0,0,1-.31,1.43"/></g><g class="cls-96"><path class="cls-16" d="M275.12,163.27l-23.66-13.59h0l23.66,13.59h0"/><path class="cls-15" d="M275.19,163.32l-23.66-13.6a2.84,2.84,0,0,0,.62.27l23.68,13.59a5,5,0,0,1-.64-.26"/><path class="cls-14" d="M275.83,163.56,252.15,150a3.69,3.69,0,0,0,1.55.12l23.69,13.6a3.75,3.75,0,0,1-1.56-.12"/></g><g class="cls-97"><path class="cls-14" d="M277.39,163.7,253.7,150.11a4.54,4.54,0,0,0,1.08-.29l23.66,13.57a4,4,0,0,1-1.05.31"/><path class="cls-15" d="M278.44,163.39l-23.66-13.57.64-.36,23.69,13.6-.67.33"/><path class="cls-16" d="M279,163.06l-23.68-13.6a2.68,2.68,0,0,0,.52-.36l23.66,13.58-.5.38"/><path class="cls-22" d="M279.61,162.68,256,149.1l.41-.4L280,162.29l-.43.39"/><path class="cls-21" d="M280,162.29,256.36,148.7a4.22,4.22,0,0,0,.38-.46l23.68,13.6c-.12.14-.24.31-.38.45"/><path class="cls-20" d="M280.42,161.84l-23.68-13.6a2.68,2.68,0,0,0,.36-.52l23.68,13.59-.36.53"/><path class="cls-19" d="M280.78,161.31,257.1,147.72c.12-.22.23-.44.33-.67l23.66,13.59a3.72,3.72,0,0,1-.31.67"/><path class="cls-18" d="M281.09,160.64l-23.66-13.59a4.86,4.86,0,0,0,.36-1.84,3.83,3.83,0,0,0-1.84-3.42l23.68,13.57a3.87,3.87,0,0,1,1.77,3.42,4.76,4.76,0,0,1-.38,1.86"/></g><g class="cls-98"><polyline class="cls-5" points="276.77 160.43 253.08 146.83 253.11 146.86 276.77 160.43 276.77 160.43"/><path class="cls-4" d="M276.77,160.43l-23.66-13.6h.16L277,160.43h-.19"/><path class="cls-4" d="M277,160.5l-23.69-13.67a1,1,0,0,0,.43,0H254l23.68,13.6h-.28a1,1,0,0,1-.43,0"/><path class="cls-4" d="M277.67,160.45,254,146.83h.19l23.68,13.6h-.19"/><path class="cls-5" d="M277.86,160.36l-23.68-13.53h.15L278,160.41l-.15.12"/><path class="cls-6" d="M278,160.24l-23.68-13.58.11-.11,23.69,13.59h0"/><path class="cls-7" d="M278.13,160.14l-23.69-13.59v-.12L278.13,160v.12"/><path class="cls-8" d="M278.22,160l-23.68-13.59a.38.38,0,0,0,0-.15l23.68,13.58a.43.43,0,0,1,0,.16"/><path class="cls-9" d="M278.32,159.86l-23.68-13.58a.61.61,0,0,0,0-.19l23.68,13.6v.17"/><path class="cls-10" d="M278.41,159.69l-23.68-13.6a1.67,1.67,0,0,0-.5-1.46l23.68,13.6a1.07,1.07,0,0,1,.5.93,1.19,1.19,0,0,1,0,.53"/></g><g class="cls-99"><path class="cls-14" d="M277.39,158.11,253.7,144.44a1.55,1.55,0,0,1,.43,0L277.79,158a.9.9,0,0,0-.4,0"/><path class="cls-15" d="M277.79,158.14l-23.66-13.58h.17L278,158.14h-.19"/><polyline class="cls-16" points="277.98 158.23 254.3 144.63 254.32 144.66 278.01 158.23 277.98 158.23"/></g><g class="cls-100"><path class="cls-18" d="M276.74,160.41l-23.66-13.58a1.06,1.06,0,0,1-.5-.93,1.19,1.19,0,0,1,0-.53L276.26,159a1.4,1.4,0,0,0,0,.5,1.06,1.06,0,0,0,.51.94"/><path class="cls-19" d="M276.36,159l-23.64-13.6v-.19l23.66,13.6V159"/><path class="cls-20" d="M276.43,158.78l-23.66-13.6a.33.33,0,0,1,0-.14l23.68,13.6-.11.14"/><path class="cls-21" d="M276.62,158.64,252.94,145v-.12l23.68,13.57v.15"/><path class="cls-22" d="M276.62,158.49l-23.68-13.57.12-.12,23.68,13.6h-.12"/><path class="cls-16" d="M276.77,158.4l-23.69-13.6h.15l23.68,13.57h-.14"/><path class="cls-15" d="M276.91,158.28,253.23,144.7h.19l23.68,13.58h-.19"/><path class="cls-14" d="M277.1,158.18l-23.68-13.57h.28l23.69,13.6h-.29"/></g><path class="cls-23" d="M277.39,158.11a1,1,0,0,1,1.11.88,1,1,0,0,1,0,.17,1.38,1.38,0,0,1-1.12,1.37,1,1,0,0,1-1.14-.91.76.76,0,0,1,0-.15A1.38,1.38,0,0,1,277.39,158.11Z"/><g class="cls-101"><path class="cls-10" d="M245.79,214.18,222.11,200.6a1.44,1.44,0,0,1-.64-1.45,2.37,2.37,0,0,1,.11-.46l23.69,13.6a1.55,1.55,0,0,0,0,.43,1.42,1.42,0,0,0,.64,1.46"/></g><g class="cls-102"><path class="cls-10" d="M245.79,214.18,222.11,200.6a1.44,1.44,0,0,1-.64-1.45,2.37,2.37,0,0,1,.11-.46l23.69,13.6a1.55,1.55,0,0,0,0,.43,1.42,1.42,0,0,0,.64,1.46"/><path class="cls-9" d="M245.27,212.29l-23.61-13.6a.3.3,0,0,1,.12-.24l23.68,13.6a.55.55,0,0,0-.12.24"/><path class="cls-8" d="M245.39,212.05l-23.73-13.6.14-.19,23.66,13.6a.61.61,0,0,0,0,.19"/><path class="cls-7" d="M245.55,211.86l-23.65-13.6v-.17l23.68,13.6-.14.17"/><path class="cls-6" d="M245.55,211.69l-23.68-13.6L222,198l23.66,13.6-.15.14"/><path class="cls-5" d="M245.79,211.55,222.13,198l.17-.12L246,211.4l-.19.15"/><path class="cls-4" d="M246,211.36,222.3,197.78l.26-.14,23.66,13.6H246"/><path class="cls-4" d="M246.22,211.36l-23.66-13.6h.58a80.82,80.82,0,0,0,11.21-.69h.19a88.43,88.43,0,0,0,9.13-1.72l23.68,13.57a88.43,88.43,0,0,1-9.13,1.72H258a81.11,81.11,0,0,1-11.23.69h-.19l-.39.12"/></g><g class="cls-103"><path class="cls-15" d="M282.12,147.26l-23.68-13.57c1-.53,1.91-1.05,2.77-1.6l23.68,13.59c-.86.53-1.79,1.06-2.77,1.58"/><path class="cls-16" d="M284.89,145.68l-23.68-13.59a32.19,32.19,0,0,0,3.18-2.39l23.66,13.57a33.15,33.15,0,0,1-3.16,2.39"/><path class="cls-22" d="M288.05,143.37l-23.66-13.58c.62-.52,1.19-1,1.74-1.6l23.68,13.6c-.55.52-1.14,1.05-1.76,1.58"/></g><g class="cls-104"><path class="cls-10" d="M275.12,163.27l-23.66-13.59a3.75,3.75,0,0,1-1.84-3.4,4.93,4.93,0,0,1,.36-1.86L273.66,158a4.83,4.83,0,0,0-.36,1.84,3.79,3.79,0,0,0,1.82,3.41"/><path class="cls-9" d="M273.66,158,250,144.44c0-.21.21-.45.33-.67L274,157.37a4.17,4.17,0,0,0-.33.67"/><path class="cls-8" d="M274,157.35l-23.66-13.6a4.93,4.93,0,0,1,.36-.53l23.66,13.6a3.61,3.61,0,0,0-.33.53"/><path class="cls-7" d="M274.23,156.82l-23.66-13.6a5.21,5.21,0,0,1,.39-.45l23.65,13.6c0,.14-.26.28-.38.45"/><path class="cls-6" d="M274.71,156.39l-23.66-13.6a2.6,2.6,0,0,1,.43-.38L275.14,156l-.43.41"/><path class="cls-5" d="M275.14,156l-23.66-13.57a2.69,2.69,0,0,1,.5-.39l23.66,13.6c-.16,0-.33.24-.5.36"/><path class="cls-4" d="M275.64,155.6,252,142l.67-.33,23.66,13.57a4.83,4.83,0,0,0-.67.36"/><path class="cls-4" d="M276.31,155.24l-23.66-13.57a4.05,4.05,0,0,1,1.08-.31,3.61,3.61,0,0,1,1.53.12l23.68,13.6a3.69,3.69,0,0,0-1.55-.12,4.52,4.52,0,0,0-1.08.28"/><path class="cls-4" d="M279,155.08l-23.68-13.6.64.26,23.66,13.6a2.62,2.62,0,0,0-.62-.26"/><path class="cls-5" d="M279.56,155.34l-23.66-13.6h0l23.69,13.58h0"/></g><g class="cls-105"><path class="cls-14" d="M267.76,164.44l-23.69-13.59a.41.41,0,0,0,.22,0L268,164.44h-.21"/><path class="cls-15" d="M268,164.37l-23.68-13.6h.26l23.66,13.58-.24.14"/><path class="cls-16" d="M268.21,164.23l-23.66-13.57.17-.15,23.68,13.6h-.19"/><path class="cls-22" d="M268.4,164.11l-23.68-13.6.17-.14L268.57,164l-.17.14"/><path class="cls-21" d="M268.57,164l-23.68-13.6.14-.17,23.66,13.6-.12.17"/><path class="cls-20" d="M268.69,163.8,245,150.2l.12-.19,23.68,13.6-.14.19"/><path class="cls-19" d="M268.83,163.56,245.15,150a1,1,0,0,0,0-.24l23.68,13.6v.24"/><path class="cls-18" d="M269,163.37l-23.68-13.6a1.86,1.86,0,0,0,.12-.81,1.34,1.34,0,0,0-.67-1.08l23.68,13.58a1.4,1.4,0,0,1,.67,1.07,2,2,0,0,1-.12.84"/></g><g class="cls-106"><path class="cls-4" d="M268.14,161.34l-23.66-13.58h.21l23.69,13.58h-.24"/><polyline class="cls-5" points="268.38 161.46 244.69 147.86 244.72 147.88 268.4 161.48 268.38 161.46"/></g><g class="cls-107"><path class="cls-4" d="M246.32,163.87,222.64,150.3l.38-.12h.21a76.36,76.36,0,0,0,11.21-.7h.19a81.61,81.61,0,0,0,9.16-1.72h.14a1.69,1.69,0,0,1,.55,0l23.66,13.58a1.28,1.28,0,0,0-.55,0h-.14a88.43,88.43,0,0,1-9.13,1.72h-.22a80.71,80.71,0,0,1-11.21.67h-.19a.81.81,0,0,0-.38,0"/><path class="cls-4" d="M268.14,161.34l-23.66-13.58h.21l23.69,13.58h-.24"/></g><g class="cls-108"><polyline class="cls-16" points="245.87 166.79 222.21 153.21 222.23 153.21 245.89 166.81 245.87 166.79"/><path class="cls-15" d="M245.89,166.79l-23.66-13.58h.21l23.69,13.58h-.24"/><path class="cls-14" d="M246.13,166.88l-23.69-13.57h.36a82.29,82.29,0,0,0,11.95-.72,91.31,91.31,0,0,0,9.44-1.79l23.69,13.6a88.18,88.18,0,0,1-21.27,2.51h-.36"/></g><g class="cls-109"><path class="cls-4" d="M246.32,163.87,222.64,150.3l.38-.12h.21a76.36,76.36,0,0,0,11.21-.7h.19a81.61,81.61,0,0,0,9.16-1.72h.14a1.69,1.69,0,0,1,.55,0l23.66,13.58a1.28,1.28,0,0,0-.55,0h-.14a88.43,88.43,0,0,1-9.13,1.72h-.22a80.71,80.71,0,0,1-11.21.67h-.19a.81.81,0,0,0-.38,0"/></g><g class="cls-110"><path class="cls-4" d="M246.32,163.87,222.64,150.3l.38-.12h.21a76.36,76.36,0,0,0,11.21-.7h.19a81.61,81.61,0,0,0,9.16-1.72h.14a1.69,1.69,0,0,1,.55,0l23.66,13.58a1.28,1.28,0,0,0-.55,0h-.14a88.43,88.43,0,0,1-9.13,1.72h-.22a80.71,80.71,0,0,1-11.21.67h-.19a.81.81,0,0,0-.38,0"/></g><g class="cls-111"><path class="cls-4" d="M246.32,163.87,222.64,150.3l.38-.12h.21a76.36,76.36,0,0,0,11.21-.7h.19a81.61,81.61,0,0,0,9.16-1.72h.14a1.69,1.69,0,0,1,.55,0l23.66,13.58a1.28,1.28,0,0,0-.55,0h-.14a88.43,88.43,0,0,1-9.13,1.72h-.22a80.71,80.71,0,0,1-11.21.67h-.19a.81.81,0,0,0-.38,0"/></g><g class="cls-112"><path class="cls-4" d="M246.32,163.87,222.64,150.3l.38-.12h.21a76.36,76.36,0,0,0,11.21-.7h.19a81.61,81.61,0,0,0,9.16-1.72h.14a1.69,1.69,0,0,1,.55,0l23.66,13.58a1.28,1.28,0,0,0-.55,0h-.14a88.43,88.43,0,0,1-9.13,1.72h-.22a80.71,80.71,0,0,1-11.21.67h-.19a.81.81,0,0,0-.38,0"/></g><g class="cls-113"><path class="cls-16" d="M228.56,151.21l-23.63-13.6.4.24L229,151.44l-.41-.23"/><path class="cls-15" d="M229,151.44l-23.68-13.59a23,23,0,0,0,4.2,1.74l23.69,13.57a22,22,0,0,1-4.21-1.72"/><path class="cls-14" d="M233.18,153.16l-23.69-13.5,1.36.38a65.78,65.78,0,0,0,23.9.67,80.64,80.64,0,0,0,20.15-5.25L278.58,149a78.61,78.61,0,0,1-20.17,5.26,65.41,65.41,0,0,1-23.75-.67l-1.37-.38"/><path class="cls-15" d="M278.46,149l-23.68-13.58c1.29-.55,2.39-1.09,3.66-1.69l23.68,13.57c-1.17.6-2.39,1.17-3.66,1.7"/></g><g class="cls-114"><path class="cls-4" d="M246.32,163.87,222.64,150.3l.38-.12h.21a76.36,76.36,0,0,0,11.21-.7h.19a81.61,81.61,0,0,0,9.16-1.72h.14a1.69,1.69,0,0,1,.55,0l23.66,13.58a1.28,1.28,0,0,0-.55,0h-.14a88.43,88.43,0,0,1-9.13,1.72h-.22a80.71,80.71,0,0,1-11.21.67h-.19a.81.81,0,0,0-.38,0"/></g><g class="cls-115"><path class="cls-4" d="M246.32,163.87,222.64,150.3l.38-.12h.21a76.36,76.36,0,0,0,11.21-.7h.19a81.61,81.61,0,0,0,9.16-1.72h.14a1.69,1.69,0,0,1,.55,0l23.66,13.58a1.28,1.28,0,0,0-.55,0h-.14a88.43,88.43,0,0,1-9.13,1.72h-.22a80.71,80.71,0,0,1-11.21.67h-.19a.81.81,0,0,0-.38,0"/></g><g class="cls-116"><path class="cls-4" d="M246.32,163.87,222.64,150.3l.38-.12h.21a76.36,76.36,0,0,0,11.21-.7h.19a81.61,81.61,0,0,0,9.16-1.72h.14a1.69,1.69,0,0,1,.55,0l23.66,13.58a1.28,1.28,0,0,0-.55,0h-.14a88.43,88.43,0,0,1-9.13,1.72h-.22a80.71,80.71,0,0,1-11.21.67h-.19a.81.81,0,0,0-.38,0"/></g><g class="cls-117"><path class="cls-10" d="M245.87,166.79l-23.66-13.6a1.42,1.42,0,0,1-.67-1.44,1.88,1.88,0,0,1,.12-.45l23.68,13.57a3.53,3.53,0,0,0,0,.46,1.48,1.48,0,0,0,.64,1.46"/></g><g class="cls-118"><path class="cls-10" d="M245.87,166.79l-23.66-13.6a1.42,1.42,0,0,1-.67-1.44,1.88,1.88,0,0,1,.12-.45l23.68,13.57a3.53,3.53,0,0,0,0,.46,1.48,1.48,0,0,0,.64,1.46"/><path class="cls-9" d="M245.34,164.87,221.66,151.3l.12-.24,23.68,13.58-.12.23"/><path class="cls-8" d="M245.55,164.64l-23.68-13.58.14-.19,23.66,13.57a.67.67,0,0,1,0,.2"/><path class="cls-7" d="M245.55,164.44,221.9,150.87l.14-.17,23.66,13.58-.15.16"/><path class="cls-6" d="M245.72,164.28,222.06,150.7l.15-.14,23.68,13.57-.17.15"/><path class="cls-5" d="M245.89,164.13l-23.68-13.57.19-.14L246.06,164l-.17.14"/><path class="cls-4" d="M246.06,164,222.4,150.42l.24-.12,23.68,13.57-.26.12"/><path class="cls-4" d="M246.32,163.87,222.64,150.3l.38-.12h.21a76.36,76.36,0,0,0,11.21-.7h.19a81.61,81.61,0,0,0,9.16-1.72h.14a1.69,1.69,0,0,1,.55,0l23.66,13.58a1.28,1.28,0,0,0-.55,0h-.14a88.43,88.43,0,0,1-9.13,1.72h-.22a80.71,80.71,0,0,1-11.21.67h-.19a.81.81,0,0,0-.38,0"/></g><path class="cls-82" d="M246.49,167a1.35,1.35,0,0,1-1.29-1.43,1.23,1.23,0,0,1,0-.19,1.84,1.84,0,0,1,1.48-1.55h.19a82.28,82.28,0,0,0,11.21-.67h.22a88.43,88.43,0,0,0,9.13-1.72h.14a1.29,1.29,0,0,1,1.47,1.08s0,.09,0,.13a1.85,1.85,0,0,1-1.31,1.92A88.18,88.18,0,0,1,246.49,167Z"/><g class="cls-119"><path class="cls-18" d="M230.14,172.45l-23.68-13.67c-2.15-1.24-3.32-2.72-3.32-4.3l23.68,13.6c0,1.57,1.17,3.06,3.32,4.28"/></g><path class="cls-23" d="M282.12,147.26a31.55,31.55,0,0,0,7.69-5.47v18c0,5.26-13,12.84-31.52,15.3s-31.45-1.7-31.45-7V150.11a22.46,22.46,0,0,0,7.7,3.44,65.41,65.41,0,0,0,23.75.67A74.63,74.63,0,0,0,282.12,147.26Zm-14.34,17.18a1.82,1.82,0,0,0,1.31-1.91,1.29,1.29,0,0,0-1.34-1.23h-.28a83.41,83.41,0,0,1-9.13,1.72h-.21a79.38,79.38,0,0,1-11.21.67h-.19a1.86,1.86,0,0,0-1.49,1.56,1.37,1.37,0,0,0,1.08,1.6l.19,0a87.57,87.57,0,0,0,21.27-2.51m9.56-.74a5,5,0,0,0,4.06-4.85,3.61,3.61,0,0,0-3.35-3.85,3.54,3.54,0,0,0-.73,0,5,5,0,0,0-4.09,4.9,3.64,3.64,0,0,0,3.38,3.87,4.26,4.26,0,0,0,.71,0"/><path class="cls-82" d="M277.39,163.7a3.64,3.64,0,0,1-4.07-3.14,3.28,3.28,0,0,1,0-.7,5,5,0,0,1,4.09-4.9,3.61,3.61,0,0,1,4,3.17,3.52,3.52,0,0,1,0,.65A5,5,0,0,1,277.39,163.7Zm0-5.59a1.38,1.38,0,0,0-1.15,1.36,1,1,0,0,0,1,1.06h.15a1.38,1.38,0,0,0,1.12-1.37,1,1,0,0,0-.95-1,.49.49,0,0,0-.17,0"/><g class="cls-120"><path class="cls-10" d="M289.38,137.49l-23.66-13.58a4.67,4.67,0,0,0,.34-1.69,5.47,5.47,0,0,0-3.3-4.54l23.66,13.57a5.47,5.47,0,0,1,3.32,4.54,4.19,4.19,0,0,1-.36,1.7"/></g><g class="cls-121"><path class="cls-14" d="M256.62,321.43,233,307.86a136.44,136.44,0,0,0,34.53-9.44L291.18,312a134.21,134.21,0,0,1-34.56,9.44"/><path class="cls-15" d="M291.18,312l-23.69-13.57A146.46,146.46,0,0,0,289,287.11l23.66,13.6A146.8,146.8,0,0,1,291.15,312"/><path class="cls-16" d="M312.73,300.71l-23.66-13.6a153.77,153.77,0,0,0,16.3-11.94l23.69,13.57a161.87,161.87,0,0,1-16.33,11.95"/><path class="cls-22" d="M329.06,288.81,305.3,275.24a160.51,160.51,0,0,0,13.79-12.93l23.68,13.6A163.26,163.26,0,0,1,329,288.81"/><path class="cls-21" d="M342.84,275.88l-23.68-13.6a164.1,164.1,0,0,0,12.28-14.45l23.69,13.59a166.07,166.07,0,0,1-12.29,14.46"/><path class="cls-20" d="M355.13,261.54,331.44,248A167.9,167.9,0,0,0,342.72,231l23.69,13.6a168.33,168.33,0,0,1-11.28,16.94"/><path class="cls-19" d="M366.41,244.5l-23.69-13.59a165.86,165.86,0,0,0,10.66-21.7l23.69,13.59a171.07,171.07,0,0,1-10.66,21.7"/><path class="cls-18" d="M377,222.8l-23.68-13.59a160.1,160.1,0,0,0,11.95-59.75c0-49.16-23.42-89.33-59.12-109.81l23.68,13.57c35.7,20.48,59.22,60.66,59.12,109.93A160.3,160.3,0,0,1,377,222.9"/></g><g class="cls-122"><path class="cls-5" d="M230,220.75l-23.68-13.58.31.17,23.69,13.58-.32-.17"/><path class="cls-4" d="M230.36,220.92l-23.69-13.58a20.51,20.51,0,0,0,3.68,1.48L234,222.42a20,20,0,0,1-3.68-1.5"/><path class="cls-4" d="M234,222.42l-23.69-13.6a59.61,59.61,0,0,0,24.12,1h.21l23.68,13.57h-.21a59.56,59.56,0,0,1-24.11-1"/></g><g class="cls-123"><path class="cls-4" d="M246.27,187.58,222.59,174h.6a80.49,80.49,0,0,0,11.4-.69,89.31,89.31,0,0,0,9.15-1.72h.14a1.42,1.42,0,0,1,.58,0l23.65,13.57a1,1,0,0,0-.55,0h-.16a85.85,85.85,0,0,1-9.13,1.72,79.45,79.45,0,0,1-11.43.69h-.19l-.38.12"/></g><g class="cls-124"><path class="cls-4" d="M246.27,187.58,222.59,174h.6a80.49,80.49,0,0,0,11.4-.69,89.31,89.31,0,0,0,9.15-1.72h.14a1.42,1.42,0,0,1,.58,0l23.65,13.57a1,1,0,0,0-.55,0h-.16a85.85,85.85,0,0,1-9.13,1.72,79.45,79.45,0,0,1-11.43.69h-.19l-.38.12"/></g><g class="cls-125"><path class="cls-10" d="M245.84,190.49,222.16,176.9a1.42,1.42,0,0,1-.65-1.46,1.06,1.06,0,0,1,.12-.43l23.66,13.57a3.53,3.53,0,0,0,0,.46,1.43,1.43,0,0,0,.67,1.45"/></g><g class="cls-126"><path class="cls-10" d="M245.84,190.49,222.16,176.9a1.42,1.42,0,0,1-.65-1.46,1.06,1.06,0,0,1,.12-.43l23.66,13.57a3.53,3.53,0,0,0,0,.46,1.43,1.43,0,0,0,.67,1.45"/><path class="cls-9" d="M245.29,188.58,221.63,175a1.13,1.13,0,0,1,0-.26l23.66,13.59-.12.24"/><path class="cls-8" d="M245.41,188.34l-23.66-13.6.12-.19,23.66,13.6-.12.19"/><path class="cls-7" d="M245.55,188.15l-23.65-13.6.14-.14L245.7,188l-.15.17"/><path class="cls-6" d="M245.67,188,222,174.41a.4.4,0,0,1,.15-.14l23.68,13.57-.17.14"/><path class="cls-5" d="M245.84,187.84l-23.68-13.57.19-.15L246,187.7l-.19.14"/><path class="cls-4" d="M246,187.7l-23.68-13.58.24-.14,23.68,13.6a.6.6,0,0,0-.24.12"/><path class="cls-4" d="M246.27,187.58,222.59,174h.6a80.49,80.49,0,0,0,11.4-.69,89.31,89.31,0,0,0,9.15-1.72h.14a1.42,1.42,0,0,1,.58,0l23.65,13.57a1,1,0,0,0-.55,0h-.16a85.85,85.85,0,0,1-9.13,1.72,79.45,79.45,0,0,1-11.43.69h-.19l-.38.12"/></g><g class="cls-127"><path class="cls-18" d="M230.09,196.52l-23.68-13.58c-2.15-1.24-3.32-2.72-3.32-4.3l23.68,13.6c0,1.58,1.17,3.06,3.32,4.28"/></g><path class="cls-23" d="M282.07,171.33a31.64,31.64,0,0,0,7.7-5.38v18.9h-1.08a18.17,18.17,0,0,0-13.48,10.23,78.7,78.7,0,0,1-17,4.09c-18.5,2.39-31.43-1.7-31.43-6.93V174.17a22.54,22.54,0,0,0,7.7,3.44,65.63,65.63,0,0,0,23.75.67A75.13,75.13,0,0,0,282.07,171.33Zm-14.34,16.73a1.8,1.8,0,0,0,1.32-1.92,1.27,1.27,0,0,0-1.33-1.2h-.3a85.85,85.85,0,0,1-9.13,1.72,80.69,80.69,0,0,1-11.42.69h-.19a1.86,1.86,0,0,0-1.48,1.58,1.35,1.35,0,0,0,1.07,1.6l.19,0a87.14,87.14,0,0,0,11.64-.72h.19a88.42,88.42,0,0,0,9.56-1.79m9.56-.74a5,5,0,0,0,4.09-4.9,3.63,3.63,0,0,0-3.38-3.87,3.37,3.37,0,0,0-.71,0,5,5,0,0,0-4.09,4.92,3.62,3.62,0,0,0,3.36,3.85,3.57,3.57,0,0,0,.73,0"/><path class="cls-82" d="M246.44,190.66a1.36,1.36,0,0,1-1.29-1.43,1.23,1.23,0,0,1,0-.19,1.86,1.86,0,0,1,1.48-1.58h.19a80.92,80.92,0,0,0,11.43-.69,88.43,88.43,0,0,0,9.13-1.72h.16a1.26,1.26,0,0,1,1.45,1,.66.66,0,0,1,0,.14,1.79,1.79,0,0,1-1.31,1.91,83.81,83.81,0,0,1-9.56,1.79H258A85.36,85.36,0,0,1,246.44,190.66Z"/><g class="cls-128"><path class="cls-18" d="M230,220.75l-23.68-13.58c-2.15-1.24-3.32-2.72-3.32-4.3l23.68,13.58c0,1.57,1.17,3.08,3.32,4.3"/></g><g class="cls-129"><path class="cls-10" d="M228.47,199.41l-23.69-13.58a18.91,18.91,0,0,1-1.69-1.1l23.68,13.58a14.51,14.51,0,0,0,1.7,1.1"/></g><path class="cls-23" d="M226.77,198.21a21.75,21.75,0,0,0,7.67,3.47,65.9,65.9,0,0,0,23.76.67h.28a85.21,85.21,0,0,0,15.3-3.49,19.79,19.79,0,0,0-.6,4.2,13.83,13.83,0,0,0-3,2.7,15.18,15.18,0,0,0-2,3.09,1.38,1.38,0,0,0-.7,0h-.14a88.43,88.43,0,0,1-9.13,1.72H258a81.11,81.11,0,0,1-11.23.69h-.19a1.84,1.84,0,0,0-1.46,1.55,1.34,1.34,0,0,0,1,1.6.83.83,0,0,0,.22,0,82.29,82.29,0,0,0,11.95-.72,87.45,87.45,0,0,0,8.91-1.65,12.58,12.58,0,0,0-.31,2.8,11.56,11.56,0,0,0,1.94,6.55,83.48,83.48,0,0,1-10.4,2.05h-.21c-18.5,2.39-31.43-1.69-31.43-6.95Z"/><polygon class="cls-26" points="226.72 216.47 203.06 202.87 203.09 184.64 226.77 198.24 226.72 216.47"/><polygon class="cls-26" points="226.77 192.24 203.09 178.64 203.09 178.14 226.77 191.74 226.77 192.24"/><g class="cls-130"><path class="cls-5" d="M230.28,148.65l-23.68-13.6.29.14,23.66,13.6-.27-.14"/><path class="cls-4" d="M230.55,148.79l-23.66-13.6a19.14,19.14,0,0,0,3.41,1.41L234,150.18a19.35,19.35,0,0,1-3.44-1.39"/><path class="cls-4" d="M234,150.18,210.3,136.6a61.88,61.88,0,0,0,24.36.89,79.55,79.55,0,0,0,19.83-5.14L278.18,146a80.56,80.56,0,0,1-19.84,5.11,62,62,0,0,1-24.35-.88"/><path class="cls-4" d="M278.18,146l-23.69-13.6a43.47,43.47,0,0,0,5.81-3L284,143a40.75,40.75,0,0,1-5.8,3"/><path class="cls-5" d="M284,143,260.3,129.39a27.33,27.33,0,0,0,2.39-1.72l23.66,13.59A22,22,0,0,1,284,143"/><path class="cls-6" d="M286.35,141.26l-23.66-13.59a11.53,11.53,0,0,0,1.24-1.18l23.69,13.6c-.39.38-.79.77-1.27,1.17"/><path class="cls-7" d="M287.62,140.09l-23.69-13.6a9,9,0,0,0,.81-.93l23.69,13.6a9,9,0,0,1-.81.93"/><path class="cls-8" d="M288.43,139.16l-23.76-13.6a4.42,4.42,0,0,0,.55-.83l23.69,13.59c-.17.27-.34.55-.55.84"/><path class="cls-9" d="M289,138.32l-23.69-13.59a5.34,5.34,0,0,0,.43-.82l23.66,13.58a4.23,4.23,0,0,1-.4.83"/><path class="cls-10" d="M289.38,137.49l-23.66-13.58a4.67,4.67,0,0,0,.34-1.69,5.47,5.47,0,0,0-3.3-4.54l23.66,13.57a5.47,5.47,0,0,1,3.32,4.54,4.19,4.19,0,0,1-.36,1.7"/></g><g class="cls-131"><path class="cls-14" d="M258.36,128.84l-23.66-13.6a62.07,62.07,0,0,1,24.36.88l23.66,13.6a61.33,61.33,0,0,0-24.36-.88"/><path class="cls-15" d="M282.72,129.72l-23.66-13.6a19.06,19.06,0,0,1,3.41,1.39l23.69,13.6a18,18,0,0,0-3.44-1.39"/><path class="cls-16" d="M286.18,131.11l-23.68-13.6.29.17,23.65,13.57-.26-.14"/></g><g class="cls-132"><path class="cls-10" d="M228.49,175.25l-23.56-13.58a16.72,16.72,0,0,1-1.68-1.1l23.66,13.6c.55.38,1.1.74,1.7,1.08"/></g><polygon class="cls-26" points="226.77 191.74 203.09 178.14 203.13 160.6 226.82 174.17 226.77 191.74"/><g class="cls-133"><path class="cls-10" d="M228.56,151.21l-23.63-13.6a14.51,14.51,0,0,1-1.7-1.1l23.66,13.6c.55.38,1.1.74,1.72,1.1"/></g><polygon class="cls-26" points="226.82 168.17 203.13 154.6 203.18 136.53 226.84 150.11 226.82 168.17"/><g class="cls-134"><path class="cls-18" d="M230.28,148.65l-23.68-13.6a5.42,5.42,0,0,1-3.3-4.54,4.73,4.73,0,0,1,.34-1.7l23.68,13.58a4.45,4.45,0,0,0-.36,1.69,5.51,5.51,0,0,0,3.32,4.57"/><path class="cls-19" d="M227.32,142.39l-23.68-13.58a6.34,6.34,0,0,1,.4-.83l23.69,13.59a4.19,4.19,0,0,0-.41.82"/><path class="cls-20" d="M227.73,141.57,204,128c.17-.27.36-.55.58-.84l23.66,13.6a5.68,5.68,0,0,0-.55.83"/><path class="cls-21" d="M228.28,140.74l-23.66-13.6a7.77,7.77,0,0,1,.79-.93l23.68,13.6a9,9,0,0,0-.81.93"/><path class="cls-22" d="M229.09,139.81l-23.68-13.6a15.19,15.19,0,0,1,1.26-1.15l23.66,13.57a11.53,11.53,0,0,0-1.24,1.18"/><path class="cls-16" d="M230.33,138.63l-23.66-13.57a22.23,22.23,0,0,1,2.39-1.72l23.69,13.6a25.1,25.1,0,0,0-2.39,1.69"/><path class="cls-15" d="M232.72,136.94,209,123.34a40.69,40.69,0,0,1,5.81-3L238.53,134a38.41,38.41,0,0,0-5.81,3"/><path class="cls-14" d="M238.53,134l-23.68-13.57a79.7,79.7,0,0,1,19.85-5.14l23.66,13.6A78.64,78.64,0,0,0,238.53,134"/></g><path class="cls-23" d="M258.36,128.84c17.35-2.39,31.38.81,31.38,6.95s-14.07,13-31.4,15.27-31.38-.83-31.38-7S241,131.13,258.36,128.84Z"/><g class="cls-135"><path class="cls-16" d="M184,307.79l-23.68-13.6,2.39,1.29,23.66,13.57-2.27-1.26"/><path class="cls-15" d="M186.26,309.05,162.6,295.48A110.74,110.74,0,0,0,183.06,304l23.68,13.58a109.32,109.32,0,0,1-20.48-8.56"/></g><g class="cls-136"><path class="cls-10" d="M184,307.79l-23.68-13.6c-35.7-20.48-59.22-60.66-59.12-109.93a160.09,160.09,0,0,1,11.94-59.75l23.66,13.58a160.65,160.65,0,0,0-11.95,59.74c0,49.18,23.42,89.33,59.13,109.93"/><path class="cls-9" d="M136.72,138.18l-23.66-13.57a168.31,168.31,0,0,1,10.64-21.7l23.68,13.57a171.07,171.07,0,0,0-10.66,21.7"/><path class="cls-8" d="M147.38,116.48l-23.71-13.57A177.45,177.45,0,0,1,135,86l23.69,13.58a166.65,166.65,0,0,0-11.28,16.94"/><path class="cls-7" d="M158.66,99.54,135,86a169.17,169.17,0,0,1,12.28-14.34L170.94,85.2a166.1,166.1,0,0,0-12.28,14.34"/><path class="cls-6" d="M170.94,85.08,147.26,71.5a163.75,163.75,0,0,1,13.81-12.92l23.66,13.59a161.76,161.76,0,0,0-13.79,12.91"/><path class="cls-5" d="M184.73,72.17,161.07,58.58a153.48,153.48,0,0,1,16.3-11.95L201.06,60.2a156.69,156.69,0,0,0-16.33,12"/><path class="cls-4" d="M201.06,60.27,177.37,46.7a147,147,0,0,1,21.51-11.31L222.56,49a146.19,146.19,0,0,0-21.5,11.28"/><path class="cls-4" d="M222.61,49l-23.68-13.6A136.71,136.71,0,0,1,233.61,26l23.68,13.6A134.61,134.61,0,0,0,222.73,49"/></g><path id="back_server" class="cls-137" d="M257.17,39.55C330.08,30,389.06,85.2,388.92,163s-59.39,148.7-132.3,158.4S124.72,275.88,124.87,198,184.23,49.18,257.17,39.55ZM226.84,150.11v18.06c0,5.26,13,9.39,31.45,7s31.5-10,31.52-15.3v-18a31.55,31.55,0,0,1-7.69,5.47,74.78,74.78,0,0,1-23.9,7,65.41,65.41,0,0,1-23.75-.67,22.37,22.37,0,0,1-7.7-3.44m0,41.6v.53c0,5.23,12.93,9.39,31.43,6.93a79,79,0,0,0,17-4.09,18.15,18.15,0,0,1,13.48-10.23h1.07V166a31.28,31.28,0,0,1-7.69,5.47,75.37,75.37,0,0,1-23.9,7,65.91,65.91,0,0,1-23.76-.67,22.77,22.77,0,0,1-7.69-3.44v17.54m83.38,26.38A10.44,10.44,0,0,0,318.54,208a7.55,7.55,0,0,0-6.74-8,1.34,1.34,0,0,1-1.19-1.34,7.45,7.45,0,0,0-7.3-7.61,7,7,0,0,0-1.12.06h-.36a8.41,8.41,0,0,0-2.07.64,1.36,1.36,0,0,1-.43.14,1.24,1.24,0,0,1-1.13-.43,10.53,10.53,0,0,0-9.56-3.49,13.62,13.62,0,0,0-8,4.14,15.62,15.62,0,0,0-4.46,10.75v.65a1.79,1.79,0,0,1-1,1.67,10.45,10.45,0,0,0-4.78,12.4,7.27,7.27,0,0,0,7.86,4.78l31.79-4.2m-51.65-89.36c-17.32,2.39-31.37,9.13-31.4,15.25s14,9.27,31.38,7,31.38-9.13,31.4-15.27-14-9.25-31.38-7m0,94.54a83.48,83.48,0,0,0,10.4-2,11.56,11.56,0,0,1-1.94-6.55,12.58,12.58,0,0,1,.31-2.8,87.45,87.45,0,0,1-8.91,1.65,82.29,82.29,0,0,1-11.95.72,1.33,1.33,0,0,1-1.27-1.4.78.78,0,0,1,0-.22,1.84,1.84,0,0,1,1.46-1.56h.19a81.11,81.11,0,0,0,11.23-.69h.19a88.43,88.43,0,0,0,9.13-1.72h.14a1.38,1.38,0,0,1,.7,0,15.11,15.11,0,0,1,2-3.08,13.62,13.62,0,0,1,3-2.71,19.88,19.88,0,0,1,.6-4.2,84.37,84.37,0,0,1-15.3,3.49h-.28a65.9,65.9,0,0,1-23.76-.67,21.75,21.75,0,0,1-7.67-3.47v18.24c0,5.26,12.93,9.41,31.43,6.95h.21m43.42,6.17,4.9-.65V233l2.94-.38v-5.79a1.26,1.26,0,0,0-1.11-1.4h-.22l-5,.67v-5.8l-3,.4v7.39a1.36,1.36,0,0,0,1.35,1.37h.18m-13.86.26v-7.38l-2.94.38v5.81l-5,.67a1.71,1.71,0,0,0-1.41,1.72v3.72l3-.38v-2.13l4.78-.64a1.89,1.89,0,0,0,1.56-1.77m4.78,10.18,3-.38V221.3l-3,.41v18.18m1.48,7.46A3.43,3.43,0,0,0,297,244a2.38,2.38,0,0,0-2.09-2.65,2.34,2.34,0,0,0-.7,0,3.4,3.4,0,0,0-2.82,3.37,2.5,2.5,0,0,0,2.36,2.64,2.34,2.34,0,0,0,.46,0M280,242a3.43,3.43,0,0,0,2.8-3.37,2.39,2.39,0,0,0-2.1-2.65,2.35,2.35,0,0,0-.7,0,3.4,3.4,0,0,0-2.8,3.37,2.39,2.39,0,0,0,2.1,2.65,2.35,2.35,0,0,0,.7,0m28.32-1.7a3.4,3.4,0,0,0,2.8-3.34,2.39,2.39,0,0,0-2.1-2.65,2.35,2.35,0,0,0-.7,0,3.42,3.42,0,0,0-2.82,3.37,2.39,2.39,0,0,0,2.12,2.63,2.35,2.35,0,0,0,.7,0"/><path class="cls-23" d="M303.24,220.39v5.81l5.05-.67h0a1.25,1.25,0,0,1,1.34,1.18,1.77,1.77,0,0,1,0,.23v5.78l-2.94.38v-4.2l-4.78.64a1.39,1.39,0,0,1-1.55-1.21c0-.05,0-.1,0-.15v-7.41Z"/><g class="cls-138"><path class="cls-4" d="M257.17,39.55,233.61,26a118,118,0,0,1,49.87,3.83l23.68,13.6a117.46,117.46,0,0,0-49.87-3.83"/><path class="cls-4" d="M307,43.38,283.36,29.73a110.67,110.67,0,0,1,20.48,8.56L327.5,51.88A109.49,109.49,0,0,0,307,43.33"/><path class="cls-5" d="M327.5,51.93l-23.66-13.6c.77.43,1.53.84,2.39,1.29L329.92,53.2l-2.39-1.27"/></g><g class="cls-139"><path class="cls-140" d="M257.19,15.39,233.53,1.82A137.27,137.27,0,0,1,292,6.29l23.69,13.57a138.24,138.24,0,0,0-58.46-4.47"/><path class="cls-141" d="M315.65,19.84,292,6.26a129.1,129.1,0,0,1,23.9,10l23.66,13.59a128.46,128.46,0,0,0-23.9-10"/><path class="cls-16" d="M339.62,29.87,316,16.28l2.68,1.5,23.65,13.58c-.88-.51-1.76-1-2.67-1.49"/></g><g class="cls-142"><path class="cls-143" d="M171.47,329.63,147.81,316C106,292.13,78.51,245,78.51,187.36a187.7,187.7,0,0,1,13.9-70l23.66,13.6a188.17,188.17,0,0,0-13.91,70c-.11,57.62,27.44,104.67,69.31,128.69"/><path class="cls-144" d="M116.1,130.94l-23.66-13.6a194.25,194.25,0,0,1,12.47-25.47l23.66,13.57a200.22,200.22,0,0,0-12.47,25.43"/><path class="cls-145" d="M128.57,105.51,104.91,91.94a199.62,199.62,0,0,1,13.22-19.86l23.68,13.57a198.07,198.07,0,0,0-13.24,19.86"/><path class="cls-146" d="M141.81,85.65,118.13,72.08a199.74,199.74,0,0,1,14.34-16.95l23.68,13.58a191.55,191.55,0,0,0-14.34,16.94"/><path class="cls-147" d="M156.2,68.71,132.52,55.13A189.43,189.43,0,0,1,148.69,40l23.66,13.57A192.44,192.44,0,0,0,156.2,68.71"/><path class="cls-148" d="M172.35,53.63,148.69,40.05a182.33,182.33,0,0,1,19.12-13.93L191.5,39.7a181.29,181.29,0,0,0-19.12,13.93"/><path class="cls-141" d="M191.47,39.65,167.79,26.07A169.65,169.65,0,0,1,193,12.86l23.68,13.57A171.9,171.9,0,0,0,191.4,39.65"/><path class="cls-140" d="M216.73,26.43,193,12.86A156.51,156.51,0,0,1,233.61,1.79l23.65,13.58A158.81,158.81,0,0,0,216.8,26.43"/></g><path class="cls-149" d="M257.19,15.39c85.44-11.3,154.55,53.49,154.39,144.68S342,334.34,256.57,345.64s-154.41-53.51-154.41-144.7S171.78,26.67,257.19,15.39Zm-.57,306.07c72.91-9.56,132.16-80.56,132.3-158.4S330.08,29.92,257.17,39.58,125,120.14,124.87,198s58.84,133.12,131.75,123.49"/></g></g></g></g></svg>