<svg xmlns="http://www.w3.org/2000/svg" viewBox="0 0 42.69 54.34">
  <defs>
    <style>
      .e48983f1-5b0e-4782-b586-f6f22e31b8c5 {
        fill: #23bade;
      }
    </style>
  </defs>
  <title>complited-tasks</title>
  <g id="e103555a-47fd-4655-a1d4-30c0009746bc" data-name="Слой 2">
    <g id="a646a80c-1d12-4ef0-8909-5032b586f1d3" data-name="Слой 5">
      <g>
        <path class="e48983f1-5b0e-4782-b586-f6f22e31b8c5" d="M37.26,7.12H32.34V4.92c0-.71-.78-1-1.49-1H27A5.8,5.8,0,0,0,21.28,0a5.9,5.9,0,0,0-5.76,3.89H11.77c-.71,0-1.42.32-1.42,1v2.2H5.43A5.5,5.5,0,0,0,0,12.36V49.42c0,2.85,2.59,4.92,5.43,4.92H37.26c2.84,0,5.43-2.07,5.43-4.92V12.36A5.5,5.5,0,0,0,37.26,7.12ZM12.94,6.47h3.55a1.42,1.42,0,0,0,1.23-1.16A3.75,3.75,0,0,1,21.28,2.4a3.67,3.67,0,0,1,3.49,2.91,1.42,1.42,0,0,0,1.3,1.16h3.68v5.18H12.94Zm27.16,43a2.62,2.62,0,0,1-2.84,2.33H5.43a2.62,2.62,0,0,1-2.84-2.33V12.36A2.9,2.9,0,0,1,5.43,9.71h4.92V13a1.36,1.36,0,0,0,1.42,1.22H30.85A1.42,1.42,0,0,0,32.34,13V9.71h4.92a2.9,2.9,0,0,1,2.84,2.65V49.42Z"/>
        <path class="e48983f1-5b0e-4782-b586-f6f22e31b8c5" d="M16.36,28.92a1.3,1.3,0,0,0-1.81-.07L10.41,32.8,8.67,31a1.3,1.3,0,0,0-1.81-.07,1.37,1.37,0,0,0,0,1.88l2.65,2.71a1.15,1.15,0,0,0,.9.39,1.26,1.26,0,0,0,.91-.39l5-4.78A1.23,1.23,0,0,0,16.44,29Z"/>
        <path class="e48983f1-5b0e-4782-b586-f6f22e31b8c5" d="M34.93,31.7H20.05a1.3,1.3,0,0,0,0,2.59H34.93a1.3,1.3,0,0,0,0-2.59Z"/>
        <path class="e48983f1-5b0e-4782-b586-f6f22e31b8c5" d="M16.36,18.57a1.3,1.3,0,0,0-1.81-.07l-4.14,3.95L8.67,20.64a1.3,1.3,0,0,0-1.81-.07,1.37,1.37,0,0,0,0,1.88l2.65,2.72a1.18,1.18,0,0,0,.9.38,1.3,1.3,0,0,0,.91-.38l5-4.79a1.23,1.23,0,0,0,.08-1.74Z"/>
        <path class="e48983f1-5b0e-4782-b586-f6f22e31b8c5" d="M34.93,21.35H20.05a1.3,1.3,0,0,0,0,2.59H34.93a1.3,1.3,0,0,0,0-2.59Z"/>
        <path class="e48983f1-5b0e-4782-b586-f6f22e31b8c5" d="M16.36,39.27a1.29,1.29,0,0,0-1.81-.07l-4.14,3.95L8.67,41.34a1.29,1.29,0,0,0-1.81-.07,1.37,1.37,0,0,0,0,1.88l2.65,2.71a1.15,1.15,0,0,0,.9.39,1.26,1.26,0,0,0,.91-.39l5-4.78a1.23,1.23,0,0,0,.08-1.74A.27.27,0,0,0,16.36,39.27Z"/>
        <path class="e48983f1-5b0e-4782-b586-f6f22e31b8c5" d="M34.93,42.05H20.05a1.29,1.29,0,0,0,0,2.58H34.93a1.29,1.29,0,0,0,0-2.58Z"/>
      </g>
    </g>
  </g>
</svg>
