<svg xmlns="http://www.w3.org/2000/svg" viewBox="0 0 25 21.43">
  <defs>
    <style>
      .fd8ba8b5-d594-416a-bd81-8dfaddf810b8 {
        fill: #f94181;
      }
    </style>
  </defs>
  <title>employment</title>
  <g id="f66dd580-4e05-4fa3-ab9f-7a0ae44ab411" data-name="Слой 2">
    <g id="aac0e6ea-3611-456a-b77b-0f51de9afd83" data-name="Слой 5">
      <path class="fd8ba8b5-d594-416a-bd81-8dfaddf810b8" d="M6.91,3.66c0-.39,0-.75.06-1.11A2.89,2.89,0,0,1,9.76,0q2.74,0,5.49,0a2.91,2.91,0,0,1,2.82,2.87v.76h4.71a.67.67,0,0,1,.54.21c.5.52,1,1,1.53,1.55a.54.54,0,0,1,.14.36q0,6.76,0,13.53a.55.55,0,0,1-.15.36c-.52.55-1.06,1.09-1.61,1.62a.61.61,0,0,1-.37.12H2.22a.69.69,0,0,1-.56-.24c-.49-.52-1-1-1.51-1.53A.57.57,0,0,1,0,19.3Q0,12.53,0,5.77a.6.6,0,0,1,.14-.36c.52-.53,1-1.06,1.58-1.57a.63.63,0,0,1,.41-.17H6.91ZM1.46,11.85v.38c0,1.84,0,3.68,0,5.52a2.1,2.1,0,0,0,.83,2A.81.81,0,0,0,2.8,20H21.27a3.23,3.23,0,0,0,1.21-.05c.35-.14.61-.53.89-.83a.72.72,0,0,0,.17-.4c0-2.18,0-4.35,0-6.53,0-.09,0-.18,0-.28a1.42,1.42,0,0,0-.25,0l-8,1.32c-.19,0-.24.1-.24.29,0,.87,0,1.74,0,2.62,0,.22-.06.28-.28.28-1.53,0-3,0-4.53,0-.21,0-.34,0-.33-.25,0-.86,0-1.73,0-2.59,0-.23-.07-.3-.29-.33L4,12.28Zm22.08-1.47v-.33c0-.92-.06-1.85,0-2.76a2,2,0,0,0-.84-2,.84.84,0,0,0-.54-.22H3.71a3.07,3.07,0,0,0-1.18,0A3.31,3.31,0,0,0,1.62,6a.65.65,0,0,0-.16.38c0,1.24,0,2.48,0,3.71v.27l8.48,1.4V8.5h5.14v3.28ZM16.61,3.65V3.1A1.48,1.48,0,0,0,15,1.47c-1.65,0-3.31,0-5,0-1.2,0-1.85.91-1.57,2.19Zm-3,6.3H11.41v5h2.18Z"/>
    </g>
  </g>
</svg>
