<svg xmlns="http://www.w3.org/2000/svg" viewBox="0 0 25 24.83">
  <defs>
    <style>
      .a91306fc-fcc3-4782-8410-9ff08e9cad93 {
        fill: #1ff3b6;
      }
    </style>
  </defs>
  <title>rating</title>
  <g id="a6915fcc-0807-4ecd-9d86-fb6544ad5914" data-name="Слой 2">
    <g id="e55bfe7c-3fa2-4363-9214-7370ad229871" data-name="Слой 5">
      <g>
        <path class="a91306fc-fcc3-4782-8410-9ff08e9cad93" d="M6,13.51A1.11,1.11,0,1,0,7.1,14.62,1.11,1.11,0,0,0,6,13.51ZM6,15a.38.38,0,1,1,.38-.38A.38.38,0,0,1,6,15Z"/>
        <path class="a91306fc-fcc3-4782-8410-9ff08e9cad93" d="M16.05,20.58a.37.37,0,0,0-.35-.25H13.52l-.67-2.07a.37.37,0,0,0-.7,0l-.67,2.07H9.3a.37.37,0,0,0-.35.25.36.36,0,0,0,.13.41l1.77,1.29-.68,2.07a.36.36,0,0,0,.12.4.39.39,0,0,0,.45,0l1.76-1.28,1.76,1.28a.38.38,0,0,0,.46,0,.38.38,0,0,0,.11-.39l-.68-2.07L15.92,21A.36.36,0,0,0,16.05,20.58Zm-2.54,1.26a.37.37,0,0,0-.14.41l.41,1.25-1.06-.77a.36.36,0,0,0-.44,0l-1.06.77.41-1.25a.38.38,0,0,0-.14-.41l-1.06-.78h1.31a.37.37,0,0,0,.35-.25l.41-1.25.41,1.25a.37.37,0,0,0,.35.25h1.31Z"/>
        <path class="a91306fc-fcc3-4782-8410-9ff08e9cad93" d="M25,20.58a.37.37,0,0,0-.35-.25H22.45l-.67-2.07a.37.37,0,0,0-.7,0l-.67,2.07H18.23a.37.37,0,0,0-.35.25A.36.36,0,0,0,18,21l1.77,1.29-.68,2.07a.4.4,0,0,0,.12.4.39.39,0,0,0,.45,0l1.76-1.28,1.76,1.28a.37.37,0,0,0,.46,0,.38.38,0,0,0,.11-.39l-.67-2.07L24.85,21A.36.36,0,0,0,25,20.58Zm-2.54,1.26a.36.36,0,0,0-.13.41l.4,1.25-1.06-.77a.35.35,0,0,0-.43,0l-1.07.77.41-1.25a.37.37,0,0,0-.14-.41l-1.06-.78h1.32a.36.36,0,0,0,.34-.25l.41-1.25.41,1.25a.37.37,0,0,0,.35.25H23.5Z"/>
        <path class="a91306fc-fcc3-4782-8410-9ff08e9cad93" d="M7.12,20.58a.37.37,0,0,0-.35-.25H4.59l-.67-2.07a.37.37,0,0,0-.7,0l-.67,2.07H.37a.37.37,0,0,0-.35.25A.36.36,0,0,0,.15,21l1.76,1.29-.67,2.07a.38.38,0,0,0,.13.41.39.39,0,0,0,.44,0l1.76-1.28,1.76,1.28a.38.38,0,0,0,.46,0,.38.38,0,0,0,.11-.39l-.68-2.07L7,21A.36.36,0,0,0,7.12,20.58ZM4.58,21.84a.37.37,0,0,0-.14.41l.41,1.25-1.07-.77a.35.35,0,0,0-.43,0l-1.06.77.4-1.25a.36.36,0,0,0-.13-.41L1.5,21.06H2.81a.37.37,0,0,0,.35-.25l.41-1.25L4,20.81a.36.36,0,0,0,.34.25H5.64Z"/>
        <path class="a91306fc-fcc3-4782-8410-9ff08e9cad93" d="M22,9.15a1.68,1.68,0,0,0,.62-1.3A1.66,1.66,0,0,0,21,6.19h-5.9a6.86,6.86,0,0,0,.51-1.86c.28-2-.14-3-.55-3.54A1.91,1.91,0,0,0,13.72,0a.78.78,0,0,0-.87.74,14,14,0,0,1-.68,3.37A8.11,8.11,0,0,1,8.36,7.37,1.39,1.39,0,0,0,7.48,7h-3A1.37,1.37,0,0,0,3.13,8.41v7.45a1.36,1.36,0,0,0,1.36,1.36h3a1.35,1.35,0,0,0,1-.45,3.42,3.42,0,0,0,1.87.52H20a1.66,1.66,0,0,0,1.66-1.66,1.64,1.64,0,0,0-.41-1.1,1.67,1.67,0,0,0,.93-1.5,1.62,1.62,0,0,0-.41-1.09,1.67,1.67,0,0,0,.93-1.5A1.64,1.64,0,0,0,22,9.15ZM7.48,16.49h-3a.63.63,0,0,1-.62-.63V8.41a.63.63,0,0,1,.62-.63h3A.6.6,0,0,1,7.92,8v8.18a.31.31,0,0,0,0,.13A.64.64,0,0,1,7.48,16.49Zm12-7H21a.93.93,0,1,1,0,1.86H19.45a.37.37,0,0,0,0,.74h1a.93.93,0,1,1,0,1.85h-1.3a.37.37,0,1,0,0,.74H20a.93.93,0,0,1,0,1.86H10.36a2.74,2.74,0,0,1-1.55-.45,1,1,0,0,0,0-.25V8.41A1.42,1.42,0,0,0,8.77,8a8.71,8.71,0,0,0,4.06-3.55A14.66,14.66,0,0,0,13.58.81v0s0,0,0,0h0a1.23,1.23,0,0,1,.84.51,3.93,3.93,0,0,1,.41,3,4.55,4.55,0,0,1-.71,2.09.37.37,0,0,0,.29.6H21a.93.93,0,1,1,0,1.86H19.45a.37.37,0,1,0,0,.73Z"/>
      </g>
    </g>
  </g>
</svg>
