<?xml version="1.0" encoding="utf-8"?>
<!-- Generator: Adobe Illustrator 23.0.2, SVG Export Plug-In . SVG Version: 6.00 Build 0)  -->
<svg version="1.1" id="Слой_1" xmlns="http://www.w3.org/2000/svg" xmlns:xlink="http://www.w3.org/1999/xlink" x="0px" y="0px"
	 viewBox="0 0 500 472.8" style="enable-background:new 0 0 500 472.8;" xml:space="preserve">
<style type="text/css">
	.st0{fill:#B1B4C4;}
	.st1{fill:#E4E7F2;}
	.st2{fill:#D6D8E5;}
	.st3{fill:#1E212D;}
	.st4{opacity:0.5;fill:url(#SVGID_1_);enable-background:new    ;}
	.st5{opacity:0.4;fill:#D6D8E5;enable-background:new    ;}
	.st6{fill:#2B303F;}
	.st7{fill:#C3C6D1;}
	.st8{fill:#616E84;}
	.st9{fill:#757B89;}
	.st10{fill:#20232D;}
	.st11{opacity:0.5;fill:url(#SVGID_2_);enable-background:new    ;}
	.st12{opacity:0.1;fill:#FFFFFF;enable-background:new    ;}
	.st13{opacity:0.5;fill:url(#SVGID_3_);enable-background:new    ;}
	.st14{fill:#696F7C;}
	.st15{opacity:0.1;enable-background:new    ;}
	.st16{opacity:0.3;fill:url(#SVGID_4_);enable-background:new    ;}
	.st17{fill:#1F232D;}
	.st18{opacity:0.3;fill:url(#SVGID_5_);enable-background:new    ;}
</style>
<title>workspace</title>
<g>
	<g id="Слой_1-2">
		<g id="Laptop">
			<path class="st0" d="M442.6,324.4L214.4,192.7c-3.2-1.9-5.8-6.8-5.8-11.1V5.1c0-4.3,2.6-6.2,5.8-4.4l228.2,131.8
				c3.2,1.9,5.8,6.8,5.8,11.1V320C448.4,324.3,445.8,326.3,442.6,324.4z"/>
			<polygon class="st0" points="443.7,326.2 446.3,324.8 445.2,317.3 			"/>
			<path class="st0" d="M208.2,1.8l2.5-1.4l3.6,2c0,0-3.8,0.6-3.9,0.5S208.2,1.8,208.2,1.8z"/>
			<path class="st1" d="M440.5,325.6L212.3,193.9c-3.2-1.9-5.8-6.8-5.8-11.1V6.3c0-4.3,2.6-6.2,5.8-4.4l228.2,131.8
				c3.2,1.8,5.8,6.8,5.8,11.1v176.5C446.3,325.5,443.7,327.5,440.5,325.6z"/>
			<path class="st2" d="M440.1,325.9L211.9,194.1c-3.2-1.9-5.8-6.8-5.8-11.1V6.5c0-4.3,2.6-6.2,5.8-4.4l228.2,131.8
				c3.2,1.8,5.8,6.8,5.8,11.1v176.5C445.9,325.8,443.3,327.7,440.1,325.9z"/>
			<path class="st3" d="M442.7,315.1L209,180.2l0.1-172.9c0-1.8,1.2-2.5,2.8-1.6l228.2,131.8c1.6,1.1,2.7,2.9,2.8,4.8L442.7,315.1z"
				/>
			
				<linearGradient id="SVGID_1_" gradientUnits="userSpaceOnUse" x1="-205.8046" y1="-1777.7046" x2="-205.8046" y2="-1625.0947" gradientTransform="matrix(0.87 0.5 0 -1.15 504.89 -1704.0901)">
				<stop  offset="0.21" style="stop-color:#FFFFFF;stop-opacity:0"/>
				<stop  offset="1" style="stop-color:#FFFFFF;stop-opacity:0.2"/>
			</linearGradient>
			<path class="st4" d="M442.7,315.1l-233.8-135l0.1-173c0-1.8,1.2-2.5,2.8-1.6L440,137.4c1.6,1.1,2.7,2.9,2.8,4.8L442.7,315.1z"/>
			<path class="st5" d="M268,428.4L39.8,296.7c-3.2-1.8-2.8-5.1,0.9-7.2l152.9-88.3c3.7-2.1,9.3-2.4,12.5-0.5l228.2,131.8
				c3.2,1.9,2.8,5.1-0.9,7.2l-152.9,88.3C276.8,430,271.1,430.3,268,428.4z"/>
			<path class="st0" d="M272.9,425.4L44.7,293.7c-3.2-1.9-2.8-5.1,0.9-7.2l152.9-88.3c3.7-2.1,9.3-2.4,12.5-0.5l228.2,131.8
				c3.2,1.8,2.8,5.1-0.9,7.2l-152.9,88.3C281.7,427.1,276.1,427.3,272.9,425.4z"/>
			<polygon class="st0" points="42.6,290.7 42.6,286.4 47.4,288.4 			"/>
			<polygon class="st0" points="441.4,332.7 441.4,328.5 437.8,329.7 440.1,333.2 			"/>
			<path class="st1" d="M272.9,421.8L44.7,290.1c-3.2-1.9-2.8-5.1,0.9-7.2l152.9-88.3c3.7-2.1,9.3-2.4,12.5-0.5l228.2,131.7
				c3.2,1.9,2.8,5.1-0.9,7.2l-152.9,88.3C281.7,423.4,276.1,423.7,272.9,421.8z"/>
			<path class="st2" d="M272.9,421.3L44.7,289.5c-3.2-1.9-2.8-5.1,0.9-7.2L198.5,194c3.7-2.1,9.3-2.4,12.5-0.5l228.2,131.8
				c3.2,1.9,2.8,5.1-0.9,7.2l-152.9,88.3C281.7,422.9,276.1,423.1,272.9,421.3z"/>
			<path class="st6" d="M194.3,223.8l-10.6-6.1c-0.9-0.5-0.8-1.4,0.2-1.9l10.1-5.9c1-0.6,2.3-0.6,3.4-0.1l10.6,6.1
				c0.9,0.5,0.8,1.4-0.2,2l-10.1,5.9C196.6,224.3,195.3,224.3,194.3,223.8z"/>
			<path class="st6" d="M209.3,232.5l-10.6-6.1c-0.9-0.5-0.8-1.4,0.2-2l10.1-5.9c1-0.6,2.3-0.6,3.4-0.1l10.6,6.1
				c0.9,0.5,0.8,1.4-0.2,1.9l-10.1,5.9C211.7,232.9,210.4,233,209.3,232.5z"/>
			<path class="st6" d="M224.5,241.3l-10.6-6.1c-0.9-0.5-0.8-1.4,0.2-1.9l10.1-5.9c1-0.6,2.3-0.6,3.4-0.1l10.6,6.1
				c0.9,0.5,0.8,1.4-0.2,1.9l-10.1,5.9C226.9,241.7,225.6,241.8,224.5,241.3z"/>
			<path class="st6" d="M239.4,249.9l-10.6-6.1c-0.9-0.5-0.8-1.4,0.2-1.9l10.1-5.9c1-0.6,2.3-0.6,3.4-0.1l10.6,6.1
				c0.9,0.5,0.8,1.4-0.2,2l-10.1,5.9C241.7,250.3,240.5,250.4,239.4,249.9z"/>
			<path class="st6" d="M254.4,258.5l-10.6-6.1c-0.9-0.5-0.8-1.4,0.2-1.9l10.1-5.9c1-0.6,2.3-0.6,3.4-0.1l10.6,6.1
				c0.9,0.5,0.8,1.4-0.2,2l-10.1,5.9C256.8,259,255.5,259.1,254.4,258.5z"/>
			<path class="st6" d="M269.5,267.2l-10.6-6.1c-0.9-0.5-0.8-1.4,0.2-2l10.1-5.9c1-0.6,2.3-0.6,3.4-0.1l10.6,6.1
				c0.9,0.5,0.8,1.4-0.2,2l-10.1,5.9C271.8,267.7,270.6,267.7,269.5,267.2z"/>
			<path class="st6" d="M284.5,275.9l-10.6-6.1c-0.9-0.5-0.8-1.4,0.2-2l10.1-5.8c1-0.6,2.3-0.6,3.4-0.1l10.6,6.1
				c0.9,0.5,0.8,1.4-0.2,2l-10.1,5.9C286.9,276.4,285.6,276.4,284.5,275.9z"/>
			<path class="st6" d="M299.6,284.6l-10.6-6.1c-0.9-0.5-0.8-1.4,0.2-2l10.1-5.9c1-0.6,2.3-0.6,3.4-0.1l10.6,6.1
				c0.9,0.5,0.8,1.4-0.2,2l-10.1,5.8C301.9,285.1,300.7,285.1,299.6,284.6z"/>
			<path class="st6" d="M314.6,293.3l-10.6-6.1c-0.9-0.5-0.8-1.4,0.2-2l10.1-5.9c1-0.6,2.3-0.6,3.4-0.1l10.6,6.1
				c0.9,0.5,0.8,1.4-0.2,2l-10.2,5.8C317,293.7,315.7,293.8,314.6,293.3z"/>
			<path class="st6" d="M329.6,302l-10.6-6.2c-0.9-0.5-0.8-1.4,0.2-2l10.1-5.9c1-0.6,2.3-0.6,3.4-0.1l10.6,6.1
				c0.9,0.5,0.8,1.4-0.2,2l-10.2,5.8C332,302.4,330.7,302.5,329.6,302z"/>
			<path class="st6" d="M344.7,310.6l-10.6-6.1c-0.9-0.5-0.8-1.4,0.2-2l10.1-5.9c1-0.6,2.3-0.6,3.4-0.1l10.6,6.1
				c0.9,0.5,0.8,1.4-0.2,2l-10.1,5.9C347,311.1,345.8,311.2,344.7,310.6z"/>
			<path class="st6" d="M359.7,319.3l-10.6-6.1c-0.9-0.5-0.8-1.4,0.2-2l10.1-5.9c1-0.6,2.3-0.6,3.4-0.1l10.6,6.1
				c0.9,0.5,0.8,1.4-0.2,2l-10.1,5.9C362.1,319.8,360.8,319.8,359.7,319.3z"/>
			<path class="st6" d="M374.8,328l-10.6-6.1c-0.9-0.5-0.8-1.4,0.2-2l10.1-5.9c1-0.6,2.3-0.6,3.4-0.1l10.6,6.1
				c0.9,0.5,0.8,1.4-0.2,2l-10.1,5.9C377.1,328.4,375.9,328.5,374.8,328z"/>
			<path class="st6" d="M397.1,340.9l-17.9-10.3c-0.9-0.5-0.8-1.4,0.2-2l10.1-5.9c1-0.6,2.3-0.6,3.4-0.1l17.9,10.3
				c0.9,0.5,0.8,1.4-0.2,2l-10.1,5.9C399.4,341.3,398.1,341.4,397.1,340.9z"/>
			<path class="st6" d="M202,245.1l-10.6-6.1c-0.9-0.5-0.8-1.4,0.2-1.9l10.1-5.9c1-0.6,2.3-0.6,3.4-0.1l10.6,6.1
				c0.9,0.5,0.8,1.4-0.2,2l-10.1,5.8C204.3,245.6,203.1,245.6,202,245.1z"/>
			<path class="st6" d="M217.1,253.8l-10.6-6.1c-0.9-0.5-0.8-1.4,0.2-1.9l10.1-5.9c1-0.6,2.3-0.6,3.4-0.1l10.6,6.1
				c0.9,0.5,0.8,1.4-0.2,1.9l-10.1,5.9C219.4,254.3,218.2,254.3,217.1,253.8z"/>
			<path class="st6" d="M232.1,262.5l-10.6-6.1c-0.9-0.5-0.8-1.4,0.2-2l10.1-5.9c1-0.6,2.3-0.6,3.4-0.1l10.6,6.1
				c0.9,0.5,0.8,1.4-0.2,1.9l-10.1,5.9C234.5,262.9,233.2,263,232.1,262.5z"/>
			<path class="st6" d="M247.2,271.2l-10.6-6.1c-0.9-0.5-0.8-1.4,0.2-2l10.2-5.8c1-0.6,2.3-0.6,3.4-0.1l10.6,6.1
				c0.9,0.5,0.8,1.4-0.2,2l-10.1,5.9C249.6,271.7,248.3,271.7,247.2,271.2z"/>
			<path class="st6" d="M262.2,279.8l-10.6-6.1c-0.9-0.5-0.8-1.4,0.2-2l10.1-5.9c1-0.6,2.3-0.6,3.4-0.1l10.6,6.1
				c0.9,0.5,0.8,1.4-0.2,2l-10.1,5.9C264.5,280.3,263.2,280.3,262.2,279.8z"/>
			<path class="st6" d="M277.2,288.5l-10.6-6.1c-0.9-0.5-0.8-1.4,0.2-2l10.2-5.9c1-0.6,2.3-0.6,3.4-0.1l10.6,6.1
				c0.9,0.5,0.8,1.4-0.2,2l-10.1,5.9C279.6,289,278.3,289,277.2,288.5z"/>
			<path class="st6" d="M292.3,297.2l-10.6-6.1c-0.9-0.5-0.8-1.4,0.2-2l10.1-5.9c1-0.6,2.3-0.6,3.4-0.1l10.6,6.1
				c0.9,0.5,0.8,1.4-0.2,2l-10.1,5.9C294.6,297.6,293.4,297.7,292.3,297.2z"/>
			<path class="st6" d="M307.4,305.9l-10.6-6.1c-0.9-0.5-0.8-1.4,0.2-2l10.1-5.8c1-0.6,2.3-0.6,3.4-0.1l10.6,6.1
				c0.9,0.5,0.8,1.4-0.2,2l-10.1,5.9C309.7,306.4,308.4,306.4,307.4,305.9z"/>
			<path class="st6" d="M322.4,314.6l-10.6-6.1c-0.9-0.5-0.8-1.4,0.2-2l10.1-5.9c1-0.6,2.3-0.6,3.4-0.1l10.6,6.1
				c0.9,0.5,0.8,1.4-0.2,2l-10.1,5.9C324.8,315.1,323.5,315.1,322.4,314.6z"/>
			<path class="st6" d="M337.5,323.3l-10.6-6.1c-0.9-0.5-0.8-1.4,0.2-2l10.1-5.9c1-0.6,2.3-0.6,3.4-0.1l10.6,6.1
				c0.9,0.5,0.8,1.4-0.2,2l-10.1,5.9C339.8,323.7,338.6,323.8,337.5,323.3z"/>
			<path class="st6" d="M352.6,332l-10.6-6.1c-0.9-0.5-0.8-1.4,0.2-2l10.1-5.9c1-0.6,2.3-0.6,3.4-0.1l10.6,6.1
				c0.9,0.5,0.8,1.4-0.2,2l-10.1,5.9C354.9,332.4,353.6,332.5,352.6,332z"/>
			<path class="st6" d="M367.6,340.7l-10.6-6.1c-0.9-0.5-0.8-1.4,0.2-2l10.1-5.9c1-0.6,2.3-0.6,3.4-0.1l10.6,6.1
				c0.9,0.5,0.8,1.4-0.2,2l-10.2,5.9C370,341.2,368.7,341.2,367.6,340.7z"/>
			<path class="st6" d="M186.9,236.4l-17.9-10.3c-0.9-0.5-0.8-1.4,0.2-2l10.1-5.9c1-0.6,2.3-0.6,3.4-0.1l17.9,10.3
				c0.9,0.5,0.8,1.4-0.2,2l-10.1,5.9C189.3,236.8,188,236.9,186.9,236.4z"/>
			<path class="st6" d="M396.3,341.5l-10.6-6.1c-1-0.5-2.2-0.5-3.1,0l-10.7,6.2c-0.5,0.2-0.7,0.8-0.5,1.3c0.1,0.2,0.3,0.4,0.5,0.5
				l0.8,0.5c0.5,0.2,0.7,0.7,0.5,1.1c-0.1,0.3-0.3,0.5-0.5,0.5l-11.4,6.5c-0.9,0.5-0.9,1.3,0,1.8l6.8,3.9c1,0.5,2.2,0.5,3.1,0
				l10.6-6.1l2.2-1.3l1.6-0.9l1.6-0.9l9.1-5.3C397.2,342.8,397.2,342,396.3,341.5z"/>
			<path class="st6" d="M136,257.5l-10.6-6.1c-0.9-0.5-0.8-1.4,0.2-1.9l10.1-5.9c1-0.6,2.3-0.6,3.4-0.1l10.6,6.1
				c0.9,0.5,0.8,1.4-0.2,2l-10.1,5.9C138.3,258,137.1,258,136,257.5z"/>
			<path class="st6" d="M151,266.2l-10.6-6.2c-0.9-0.5-0.8-1.4,0.2-2l10.1-5.9c1-0.6,2.3-0.6,3.4-0.1l10.6,6.1
				c0.9,0.5,0.8,1.4-0.2,2l-10.1,5.9C153.4,266.6,152.1,266.7,151,266.2z"/>
			<path class="st6" d="M166,274.8l-10.6-6.1c-0.9-0.5-0.8-1.4,0.2-2l10.1-5.9c1-0.6,2.3-0.6,3.4-0.1l10.6,6.1
				c0.9,0.5,0.8,1.4-0.2,2l-10.1,5.9C168.3,275.3,167.1,275.3,166,274.8z"/>
			<path class="st6" d="M293.8,348.6l-10.6-6.1c-0.9-0.5-0.8-1.4,0.2-2l10.1-5.9c1-0.6,2.3-0.6,3.4-0.1l10.6,6.1
				c0.9,0.5,0.8,1.4-0.2,2l-10.1,5.9C296.1,349,294.8,349.1,293.8,348.6z"/>
			<path class="st6" d="M308.7,357.2l-10.6-6.1c-0.9-0.5-0.8-1.4,0.2-2l10.1-5.9c1-0.6,2.3-0.6,3.4-0.1l10.6,6.1
				c0.9,0.5,0.8,1.4-0.2,2l-10.1,5.9C311.1,357.6,309.8,357.7,308.7,357.2z"/>
			<path class="st6" d="M323.7,365.9l-10.6-6.1c-0.9-0.5-0.8-1.4,0.2-2l10.1-5.8c1-0.6,2.3-0.6,3.4-0.1l10.6,6.1
				c0.9,0.5,0.8,1.4-0.2,2l-10.1,5.9C326.1,366.4,324.8,366.4,323.7,365.9z"/>
			<path class="st6" d="M338.7,374.6l-10.6-6.1c-0.9-0.5-0.8-1.4,0.2-2l10.1-5.9c1-0.6,2.3-0.6,3.4-0.1l10.6,6.1
				c0.9,0.5,0.8,1.4-0.2,2l-10.1,5.9C341.1,375,339.8,375,338.7,374.6z"/>
			<path class="st6" d="M184.9,285.7l-14.5-8.4c-0.9-0.5-0.8-1.4,0.2-2l10.1-5.9c1-0.6,2.3-0.6,3.4-0.1l14.5,8.4
				c0.9,0.5,0.8,1.4-0.2,2l-10.1,5.9C187.2,286.2,186,286.2,184.9,285.7z"/>
			<path class="st6" d="M278.8,339.9l-14.5-8.4c-0.9-0.5-0.8-1.4,0.2-2l10.1-5.9c1-0.6,2.3-0.6,3.4-0.1l14.5,8.4
				c0.9,0.5,0.8,1.4-0.2,2l-10.1,5.9C281.1,340.4,279.8,340.4,278.8,339.9z"/>
			<path class="st6" d="M259.9,329l-70.6-40.8c-0.9-0.5-0.8-1.4,0.2-2l10.1-5.9c1-0.6,2.3-0.6,3.4-0.1l70.6,40.8
				c0.9,0.5,0.8,1.4-0.2,2l-10.1,5.9C262.2,329.4,261,329.5,259.9,329z"/>
			<path class="st6" d="M191.5,255.9l-10.6-6.1c-0.9-0.5-0.8-1.4,0.2-1.9l10.1-5.8c1-0.6,2.3-0.6,3.4-0.1l10.6,6.1
				c0.9,0.5,0.8,1.4-0.2,1.9l-10.1,5.9C193.9,256.4,192.6,256.4,191.5,255.9z"/>
			<path class="st6" d="M206.5,264.6l-10.6-6.1c-0.9-0.5-0.8-1.4,0.2-2l10.1-5.9c1-0.6,2.3-0.6,3.4-0.1l10.6,6.1
				c0.9,0.5,0.8,1.4-0.2,2l-10.1,5.9C208.9,265,207.6,265.1,206.5,264.6z"/>
			<path class="st6" d="M221.6,273.2l-10.6-6.1c-0.9-0.5-0.8-1.4,0.2-2l10.1-5.9c1-0.6,2.3-0.6,3.4-0.1l10.6,6.1
				c0.9,0.5,0.8,1.4-0.2,2l-10.1,5.9C223.9,273.7,222.7,273.8,221.6,273.2z"/>
			<path class="st6" d="M236.6,281.9l-10.6-6.1c-0.9-0.5-0.8-1.4,0.2-2l10.1-5.8c1-0.6,2.3-0.6,3.4-0.1l10.6,6.1
				c0.9,0.5,0.8,1.4-0.2,2l-10.1,5.8C239,282.4,237.7,282.4,236.6,281.9z"/>
			<path class="st6" d="M251.6,290.6l-10.6-6.1c-0.9-0.5-0.8-1.4,0.2-2l10.1-5.9c1-0.6,2.3-0.6,3.4-0.1l10.6,6.1
				c0.9,0.5,0.8,1.4-0.2,2l-10.2,5.9C254,291,252.7,291.1,251.6,290.6z"/>
			<path class="st6" d="M266.6,299.3l-10.6-6.1c-0.9-0.5-0.8-1.4,0.2-2l10.1-5.9c1-0.6,2.3-0.6,3.4-0.1l10.6,6.1
				c0.9,0.5,0.8,1.4-0.2,2l-10.1,5.9C269,299.7,267.7,299.7,266.6,299.3z"/>
			<path class="st6" d="M281.7,307.9l-10.7-6.1c-0.9-0.5-0.8-1.4,0.2-2l10.2-5.8c1-0.6,2.3-0.6,3.4-0.1l10.6,6.1
				c0.9,0.5,0.8,1.4-0.2,2l-10.1,5.9C284,308.4,282.8,308.4,281.7,307.9z"/>
			<path class="st6" d="M296.7,316.6l-10.6-6.1c-0.9-0.5-0.8-1.4,0.2-2l10.1-5.9c1-0.6,2.3-0.6,3.4-0.1l10.6,6.1
				c0.9,0.5,0.8,1.4-0.2,2l-10.1,5.9C299,317.1,297.8,317.1,296.7,316.6z"/>
			<path class="st6" d="M311.7,325.3l-10.6-6.1c-0.9-0.5-0.8-1.4,0.2-2l10.1-5.9c1-0.6,2.3-0.6,3.4-0.1l10.6,6.1
				c0.9,0.5,0.8,1.4-0.2,2l-10.1,5.9C314.1,325.8,312.8,325.8,311.7,325.3z"/>
			<path class="st6" d="M326.7,334l-10.6-6.1c-0.9-0.5-0.8-1.4,0.2-2l10.1-5.9c1-0.6,2.3-0.6,3.4-0.1l10.6,6.1
				c0.9,0.5,0.8,1.4-0.2,2l-10.1,5.9C329.1,334.4,327.8,334.5,326.7,334z"/>
			<path class="st6" d="M341.8,342.6l-10.6-6.1c-0.9-0.5-0.8-1.4,0.2-2l10.1-5.9c1-0.6,2.3-0.6,3.4-0.1l10.6,6.1
				c0.9,0.5,0.8,1.4-0.2,2l-10.1,5.9C344.1,343.1,342.9,343.1,341.8,342.6z"/>
			<path class="st6" d="M356.8,351.3l-10.6-6.1c-0.9-0.5-0.8-1.4,0.2-2l10.1-5.9c1-0.6,2.3-0.6,3.4-0.1l10.6,6.1
				c0.9,0.5,0.8,1.4-0.2,2l-10.1,5.9C359.1,351.8,357.9,351.8,356.8,351.3z"/>
			<path class="st6" d="M176.5,247.2l-22-12.7c-0.9-0.5-0.8-1.4,0.2-2l10.1-5.9c1-0.6,2.3-0.6,3.4-0.1l22,12.7
				c0.9,0.5,0.8,1.4-0.2,1.9l-10.1,5.9C178.8,247.6,177.6,247.7,176.5,247.2z"/>
			<path class="st6" d="M169.5,260l-10.6-6.1c-0.9-0.5-0.8-1.4,0.2-2l10.1-5.9c1-0.6,2.3-0.6,3.4-0.1l10.6,6.1
				c0.9,0.5,0.8,1.4-0.2,2l-10.1,5.8C171.8,260.4,170.6,260.5,169.5,260z"/>
			<path class="st6" d="M184.5,268.7l-10.6-6.1c-0.9-0.5-0.8-1.4,0.2-2l10.1-5.9c1-0.6,2.3-0.6,3.4-0.1l10.6,6.1
				c0.9,0.5,0.8,1.4-0.2,2l-10.1,5.9C186.9,269.1,185.6,269.1,184.5,268.7z"/>
			<path class="st6" d="M199.5,277.4l-10.6-6.1c-0.9-0.5-0.8-1.4,0.2-2l10.1-5.9c1-0.6,2.3-0.6,3.4-0.1l10.6,6.1
				c0.9,0.5,0.8,1.4-0.2,2l-10.1,5.9C201.9,277.8,200.6,277.9,199.5,277.4z"/>
			<path class="st6" d="M214.6,286l-10.6-6.1c-0.9-0.5-0.8-1.4,0.2-2l10.1-5.9c1-0.6,2.3-0.6,3.4-0.1l10.6,6.1
				c0.9,0.5,0.8,1.4-0.2,2l-10.1,5.9C216.9,286.5,215.6,286.5,214.6,286z"/>
			<path class="st6" d="M229.6,294.7l-10.6-6.1c-0.9-0.5-0.8-1.4,0.2-2l10.1-5.9c1-0.6,2.3-0.6,3.4-0.1l10.6,6.1
				c0.9,0.5,0.8,1.4-0.2,2l-10.1,5.8C231.9,295.1,230.7,295.2,229.6,294.7z"/>
			<path class="st6" d="M244.6,303.4l-10.6-6.1c-0.9-0.5-0.8-1.4,0.2-2l10.1-5.9c1-0.6,2.3-0.6,3.4-0.1l10.6,6.1
				c0.9,0.5,0.8,1.4-0.2,2l-10.1,5.9C246.9,303.8,245.7,303.9,244.6,303.4z"/>
			<path class="st6" d="M259.6,312l-10.6-6.1c-0.9-0.5-0.8-1.4,0.2-2l10.1-5.9c1-0.6,2.3-0.6,3.4-0.1l10.6,6.1
				c0.9,0.5,0.8,1.4-0.2,2l-10.2,5.8C262,312.5,260.7,312.5,259.6,312z"/>
			<path class="st6" d="M274.6,320.7l-10.6-6.1c-0.9-0.5-0.8-1.4,0.2-2l10.1-5.9c1-0.6,2.3-0.6,3.4-0.1l10.6,6.1
				c0.9,0.5,0.8,1.4-0.2,2l-10.2,5.9C277,321.1,275.7,321.2,274.6,320.7z"/>
			<path class="st6" d="M289.7,329.4l-10.7-6.1c-0.9-0.5-0.8-1.4,0.2-2l10.1-5.9c1-0.6,2.3-0.6,3.4-0.1l10.6,6.1
				c0.9,0.5,0.8,1.4-0.2,2l-10.1,5.8C292,329.8,290.7,329.9,289.7,329.4z"/>
			<path class="st6" d="M304.7,338.1l-10.6-6.1c-0.9-0.5-0.8-1.4,0.2-2l10.1-5.9c1-0.6,2.3-0.6,3.4-0.1l10.6,6.1
				c0.9,0.5,0.8,1.4-0.2,2l-10.1,5.9C307,338.5,305.8,338.6,304.7,338.1z"/>
			<path class="st6" d="M319.7,346.7l-10.6-6.1c-0.9-0.5-0.8-1.4,0.2-2l10.1-5.9c1-0.6,2.3-0.6,3.4-0.1l10.6,6.1
				c0.9,0.5,0.8,1.4-0.2,2l-10.1,5.9C322,347.2,320.8,347.2,319.7,346.7z"/>
			<path class="st6" d="M353.3,366.1l-29.2-16.9c-0.9-0.5-0.8-1.4,0.2-2l10.1-5.9c1-0.6,2.3-0.6,3.4-0.1l29.2,16.9
				c0.9,0.5,0.8,1.4-0.2,2l-10.1,5.8C355.7,366.6,354.4,366.6,353.3,366.1z"/>
			<path class="st6" d="M154.5,251.3L140,243c-0.9-0.5-0.8-1.4,0.2-2l10.1-5.9c1-0.6,2.3-0.6,3.4-0.1l14.5,8.4
				c0.9,0.5,0.8,1.4-0.2,2l-10.1,5.9C156.8,251.8,155.5,251.8,154.5,251.3z"/>
			<path class="st6" d="M412.1,332.2L198.8,209c-0.9-0.5-0.8-1.4,0.2-2l5.1-2.9c1-0.6,2.3-0.6,3.4-0.1l213.3,123.2
				c0.9,0.5,0.8,1.4-0.2,2l-5.1,2.9C414.5,332.6,413.2,332.7,412.1,332.2z"/>
			<path class="st0" d="M280,346.2c-0.3,0.7-0.8,1.2-1.5,1.5l-58.7,33.9c-2,1.1-4.4,1.2-6.5,0.3L113,324c-0.4-0.2-0.8-0.6-1-1.1
				c-0.4-0.9,0.1-1.9,1.5-2.7l58.7-33.9c2-1.1,4.4-1.2,6.5-0.3L279,344C279.8,344.4,280.3,345.3,280,346.2z"/>
			<path class="st7" d="M280,346.2c-0.3,0.7-0.8,1.2-1.5,1.5l-58.7,33.9c-2,1.1-4.4,1.2-6.5,0.3L113,324c-0.4-0.2-0.8-0.6-1-1.1
				c0.3-0.7,0.8-1.2,1.5-1.5l58.7-33.9c2-1.1,4.4-1.2,6.5-0.3L279,345.1C279.4,345.4,279.8,345.7,280,346.2z"/>
			<path class="st6" d="M428.4,322.8L215,199.6c-1-0.7-1.6-1.8-1.6-3v-2.5c0-1.2,0.7-1.7,1.6-1.2l213.4,123.2c1,0.7,1.6,1.8,1.6,3
				v2.5C430,322.8,429.3,323.3,428.4,322.8z"/>
		</g>
		<g id="Mobile">
			<path class="st5" d="M383.7,471.5l-39.4-22.7c-3.3-1.9-2.9-5.3,0.9-7.5l95.1-54.9c3.9-2.2,9.7-2.5,13-0.5l39.4,22.7
				c3.3,1.9,2.9,5.3-0.9,7.5l-95.1,54.9C392.9,473.1,387.1,473.4,383.7,471.5z"/>
			<path class="st0" d="M388.7,468.5l-39.4-22.7c-3.3-1.9-2.9-5.3,0.9-7.5l95.1-54.9c3.9-2.2,9.7-2.5,13-0.5l39.4,22.7
				c3.3,1.9,2.9,5.3-0.9,7.5l-95.1,54.9C397.9,470.2,392.1,470.4,388.7,468.5z"/>
			<polygon class="st0" points="347.1,442.4 347.1,438.8 351.4,440.4 			"/>
			<polygon class="st0" points="500,408.7 500,405.2 496.6,407.4 			"/>
			<path class="st8" d="M388.7,465.4l-39.4-22.7c-3.3-1.9-2.9-5.3,0.9-7.5l95.1-54.9c3.9-2.2,9.7-2.5,13-0.5l39.4,22.7
				c3.3,1.9,2.9,5.3-0.9,7.5l-95.1,54.9C397.9,467.1,392.1,467.3,388.7,465.4z"/>
			<ellipse transform="matrix(0.866 -0.5 0.5 0.866 -175.9612 236.7208)" class="st9" cx="353.7" cy="446.7" rx="0.4" ry="0.7"/>
			<ellipse transform="matrix(0.866 -0.5 0.5 0.866 -176.2623 237.8126)" class="st9" cx="355.6" cy="447.8" rx="0.4" ry="0.7"/>
			<ellipse transform="matrix(0.866 -0.5 0.5 0.866 -176.5496 238.9081)" class="st9" cx="357.5" cy="448.9" rx="0.4" ry="0.7"/>
			<ellipse transform="matrix(0.866 -0.5 0.5 0.866 -176.8457 240.0012)" class="st9" cx="359.4" cy="450" rx="0.4" ry="0.7"/>
			
				<ellipse transform="matrix(0.867 -0.4983 0.4983 0.867 -179.6579 249.2831)" class="st9" cx="377.2" cy="461.2" rx="0.4" ry="0.7"/>
			<ellipse transform="matrix(0.866 -0.5 0.5 0.866 -179.6511 250.4906)" class="st9" cx="377.6" cy="460.5" rx="0.4" ry="0.7"/>
			<ellipse transform="matrix(0.866 -0.5 0.5 0.866 -179.9484 251.5787)" class="st9" cx="379.5" cy="461.6" rx="0.4" ry="0.7"/>
			<ellipse transform="matrix(0.866 -0.5 0.5 0.866 -180.2431 252.6741)" class="st9" cx="381.4" cy="462.7" rx="0.4" ry="0.7"/>
			<path class="st9" d="M370.2,457l-5.2-3c-0.4-0.3-0.6-0.7-0.6-1.1l0,0c0-0.4,0.3-0.6,0.6-0.5l5.2,3c0.4,0.3,0.6,0.7,0.6,1.1l0,0
				C370.8,457,370.5,457.2,370.2,457z"/>
			<path class="st9" d="M488.1,417.3l-4.8,2.8c-0.3,0.2-0.6,0-0.6-0.4l0,0c0-0.4,0.2-0.8,0.6-1.1l4.8-2.8c0.3-0.2,0.5,0,0.5,0.4l0,0
				C488.6,416.7,488.4,417,488.1,417.3z"/>
			<path class="st9" d="M480.7,421.6l-4.8,2.8c-0.3,0.2-0.5,0-0.5-0.4l0,0c0-0.4,0.2-0.8,0.5-1.1l4.8-2.8c0.3-0.2,0.6,0,0.6,0.4l0,0
				C481.2,420.9,481,421.3,480.7,421.6z"/>
			<path class="st10" d="M388.7,464.9l-39.4-22.7c-3.3-1.9-2.9-5.3,0.9-7.5l95.1-54.9c3.9-2.2,9.7-2.5,13-0.5l39.4,22.7
				c3.3,1.9,2.9,5.3-0.9,7.5l-95.1,54.9C397.9,466.5,392.1,466.8,388.7,464.9z"/>
			<path class="st6" d="M493.5,402.8l-15.4-8.9l0,0c-2.1,1-4.5,1-6.6,0c-1.8-1-1.8-2.8,0-3.8l0,0l-15.4-8.9c-2.7-1.4-5.8-1.4-8.5,0
				l-92.6,53.5c-2.3,1.4-2.3,3.5,0,4.9l37.3,21.5c2.7,1.4,5.8,1.4,8.5,0l92.6-53.5C495.9,406.3,495.9,404.2,493.5,402.8z"/>
			
				<linearGradient id="SVGID_2_" gradientUnits="userSpaceOnUse" x1="-1661.1428" y1="-2721.2024" x2="-1661.1428" y2="-2620.1426" gradientTransform="matrix(0.87 0.5 1 -0.58 4529.3301 -290.9)">
				<stop  offset="0.21" style="stop-color:#FFFFFF;stop-opacity:0"/>
				<stop  offset="1" style="stop-color:#FFFFFF;stop-opacity:0.2"/>
			</linearGradient>
			<path class="st11" d="M493.5,402.8l-15.4-8.9l0,0c-2.1,1-4.5,1-6.6,0c-1.8-1-1.8-2.8,0-3.8l0,0l-15.4-8.9c-2.7-1.4-5.8-1.4-8.5,0
				l-92.6,53.5c-2.3,1.4-2.3,3.5,0,4.9l37.3,21.5c2.7,1.4,5.8,1.4,8.5,0l92.6-53.5C495.9,406.3,495.9,404.2,493.5,402.8z"/>
			<ellipse class="st6" cx="473.8" cy="392.6" rx="1.8" ry="1"/>
			<path class="st12" d="M473.3,392.9c-0.3-0.2-0.3-0.4,0-0.6c0.3-0.2,0.7-0.2,1,0c0.2,0.1,0.3,0.2,0.2,0.4c0,0.1-0.1,0.2-0.2,0.2
				C474,393.1,473.6,393.1,473.3,392.9z"/>
		</g>
		<g id="Watch">
			<path class="st0" d="M56,222.9l-10.7-6.2c-3.3-1.9-2.9-5.3,0.9-7.5l12.6-7.3c3.8-2.2,9.7-2.5,13-0.5l10.7,6.2
				c3.3,1.9,2.9,5.3-0.9,7.5l-12.6,7.3C65.2,224.6,59.4,224.9,56,222.9z"/>
			<path class="st0" d="M84.9,210.6c0-0.1,0-3.5,0-3.5l-3.6,2L84.9,210.6z"/>
			<polygon class="st0" points="116.7,186.1 116.7,184.6 114.3,185.3 			"/>
			<path class="st5" d="M58.3,223.8c-0.6-0.2-1.2-0.4-1.7-0.6l-7.4-6l1.9-1.9l-7-0.9c0,1.1-0.5,2-1.4,2.7L3.3,238.4
				c-3.7,2.1-4.7,6.1-0.9,8.3l0,0c3.3,2.3,9.1,2.1,12.8,0L56.2,225h0.1c1.4-0.8,4.5-0.7,4.5-0.7C60,224.2,59.1,224,58.3,223.8z
				 M40.4,226.3c0.4,0.1,0.6,0.5,0.4,0.9c-0.1,0.2-0.2,0.4-0.4,0.4c-0.7,0.4-1.6,0.4-2.3,0c-0.4-0.1-0.6-0.5-0.5-0.9
				c0.1-0.2,0.2-0.4,0.5-0.5C38.9,225.9,39.7,225.9,40.4,226.3z M36.8,228.4c0.4,0.1,0.6,0.5,0.4,0.9c-0.1,0.2-0.2,0.4-0.4,0.4
				c-0.7,0.4-1.6,0.4-2.3,0c-0.4-0.1-0.6-0.5-0.5-0.9c0.1-0.2,0.2-0.4,0.5-0.5C35.2,228,36.1,228,36.8,228.4L36.8,228.4z
				 M33.2,230.5c0.4,0.1,0.6,0.5,0.4,0.9c-0.1,0.2-0.2,0.4-0.4,0.4c-0.7,0.4-1.6,0.4-2.3,0c-0.4-0.1-0.6-0.5-0.4-0.9
				c0.1-0.2,0.2-0.4,0.4-0.4C31.6,230.1,32.4,230.1,33.2,230.5L33.2,230.5z M29.5,232.6c0.4,0.1,0.6,0.5,0.4,0.9
				c-0.1,0.2-0.2,0.4-0.4,0.4c-0.7,0.4-1.6,0.4-2.3,0c-0.4-0.1-0.6-0.5-0.4-0.9c0.1-0.2,0.2-0.4,0.4-0.4
				C27.9,232.2,28.8,232.2,29.5,232.6L29.5,232.6z M25.9,234.7c0.4,0.1,0.6,0.5,0.4,0.9c-0.1,0.2-0.2,0.4-0.4,0.4
				c-0.7,0.4-1.6,0.4-2.3,0c-0.4-0.1-0.6-0.5-0.4-0.9c0.1-0.2,0.2-0.4,0.4-0.4C24.3,234.3,25.2,234.3,25.9,234.7L25.9,234.7z
				 M16.4,240.3c-0.7-0.3-0.8-0.9-0.2-1.3c0.7-0.4,1.5-0.5,2.3-0.1c0.7,0.3,0.8,0.9,0.2,1.3C18,240.5,17.2,240.6,16.4,240.3
				L16.4,240.3z M20.1,238.2c-0.7-0.3-0.8-0.9-0.2-1.3c0.7-0.4,1.5-0.4,2.3-0.1c0.7,0.3,0.8,0.9,0.2,1.3
				C21.6,238.4,20.8,238.5,20.1,238.2L20.1,238.2z"/>
			<path class="st0" d="M59.5,218.5l-3.2,1.1l-7-4l1.9-1.9l-7-0.9c0,1.1-0.5,2-1.4,2.7L4.2,237.8c-3.7,2.2-3.7,5.6,0,7.8l0,0
				c4.3,2.1,9.3,2.1,13.5,0l38.6-22.3h0.1c1.4-0.8,4.6-0.8,4.6-0.8L59.5,218.5z M40.5,224.6c0.4,0.1,0.6,0.5,0.4,0.9
				c-0.1,0.2-0.2,0.4-0.4,0.4c-0.7,0.4-1.6,0.4-2.3,0c-0.4-0.1-0.6-0.5-0.4-0.9c0.1-0.2,0.2-0.4,0.4-0.4
				C39,224.3,39.8,224.3,40.5,224.6z M36.9,226.7c0.4,0.1,0.6,0.5,0.4,0.9c-0.1,0.2-0.2,0.4-0.4,0.4c-0.7,0.4-1.6,0.4-2.3,0
				c-0.4-0.1-0.6-0.5-0.4-0.9c0.1-0.2,0.2-0.4,0.4-0.4C35.3,226.4,36.2,226.4,36.9,226.7L36.9,226.7z M33.2,228.8
				c0.4,0.1,0.6,0.5,0.4,0.9c-0.1,0.2-0.2,0.4-0.4,0.4c-0.7,0.4-1.6,0.4-2.3,0c-0.4-0.1-0.6-0.5-0.4-0.9c0.1-0.2,0.2-0.4,0.4-0.4
				C31.7,228.5,32.5,228.5,33.2,228.8L33.2,228.8z M29.6,230.9c0.4,0.1,0.6,0.5,0.4,0.9c-0.1,0.2-0.2,0.4-0.4,0.4
				c-0.7,0.4-1.6,0.4-2.3,0c-0.4-0.1-0.6-0.5-0.4-0.9c0.1-0.2,0.2-0.4,0.4-0.4C28,230.6,28.9,230.6,29.6,230.9L29.6,230.9z M26,233
				c0.6,0.4,0.6,1,0,1.3c-0.7,0.4-1.6,0.4-2.3,0c-0.4-0.1-0.6-0.5-0.4-0.9c0.1-0.2,0.2-0.4,0.4-0.4C24.4,232.6,25.3,232.6,26,233z
				 M16.5,238.6c-0.7-0.3-0.8-0.9-0.2-1.3c0.7-0.4,1.6-0.5,2.3-0.1c0.7,0.3,0.8,0.9,0.2,1.3C18.1,238.9,17.3,239,16.5,238.6
				L16.5,238.6z M20.2,236.5c-0.7-0.3-0.8-0.9-0.2-1.3c0.7-0.4,1.6-0.4,2.3-0.1c0.7,0.3,0.8,0.9,0.2,1.3
				C21.8,236.8,20.9,236.8,20.2,236.5L20.2,236.5z"/>
			<path class="st2" d="M59.5,217.1l-3.2,1.1l-7-4l1.9-1.9l-7.8-0.9c0,0,0.9,1.9-0.5,2.7L4.2,236.4c-3.7,2.1-3.7,5.6,0,7.8l0,0
				c4.2,2.2,9.3,2.2,13.5,0l38.6-22.3h0.1c1.4-0.8,4.6-1,4.6-1L59.5,217.1z M40.5,223.2c0.4,0.1,0.6,0.5,0.4,0.9
				c-0.1,0.2-0.2,0.4-0.4,0.4c-0.7,0.4-1.6,0.4-2.3,0c-0.4-0.1-0.6-0.5-0.4-0.9c0.1-0.2,0.2-0.4,0.4-0.4
				C39,222.9,39.8,222.9,40.5,223.2L40.5,223.2z M36.9,225.3c0.4,0.1,0.6,0.5,0.4,0.9c-0.1,0.2-0.2,0.4-0.4,0.4
				c-0.7,0.4-1.6,0.4-2.3,0c-0.4-0.1-0.6-0.5-0.4-0.9c0.1-0.2,0.2-0.4,0.4-0.4C35.3,225,36.2,225,36.9,225.3L36.9,225.3z
				 M33.2,227.4c0.4,0.1,0.6,0.5,0.4,0.9c-0.1,0.2-0.2,0.4-0.4,0.4c-0.7,0.4-1.6,0.4-2.3,0c-0.4-0.1-0.6-0.5-0.4-0.9
				c0.1-0.2,0.2-0.4,0.4-0.4C31.7,227.1,32.5,227.1,33.2,227.4L33.2,227.4z M29.6,229.5c0.4,0.1,0.6,0.5,0.5,0.9
				c-0.1,0.2-0.2,0.4-0.5,0.5c-0.7,0.4-1.6,0.4-2.3,0c-0.4-0.1-0.6-0.5-0.4-0.9c0.1-0.2,0.2-0.4,0.4-0.4
				C28,229.2,28.9,229.2,29.6,229.5L29.6,229.5z M26,231.6c0.4,0.1,0.6,0.5,0.5,0.8c-0.1,0.3-0.3,0.5-0.5,0.5
				c-0.7,0.4-1.6,0.4-2.3,0c-0.4-0.1-0.6-0.5-0.4-0.9c0.1-0.2,0.2-0.4,0.4-0.4C24.4,231.3,25.3,231.3,26,231.6z M16.5,237.2
				c-0.7-0.3-0.8-0.9-0.2-1.3c0.7-0.4,1.5-0.5,2.3-0.1c0.7,0.3,0.8,0.9,0.2,1.3C18.1,237.5,17.3,237.6,16.5,237.2L16.5,237.2z
				 M20.2,235.1c-0.7-0.3-0.8-0.9-0.2-1.3c0.7-0.4,1.6-0.5,2.3-0.1c0.7,0.3,0.8,0.9,0.2,1.3C21.8,235.4,20.9,235.5,20.2,235.1
				L20.2,235.1z"/>
			<path class="st5" d="M87.3,207.1C87.3,207.1,87.3,207.1,87.3,207.1l27.4-17.6c-0.1-1.8-0.4-3.5-0.8-5.3l0,0
				c-4.3-2.1-9.3-2.1-13.5,0l-26.6,15.3c-1.4,0.8-4.6,0.8-4.6,0.8l1.6,4l3.2-1.1l7,4l3.9,0.6v1.7C85.5,208.6,86.3,207.8,87.3,207.1z
				 M103.4,194.1l-6.6-3.8c-0.4-0.1-0.6-0.6-0.5-1c0.1-0.2,0.3-0.4,0.5-0.5c0.8-0.4,1.7-0.4,2.5,0l6.6,3.8c0.4,0.1,0.6,0.6,0.5,1
				c-0.1,0.2-0.2,0.4-0.5,0.5C105.1,194.5,104.2,194.5,103.4,194.1L103.4,194.1z"/>
			<path class="st0" d="M87.3,205.4C87.3,205.4,87.4,205.4,87.3,205.4l26.6-15.4c3.7-2.2,3.7-5.6,0-7.8l0,0c-4.3-2.2-9.3-2.2-13.5,0
				l-26.6,15.4c-1.4,0.8-4.6,0.8-4.6,0.8l1.6,4l3.2-1.1l7,4l-1.9,1.9l5.9,0.8C85.5,207,86.3,206.1,87.3,205.4z M103.4,192.1
				l-6.6-3.8c-0.4-0.1-0.6-0.6-0.5-1c0.1-0.2,0.3-0.4,0.5-0.5c0.8-0.4,1.7-0.4,2.5,0l6.6,3.8c0.4,0.1,0.6,0.6,0.5,1
				c-0.1,0.2-0.3,0.4-0.5,0.5C105.1,192.6,104.2,192.6,103.4,192.1z"/>
			<path class="st2" d="M87.3,204L87.3,204l26.6-15.3c3.7-2.1,3.7-5.6,0-7.8l0,0c-4.3-2.2-9.3-2.2-13.5,0l-26.6,15.4
				c-1.4,0.8-4.6,0.8-4.6,0.8l1.6,4l3.2-1.1l7,4l-1.9,1.9l5.7,0.6C85.4,205.5,86.3,204.7,87.3,204z M103.4,190.7l-6.6-3.7
				c-0.4-0.1-0.6-0.6-0.5-1c0.1-0.2,0.3-0.4,0.5-0.5c0.8-0.4,1.7-0.4,2.5,0l6.6,3.8c0.4,0.1,0.6,0.6,0.5,1c-0.1,0.2-0.3,0.4-0.5,0.5
				C105.1,191.2,104.2,191.2,103.4,190.7L103.4,190.7z"/>
			<path class="st10" d="M56,219.6l-10.7-6.2c-3.3-1.9-2.9-5.3,0.9-7.5l12.6-7.3c3.8-2.2,9.7-2.5,13-0.5l10.7,6.2
				c3.3,1.9,2.9,5.3-0.9,7.5L69.1,219C65.2,221.3,59.4,221.5,56,219.6z"/>
			<path class="st6" d="M47.1,206.5l12.9-7.5c3.2-1.9,8.1-2.1,10.9-0.4l10.7,6.2c2.8,1.6,2.4,4.4-0.8,6.3l-12.9,7.5
				c-3.2,1.9-8.1,2.1-10.9,0.5l-10.7-6.2C43.5,211.2,43.8,208.4,47.1,206.5z"/>
			
				<linearGradient id="SVGID_3_" gradientUnits="userSpaceOnUse" x1="-2126.2256" y1="-2485.239" x2="-2103.9055" y2="-2465.9089" gradientTransform="matrix(0.87 0.5 1 -0.58 4372.6699 -169.47)">
				<stop  offset="0.21" style="stop-color:#FFFFFF;stop-opacity:0"/>
				<stop  offset="1" style="stop-color:#FFFFFF;stop-opacity:0.2"/>
			</linearGradient>
			<path class="st13" d="M47.1,206.5l12.9-7.5c3.2-1.9,8.1-2.1,10.9-0.4l10.7,6.2c2.8,1.6,2.4,4.4-0.8,6.3l-12.9,7.5
				c-3.2,1.9-8.1,2.1-10.9,0.5l-10.7-6.2C43.5,211.2,43.8,208.4,47.1,206.5z"/>
			<ellipse transform="matrix(0.5 -0.866 0.866 0.5 -144.9393 176.8333)" class="st14" cx="80.7" cy="213.9" rx="2.6" ry="1.5"/>
			<polygon class="st14" points="81.9,211.7 82.8,212.2 81.7,212.9 			"/>
			<polygon class="st14" points="80.4,216.7 79.3,216.1 80.6,215.5 			"/>
			<ellipse transform="matrix(0.5 -0.866 0.866 0.5 -144.9313 177.8683)" class="st9" cx="81.6" cy="214.4" rx="2.6" ry="1.5"/>
		</g>
		<g id="Glasses">
			<path class="st5" d="M144.2,429.7l-14-13.1c-1.8-2.6-3.9-4.9-6.3-6.8c-1.1-0.9-2.2-1.7-3.4-2.5l-18.2-12.1l-19.8-8.7
				c-1.2-0.6-2.5-1.1-3.8-1.5c-2.9-1-5.9-1.5-9-1.7L51,377.1c-1.1-0.1-0.5,1.9,0.1,2.7l1.8,0.7c2.3,0.9,0.4,0.6,2.7,2.2l10.9,2.8
				c6.9-0.6,13.7,2,19.7,5.2l14.3,7.2l13.8,8.3c6.1,3.4,10.9,8.6,13.8,14.9l7.3,5.9c2.3,2.1,1,1.2,4.3,1.7l1.9,1.6
				C142.8,430.5,144.9,430.6,144.2,429.7z"/>
			<path class="st15" d="M104.8,402c1.1-1.7,2.6-3.2,4.4-4.2c3.7-2.6,8.5-2,8.5-2c3.5,0.4,7,1.4,10.1,3.1l0.3,0.2l4.8,2.7
				c1.3,0.7,2.5,1.5,3.7,2.3c0.8,0.5,1.6,1.1,2.3,1.7c3.5,2.8,2.5,8.2-0.6,12.5c-1.7,2.4-3.7,4.7-5.9,6.7c-3.9,3.4-9.2,4.6-14.2,3.1
				c-2.3-0.7-4.4-1.7-6.5-2.9c-1.9-1.1-3.7-2.4-5.4-3.8c-4.5-3.9-5.2-9.4-3.3-15.4C103.6,404.6,104.1,403.2,104.8,402z M63.2,376.9
				c2.7-4.2,7.4-7.3,11.3-6c0.9,0.3,1.7,0.6,2.5,0.9c1.3,0.5,2.5,1.1,3.7,1.7l4.6,2.4l0.3,0.2c2.9,1.5,5.4,3.7,7.3,6.3
				c0,0,2.8,3.5,1.8,7.5c-0.3,1.9-1.1,3.8-2.2,5.4c-0.9,1.1-2,2.2-3.2,3.1c-5.1,4.2-10.7,6-16.3,4.2c-2-0.6-4-1.5-5.8-2.5
				c-1.9-1.1-3.6-2.3-5.2-3.8c-3.3-3.1-4.3-7.9-2.7-12.1C60.4,381.6,61.7,379.1,63.2,376.9L63.2,376.9z"/>
			<path class="st6" d="M58,382.9l10.8-1c6.8-0.6,13.7,0.7,19.7,3.9l59.5,29.9l3.5-4.8l-66.6-29.4c-4-1.9-8.3-3-12.8-3.2L51,377.1
				c-0.7-0.1-1.3,0.4-1.4,1.1c0,0.3,0,0.6,0.2,0.8l0.6,0.7C52.2,382,55.1,383.2,58,382.9z"/>
			<path class="st6" d="M134.9,426.1l-4.5-9.9c-2.9-6.3-7.7-11.5-13.8-14.9l-54.3-32.6l3.1-4.6l57.5,38.2c3.8,2.4,7.1,5.6,9.7,9.3
				l12.3,18c0.4,0.6,0.1,1.4-0.5,1.8c-0.3,0.2-0.7,0.2-1,0.1l-1.1-0.2C139.1,431,136.3,429,134.9,426.1z"/>
			
				<linearGradient id="SVGID_4_" gradientUnits="userSpaceOnUse" x1="122.7107" y1="80.256" x2="122.7107" y2="47.2399" gradientTransform="matrix(1 0 0 -1 0 474)">
				<stop  offset="1.000000e-02" style="stop-color:#FFFFFF"/>
				<stop  offset="0.88" style="stop-color:#FFFFFF;stop-opacity:0"/>
			</linearGradient>
			<path class="st16" d="M118.8,393.8c3.5,0.4,7,1.4,10.1,3.1l0.3,0.2l4.8,2.7c1.3,0.7,2.5,1.5,3.7,2.3c0.8,0.5,1.6,1.1,2.3,1.7
				c3.5,2.8,2.4,8.2-0.6,12.5c-1.7,2.4-3.7,4.7-5.9,6.7c-3.9,3.4-9.2,4.6-14.2,3.1c-2.3-0.7-4.4-1.7-6.5-2.8
				c-1.9-1.1-3.7-2.4-5.4-3.8c-4.5-3.9-5.2-9.4-3.3-15.5c0.4-1.4,0.9-2.7,1.7-4c1.1-1.7,2.6-3.2,4.4-4.2
				C113.9,393.2,118.8,393.8,118.8,393.8z"/>
			<path class="st6" d="M63.7,362.9l-2.6,4.1c-0.4,0.6-0.3,1.3,0.2,1.8c0.9,0.8,1.2,2.1,0.7,3.2l-4.3,9.1
				c-2.6,5.3-1.4,11.6,2.9,15.6l0,0c3.6,3.2,7.7,5.6,12.3,7.1l0,0c7.1,2.2,14.9,0.3,20.2-5l4.1-4.1c0.9-0.9,1.4-2.1,1.5-3.3
				c0.3-1.9,2-3.3,3.9-3c0.4,0.1,0.8,0.2,1.1,0.4l1,0.5l1,0.6c1.4,0.9,1.8,2.7,1,4.1c-0.3,0.5-0.8,0.9-1.3,1.1
				c-1.2,0.6-2.1,1.5-2.6,2.7l-2.3,5.2c-2.9,6.6-1.2,14.3,4.3,19l0,0c3.8,3.4,8.4,5.9,13.2,7.5l0,0c6.4,2.1,13.4,0.3,18.1-4.5l7.6-8
				c1-1,2.5-1.4,3.9-1c0.8,0.2,1.6,0,2.1-0.6l3.1-4.2c0.6-0.8,0.6-1.9-0.1-2.7c0,0-5-5.6-16.5-11.8l-4.8-2.6
				c-3.7-2.1-7.8-3.3-12-3.8l-3.7-0.4c-1-0.1-1.9-0.6-2.4-1.4c-0.4-0.5-0.8-1-1.4-1.3l-4.1-2.2l-4.1-2.2c-0.6-0.3-1.2-0.5-1.9-0.5
				c-1,0-1.9-0.5-2.5-1.2l-2-2.7c-2.3-3.1-5.3-5.7-8.8-7.4l-4.6-2.4c-11.1-6-17.6-6.7-17.6-6.7C65.3,361.6,64.3,362,63.7,362.9z
				 M105.8,400c1.1-1.7,2.6-3.2,4.4-4.2c3.7-2.6,8.5-2,8.5-2c3.5,0.4,7,1.4,10.1,3.1l0.3,0.2l4.8,2.7c1.3,0.7,2.5,1.5,3.7,2.3
				c0.8,0.5,1.6,1.1,2.3,1.7c3.5,2.8,2.4,8.2-0.6,12.5c-1.7,2.4-3.7,4.7-5.9,6.7c-3.9,3.4-9.2,4.6-14.2,3.1
				c-2.3-0.7-4.4-1.7-6.5-2.8c-1.9-1.1-3.7-2.4-5.4-3.8c-4.5-3.9-5.2-9.4-3.3-15.5C104.6,402.6,105.1,401.3,105.8,400z M64.2,374.8
				c2.7-4.2,7.3-7.3,11.3-6c0.9,0.3,1.7,0.6,2.5,0.9c1.3,0.5,2.5,1.1,3.7,1.7l4.6,2.4l0.3,0.2c2.9,1.5,5.4,3.7,7.3,6.3
				c0,0,2.7,3.5,1.8,7.5c-0.3,1.9-1,3.8-2.2,5.4c-0.9,1.2-2,2.2-3.2,3.1c-5.1,4.2-10.7,6-16.3,4.2c-2-0.6-4-1.5-5.8-2.5
				c-1.9-1.1-3.6-2.3-5.2-3.8c-3.3-3.1-4.3-7.9-2.7-12.1C61.4,379.6,62.7,377.1,64.2,374.8z"/>
			<path class="st17" d="M90,397c-5.1,4.2-10.6,6-16.3,4.2c-2-0.6-4-1.5-5.8-2.5c-1.9-1.1-3.6-2.3-5.2-3.8
				c-3.3-3.1-4.4-7.9-2.7-12.1c1-2.6,2.3-5,3.8-7.3l0.1-0.1c-1.4,2.1-2.5,4.4-3.5,6.8c-1.7,4.2-0.6,9,2.7,12.1
				c1.6,1.5,3.4,2.8,5.2,3.8c1.8,1,3.8,1.9,5.8,2.5c5.6,1.8,11.2,0,16.3-4.2c1.2-0.9,2.2-1.9,3.1-3c-0.1,0.2-0.2,0.4-0.4,0.6
				C92.2,395.1,91.2,396.1,90,397z"/>
			<path class="st17" d="M133.1,423.7c-3.9,3.4-9.2,4.6-14.1,3.1c-2.3-0.7-4.4-1.7-6.5-2.9c-1.9-1.1-3.7-2.4-5.4-3.8
				c-4.5-3.9-5.2-9.4-3.3-15.4c0.4-1.4,0.9-2.7,1.7-4c0.1-0.2,0.3-0.4,0.4-0.6c-0.7,1.2-1.2,2.6-1.6,3.9c-1.9,6.1-1.1,11.5,3.3,15.5
				c1.7,1.5,3.5,2.7,5.4,3.8c2.1,1.2,4.2,2.1,6.5,2.8c4.9,1.5,10.3,0.3,14.1-3.1c2-1.8,3.8-3.9,5.4-6.1c0,0,0,0.1-0.1,0.1
				C137.2,419.4,135.3,421.7,133.1,423.7z"/>
			
				<linearGradient id="SVGID_5_" gradientUnits="userSpaceOnUse" x1="77.8236" y1="105.5054" x2="77.8236" y2="72.8054" gradientTransform="matrix(1 0 0 -1 0 474)">
				<stop  offset="1.000000e-02" style="stop-color:#FFFFFF"/>
				<stop  offset="0.88" style="stop-color:#FFFFFF;stop-opacity:0"/>
			</linearGradient>
			<path class="st18" d="M94,380.3c-2-2.6-4.5-4.8-7.3-6.3l-0.3-0.2l-4.6-2.4c-1.2-0.6-2.5-1.2-3.7-1.7c-0.8-0.3-1.7-0.6-2.5-0.9
				c-4-1.3-8.6,1.9-11.3,6c-1.5,2.3-2.8,4.7-3.8,7.3c-1.7,4.2-0.6,9,2.7,12.1c1.6,1.5,3.4,2.8,5.2,3.9c1.8,1,3.8,1.9,5.8,2.5
				c5.6,1.8,11.2,0,16.3-4.2c1.2-0.9,2.2-1.9,3.2-3.1c1.2-1.6,1.9-3.4,2.2-5.4C96.7,383.8,94,380.3,94,380.3z"/>
		</g>
	</g>
</g>
</svg>
